<?xml version="1.0" encoding="UTF-8"?>
<svg version="1.1" xmlns="http://www.w3.org/2000/svg" width="128" height="128">
<path d="M0 0 C9.2885078 6.04644574 16.30704248 13.66242586 19.23828125 24.45703125 C20.46037108 35.51909764 20.10526593 45.98365476 13.25 55.1015625 C7.08889932 62.3693203 1.22290957 66.5138041 -7.76171875 69.45703125 C-7.76582764 70.73344482 -7.76993652 72.0098584 -7.77416992 73.32495117 C-7.79596954 78.06836119 -7.85026821 82.8109427 -7.91430664 87.55395508 C-7.93747934 89.60530649 -7.95188064 91.65677675 -7.95727539 93.70825195 C-7.96657018 96.66042075 -8.00757239 99.61072211 -8.0546875 102.5625 C-8.05075485 103.47726608 -8.0468222 104.39203217 -8.04277039 105.33451843 C-8.07223503 106.62529045 -8.07223503 106.62529045 -8.10229492 107.94213867 C-8.10895676 108.69492599 -8.11561859 109.44771332 -8.1224823 110.22331238 C-9.13640636 113.76632265 -10.85884707 115.24218316 -13.76171875 117.45703125 C-16.63326158 117.95237525 -18.91190297 118.14314608 -21.77734375 118.10400391 C-22.56983521 118.1127655 -23.36232666 118.1215271 -24.17883301 118.1305542 C-26.790357 118.15250535 -29.40017849 118.13801181 -32.01171875 118.12109375 C-33.83105798 118.12446314 -35.65039502 118.12931679 -37.46972656 118.1355896 C-41.27951525 118.14295509 -45.08871712 118.13226608 -48.8984375 118.10888672 C-53.77800201 118.08039885 -58.6561915 118.0968046 -63.53570557 118.12674904 C-67.29160899 118.14483093 -71.04718728 118.13905996 -74.80310059 118.12611008 C-76.60201175 118.12277852 -78.4009526 118.12685438 -80.1998291 118.13850784 C-82.71604405 118.15123172 -85.23004354 118.13182076 -87.74609375 118.10400391 C-88.48702271 118.11412506 -89.22795166 118.12424622 -89.99133301 118.13467407 C-93.61143209 118.06066071 -95.67193423 117.51540216 -98.72225952 115.53231812 C-101.6005458 111.19216958 -101.46438179 107.71136271 -101.40869141 102.60546875 C-101.4218338 101.12412445 -101.4218338 101.12412445 -101.4352417 99.612854 C-101.45722787 96.35213133 -101.44268495 93.09276744 -101.42578125 89.83203125 C-101.42914959 87.56428772 -101.43400235 85.29654595 -101.4402771 83.02880859 C-101.44764741 78.27749432 -101.43693725 73.52665023 -101.41357422 68.77539062 C-101.38508703 62.68523738 -101.40149006 56.59618582 -101.43143654 50.506073 C-101.44950482 45.82372742 -101.44375348 41.141643 -101.43079758 36.45928955 C-101.4274623 34.21380483 -101.43155487 31.96829638 -101.44319534 29.72283936 C-101.45589569 26.58411867 -101.43653676 23.44718158 -101.40869141 20.30859375 C-101.41881256 19.38065002 -101.42893372 18.4527063 -101.43936157 17.49664307 C-101.36720455 13.10609435 -101.17652078 11.03987793 -98.57011414 7.37756348 C-95.42102083 5.22404364 -93.9524189 4.84385899 -90.18041992 4.87695312 C-89.085457 4.87344849 -87.99049408 4.86994385 -86.86235046 4.86633301 C-85.68832169 4.88595093 -84.51429291 4.90556885 -83.3046875 4.92578125 C-82.08775711 4.92251831 -80.87082672 4.91925537 -79.61701965 4.91589355 C-74.41645454 4.90273163 -69.21674696 4.94743174 -64.01635742 4.98681641 C-60.21636676 5.00732982 -56.41720026 4.9984462 -52.6171875 4.98828125 C-51.44923141 5.00789917 -50.28127533 5.02751709 -49.07792664 5.04772949 C-41.74380826 5.02445624 -37.57390504 3.85693828 -31.76171875 -0.54296875 C-22.72817241 -4.48618342 -8.86150653 -4.33127176 0 0 Z M-82.76171875 9.45703125 C-82.76171875 14.73703125 -82.76171875 20.01703125 -82.76171875 25.45703125 C-81.44171875 24.46703125 -80.12171875 23.47703125 -78.76171875 22.45703125 C-75.25561196 22.71357565 -73.73382865 23.47562465 -70.76171875 25.45703125 C-70.76171875 20.17703125 -70.76171875 14.89703125 -70.76171875 9.45703125 C-74.72171875 9.45703125 -78.68171875 9.45703125 -82.76171875 9.45703125 Z M-25.76171875 11.45703125 C-25.76171875 13.10703125 -25.76171875 14.75703125 -25.76171875 16.45703125 C-26.68984375 16.23015625 -27.61796875 16.00328125 -28.57421875 15.76953125 C-31.66020644 15.16443017 -31.66020644 15.16443017 -33.69921875 16.51953125 C-35.26126237 19.36796373 -34.51092899 21.39208028 -33.76171875 24.45703125 C-35.41171875 24.45703125 -37.06171875 24.45703125 -38.76171875 24.45703125 C-39.09171875 26.76703125 -39.42171875 29.07703125 -39.76171875 31.45703125 C-38.77171875 31.45703125 -37.78171875 31.45703125 -36.76171875 31.45703125 C-36.76171875 32.77703125 -36.76171875 34.09703125 -36.76171875 35.45703125 C-37.75171875 35.45703125 -38.74171875 35.45703125 -39.76171875 35.45703125 C-39.43171875 37.76703125 -39.10171875 40.07703125 -38.76171875 42.45703125 C-37.11171875 42.45703125 -35.46171875 42.45703125 -33.76171875 42.45703125 C-33.98859375 43.38515625 -34.21546875 44.31328125 -34.44921875 45.26953125 C-35.05431983 48.35551894 -35.05431983 48.35551894 -33.69921875 50.39453125 C-30.85078627 51.95657487 -28.82666972 51.20624149 -25.76171875 50.45703125 C-25.76171875 52.10703125 -25.76171875 53.75703125 -25.76171875 55.45703125 C-22.29671875 55.95203125 -22.29671875 55.95203125 -18.76171875 56.45703125 C-18.76171875 55.46703125 -18.76171875 54.47703125 -18.76171875 53.45703125 C-17.44171875 53.45703125 -16.12171875 53.45703125 -14.76171875 53.45703125 C-14.76171875 54.44703125 -14.76171875 55.43703125 -14.76171875 56.45703125 C-11.29671875 55.96203125 -11.29671875 55.96203125 -7.76171875 55.45703125 C-7.76171875 53.80703125 -7.76171875 52.15703125 -7.76171875 50.45703125 C-6.83359375 50.68390625 -5.90546875 50.91078125 -4.94921875 51.14453125 C-1.86323106 51.74963233 -1.86323106 51.74963233 0.17578125 50.39453125 C1.73782487 47.54609877 0.98749149 45.52198222 0.23828125 42.45703125 C1.88828125 42.45703125 3.53828125 42.45703125 5.23828125 42.45703125 C5.56828125 40.14703125 5.89828125 37.83703125 6.23828125 35.45703125 C5.24828125 35.45703125 4.25828125 35.45703125 3.23828125 35.45703125 C3.23828125 34.13703125 3.23828125 32.81703125 3.23828125 31.45703125 C4.22828125 31.45703125 5.21828125 31.45703125 6.23828125 31.45703125 C5.74328125 27.99203125 5.74328125 27.99203125 5.23828125 24.45703125 C3.58828125 24.45703125 1.93828125 24.45703125 0.23828125 24.45703125 C0.46515625 23.52890625 0.69203125 22.60078125 0.92578125 21.64453125 C1.53088233 18.55854356 1.53088233 18.55854356 0.17578125 16.51953125 C-2.67265123 14.95748763 -4.69676778 15.70782101 -7.76171875 16.45703125 C-7.76171875 14.80703125 -7.76171875 13.15703125 -7.76171875 11.45703125 C-10.07171875 11.12703125 -12.38171875 10.79703125 -14.76171875 10.45703125 C-14.76171875 11.44703125 -14.76171875 12.43703125 -14.76171875 13.45703125 C-16.08171875 13.45703125 -17.40171875 13.45703125 -18.76171875 13.45703125 C-18.76171875 12.46703125 -18.76171875 11.47703125 -18.76171875 10.45703125 C-22.65630949 10.24621274 -22.65630949 10.24621274 -25.76171875 11.45703125 Z M-80.76171875 45.45703125 C-80.76171875 50.73703125 -80.76171875 56.01703125 -80.76171875 61.45703125 C-67.56171875 61.45703125 -54.36171875 61.45703125 -40.76171875 61.45703125 C-42.74171875 58.81703125 -44.72171875 56.17703125 -46.76171875 53.45703125 C-48.08171875 50.81703125 -49.40171875 48.17703125 -50.76171875 45.45703125 C-60.66171875 45.45703125 -70.56171875 45.45703125 -80.76171875 45.45703125 Z M-95.76171875 104.45703125 C-96.59505208 107.45703125 -96.59505208 107.45703125 -95.76171875 110.45703125 C-91.80789156 113.59532112 -88.61986363 113.83577393 -83.6640625 113.84521484 C-82.62162888 113.85310028 -82.62162888 113.85310028 -81.55813599 113.86114502 C-79.27159845 113.87429855 -76.9857628 113.86562397 -74.69921875 113.85546875 C-73.10408393 113.85749083 -71.50895002 113.86040339 -69.91381836 113.86416626 C-66.57494279 113.8685833 -63.23630842 113.8621787 -59.89746094 113.84814453 C-55.62351786 113.83105283 -51.35014 113.84089736 -47.07621765 113.85886192 C-43.78360761 113.86971663 -40.49113097 113.86624572 -37.19851685 113.85847855 C-35.6228936 113.8564812 -34.04725814 113.85891946 -32.47164917 113.86591721 C-30.2672327 113.87355972 -28.06372407 113.86188953 -25.859375 113.84521484 C-24.60648682 113.84282806 -23.35359863 113.84044128 -22.06274414 113.83798218 C-18.52256885 113.42943244 -16.59582266 112.57701533 -13.76171875 110.45703125 C-13.76171875 110.12703125 -13.76171875 109.79703125 -13.76171875 109.45703125 C-35.87171875 109.45703125 -57.98171875 109.45703125 -80.76171875 109.45703125 C-80.76171875 108.13703125 -80.76171875 106.81703125 -80.76171875 105.45703125 C-79.99608109 105.46369308 -79.23044342 105.47035492 -78.44160461 105.47721863 C-71.21755459 105.53739086 -63.99362651 105.58303653 -56.76939106 105.61246777 C-53.05554301 105.62810748 -49.34190247 105.64931434 -45.62817383 105.68334961 C-42.04255834 105.7160042 -38.45714213 105.73389701 -34.87138939 105.74166298 C-33.50506644 105.7471956 -32.1387541 105.75799961 -30.77251625 105.77422142 C-28.85537018 105.796074 -26.93802253 105.79725732 -25.02075195 105.79760742 C-23.93043167 105.80426926 -22.84011139 105.81093109 -21.7167511 105.8177948 C-18.37264595 105.4095315 -16.46435823 104.43224236 -13.76171875 102.45703125 C-13.76171875 102.12703125 -13.76171875 101.79703125 -13.76171875 101.45703125 C-23.71487324 101.38749566 -33.66796986 101.33420188 -43.62131786 101.30159473 C-48.24315666 101.28594428 -52.86482917 101.26471732 -57.48657227 101.23071289 C-61.94750412 101.19809733 -66.40827611 101.18017357 -70.86931801 101.17239952 C-72.57056507 101.16685996 -74.27180347 101.15604249 -75.97298241 101.13984108 C-78.35742419 101.11803734 -80.74120685 101.11506551 -83.12573242 101.11645508 C-83.82776291 101.10566925 -84.5297934 101.09488342 -85.25309753 101.08377075 C-89.56908964 101.11095481 -92.37661706 101.72142777 -95.76171875 104.45703125 Z " fill="#1F81CE" transform="translate(104.76171875,6.54296875)"/>
<path d="M0 0 C0.33 7.59 0.66 15.18 1 23 C4.56311466 21.21844267 6.35645475 19.83236991 9 17 C12.3859496 18.45112126 14.41675821 20.41675821 17 23 C17.66 23 18.32 23 19 23 C19.33 15.41 19.66 7.82 20 0 C27.59 0 35.18 0 43 0 C41.50260417 2.66927083 40.00520833 5.33854167 38.5078125 8.0078125 C34.08666645 16.78138213 35 21.09772979 35 32 C19.16 32.495 19.16 32.495 3 33 C3 40.26 3 47.52 3 55 C5.30000977 55.02187378 5.30000977 55.02187378 7.64648438 55.04418945 C13.35700331 55.10233578 19.06713469 55.17956837 24.77734375 55.26245117 C27.24472749 55.29562363 29.71218571 55.32367926 32.1796875 55.34643555 C35.73469666 55.38012213 39.28902798 55.43244702 42.84375 55.48828125 C43.93989624 55.49467117 45.03604248 55.5010611 46.16540527 55.50764465 C52.54052765 55.62892599 57.1345778 56.54854822 63 59 C66.11422233 59.55260231 66.11422233 59.55260231 69 59.6875 C69.94875 59.75324219 70.8975 59.81898437 71.875 59.88671875 C72.57625 59.92410156 73.2775 59.96148437 74 60 C74.11618764 63.91641711 74.18724654 67.83239101 74.25 71.75 C74.28351563 72.86117187 74.31703125 73.97234375 74.3515625 75.1171875 C74.37089844 76.72207031 74.37089844 76.72207031 74.390625 78.359375 C74.4220459 79.83615723 74.4220459 79.83615723 74.45410156 81.34277344 C73.8508001 84.87306009 72.83360325 85.83070119 70 88 C67.37018934 88.39808174 65.15336104 88.55478263 62.52514648 88.5300293 C61.77835632 88.53876068 61.03156616 88.54749207 60.262146 88.55648804 C57.7982169 88.58084894 55.3351279 88.57745429 52.87109375 88.57421875 C51.15762401 88.58666366 49.44416703 88.60099782 47.73072815 88.61714172 C43.22243623 88.6551821 38.71436401 88.67035748 34.20593262 88.67993164 C26.98613755 88.69966916 19.76651014 88.75649716 12.54689217 88.80869484 C10.02363237 88.82405115 7.5004559 88.83123416 4.97715759 88.83683777 C3.43325765 88.84385356 1.88935808 88.85095444 0.34545898 88.8581543 C-0.35747787 88.85762558 -1.06041473 88.85709686 -1.78465271 88.85655212 C-4.80486037 88.87528458 -7.10914983 89.03638328 -10 90 C-10.0694394 78.7084605 -10.12278043 67.4169716 -10.15543652 56.12526226 C-10.17110796 50.88234109 -10.19237325 45.63956575 -10.22631836 40.39672852 C-10.25885901 35.33929316 -10.27684187 30.28199827 -10.28463173 25.22446632 C-10.29018476 23.2927002 -10.30102819 21.36094196 -10.31719017 19.42923546 C-10.33889413 16.72828796 -10.34196989 14.02792464 -10.34057617 11.3269043 C-10.351362 10.52417587 -10.36214783 9.72144745 -10.3732605 8.89439392 C-10.35685077 5.96516741 -10.31864157 3.59402268 -8.91621399 0.97956848 C-7 0 -7 0 0 0 Z " fill="#9AC8FE" transform="translate(18,16)"/>
<path d="M0 0 C7.39223743 4.35070861 11.64594118 10.18487969 15.375 17.8125 C17.24490199 27.34900015 16.53830008 36.93574681 11.59375 45.41015625 C6.21719431 53.00580922 -1.08885378 57.50713504 -10 60 C-18.16786198 60.88135023 -24.94138875 60.29421217 -32 56 C-33.04800781 55.38125 -33.04800781 55.38125 -34.1171875 54.75 C-41.49878749 49.8475034 -45.64893302 42.43178111 -48 34 C-48.88055277 25.83952844 -48.30216839 19.0496591 -44 12 C-43.57589844 11.30132812 -43.15179688 10.60265625 -42.71484375 9.8828125 C-32.98985553 -4.47441245 -15.08665444 -8.30671711 0 0 Z M-25 6 C-25 7.65 -25 9.3 -25 11 C-25.928125 10.773125 -26.85625 10.54625 -27.8125 10.3125 C-30.89848769 9.70739892 -30.89848769 9.70739892 -32.9375 11.0625 C-34.49954362 13.91093248 -33.74921024 15.93504903 -33 19 C-34.65 19 -36.3 19 -38 19 C-38.33 21.31 -38.66 23.62 -39 26 C-38.01 26 -37.02 26 -36 26 C-36 27.32 -36 28.64 -36 30 C-36.99 30 -37.98 30 -39 30 C-38.67 32.31 -38.34 34.62 -38 37 C-36.35 37 -34.7 37 -33 37 C-33.226875 37.928125 -33.45375 38.85625 -33.6875 39.8125 C-34.29260108 42.89848769 -34.29260108 42.89848769 -32.9375 44.9375 C-30.08906752 46.49954362 -28.06495097 45.74921024 -25 45 C-25 46.65 -25 48.3 -25 50 C-21.535 50.495 -21.535 50.495 -18 51 C-18 50.01 -18 49.02 -18 48 C-16.68 48 -15.36 48 -14 48 C-14 48.99 -14 49.98 -14 51 C-10.535 50.505 -10.535 50.505 -7 50 C-7 48.35 -7 46.7 -7 45 C-6.071875 45.226875 -5.14375 45.45375 -4.1875 45.6875 C-1.10151231 46.29260108 -1.10151231 46.29260108 0.9375 44.9375 C2.49954362 42.08906752 1.74921024 40.06495097 1 37 C2.65 37 4.3 37 6 37 C6.33 34.69 6.66 32.38 7 30 C6.01 30 5.02 30 4 30 C4 28.68 4 27.36 4 26 C4.99 26 5.98 26 7 26 C6.505 22.535 6.505 22.535 6 19 C4.35 19 2.7 19 1 19 C1.226875 18.071875 1.45375 17.14375 1.6875 16.1875 C2.29260108 13.10151231 2.29260108 13.10151231 0.9375 11.0625 C-1.91093248 9.50045638 -3.93504903 10.25078976 -7 11 C-7 9.35 -7 7.7 -7 6 C-9.31 5.67 -11.62 5.34 -14 5 C-14 5.99 -14 6.98 -14 8 C-15.32 8 -16.64 8 -18 8 C-18 7.01 -18 6.02 -18 5 C-21.89459074 4.78918149 -21.89459074 4.78918149 -25 6 Z " fill="#2184CF" transform="translate(104,12)"/>
<path d="M0 0 C7.39223743 4.35070861 11.64594118 10.18487969 15.375 17.8125 C17.24490199 27.34900015 16.53830008 36.93574681 11.59375 45.41015625 C6.21719431 53.00580922 -1.08885378 57.50713504 -10 60 C-18.16786198 60.88135023 -24.94138875 60.29421217 -32 56 C-33.04800781 55.38125 -33.04800781 55.38125 -34.1171875 54.75 C-41.49878749 49.8475034 -45.64893302 42.43178111 -48 34 C-48.88055277 25.83952844 -48.30216839 19.0496591 -44 12 C-43.57589844 11.30132812 -43.15179688 10.60265625 -42.71484375 9.8828125 C-32.98985553 -4.47441245 -15.08665444 -8.30671711 0 0 Z M-39 11 C-43.6973389 18.38541145 -44.75716617 25.32503901 -44 34 C-42.09557667 41.36529987 -37.3200603 48.25231459 -30.875 52.3515625 C-23.95328697 55.88876144 -17.76633059 56.94467647 -10 56 C-0.37030327 52.75533684 5.7197541 47.70562493 10.375 38.8125 C13.19921826 31.84688606 13.21978341 24.23581981 10.4375 17.25 C5.75408544 8.19539853 -0.45481584 3.18172805 -10 0 C-21.99377222 -1.09852869 -30.90359558 1.9144421 -39 11 Z " fill="#93C4FC" transform="translate(104,12)"/>
<path d="M0 0 C19.14 0 38.28 0 58 0 C58 1.32 58 2.64 58 4 C38.86 4 19.72 4 0 4 C0 2.68 0 1.36 0 0 Z " fill="#1E81CE" transform="translate(21,84)"/>
<path d="M0 0 C16.5 0 33 0 50 0 C50 1.32 50 2.64 50 4 C33.5 4 17 4 0 4 C0 2.68 0 1.36 0 0 Z " fill="#1E81CE" transform="translate(21,76)"/>
<path d="M0 0 C1.32 0 2.64 0 4 0 C4.06058594 0.85464844 4.12117188 1.70929687 4.18359375 2.58984375 C4.26738281 3.69457031 4.35117188 4.79929687 4.4375 5.9375 C4.51871094 7.03964844 4.59992188 8.14179687 4.68359375 9.27734375 C4.70418084 11.91109903 4.70418084 11.91109903 6 13 C6.125 16 6.125 16 6 19 C5 20 5 20 2 20.125 C-1 20 -1 20 -2 19 C-3.34747084 18.76924918 -4.70377565 18.58846937 -6.0625 18.4375 C-7.361875 18.293125 -8.66125 18.14875 -10 18 C-10 16.68 -10 15.36 -10 14 C-7.94921875 13.77213542 -5.8984375 13.54427083 -3.84765625 13.31640625 C-1.98859771 13.18113386 -1.98859771 13.18113386 -1 12 C-0.76572222 9.98405418 -0.58663876 7.961526 -0.4375 5.9375 C-0.35371094 4.83277344 -0.26992187 3.72804688 -0.18359375 2.58984375 C-0.12300781 1.73519531 -0.06242187 0.88054688 0 0 Z " fill="#1E81CE" transform="translate(86,24)"/>
<path d="M0 0 C0.99 0.33 1.98 0.66 3 1 C3.60882353 8.91470588 3.60882353 8.91470588 1.5625 12.5625 C-2.2277801 14.68875469 -5.74983302 14.32693592 -10 14 C-10 12.68 -10 11.36 -10 10 C-7.36 9.67 -4.72 9.34 -2 9 C-1.855625 7.700625 -1.71125 6.40125 -1.5625 5.0625 C-1.125 1.125 -1.125 1.125 0 0 Z " fill="#2182CF" transform="translate(85,86)"/>
<path d="M0 0 C2.64 0 5.28 0 8 0 C8 1.32 8 2.64 8 4 C5.36 4 2.72 4 0 4 C0 2.68 0 1.36 0 0 Z " fill="#1E80CE" transform="translate(12,112)"/>
</svg>
