<?xml version="1.0" encoding="UTF-8"?>
<svg version="1.1" xmlns="http://www.w3.org/2000/svg" width="512" height="512">
<path d="M0 0 C6.98916139 4.64989289 14.80447736 11.46241666 16.70068359 20.00317383 C16.83555176 20.7742749 16.97041992 21.54537598 17.109375 22.33984375 C17.96048859 22.32318916 17.96048859 22.32318916 18.82879639 22.30619812 C24.73336041 22.19559741 30.63763037 22.12017417 36.54296875 22.06518555 C38.74686636 22.04003801 40.95068055 22.00591548 43.15429688 21.96264648 C46.32182386 21.90200689 49.4882486 21.87363626 52.65625 21.8515625 C53.64179871 21.82575607 54.62734741 21.79994965 55.64276123 21.77336121 C62.36553671 21.7706035 62.36553671 21.7706035 65.76269531 24.37036133 C67.53559109 28.27966722 67.20369407 31.06537407 67.109375 35.33984375 C68.62035011 35.32652008 68.62035011 35.32652008 70.16184998 35.31292725 C79.68032814 35.23164716 89.19873539 35.17178538 98.71748257 35.13259506 C103.61054956 35.11176915 108.50333516 35.08354324 113.39624023 35.03808594 C118.12303983 34.99444939 122.84956969 34.97066911 127.57655525 34.96033478 C129.37499293 34.95297526 131.17341676 34.93860408 132.97173882 34.91692352 C151.12130415 34.70692372 151.12130415 34.70692372 158.109375 39.33984375 C158.72280258 39.72412537 159.33623016 40.10840698 159.96824646 40.5043335 C165.60003983 44.6174257 169.27252606 50.65149474 171.109375 57.33984375 C171.96492539 63.45203479 171.73189691 69.64852372 171.59273338 75.80306435 C171.52610302 78.8855237 171.50227523 81.96574569 171.48982239 85.0488739 C171.44770363 93.80348747 171.33544921 102.55648066 171.18188477 111.30981445 C171.0905083 116.68615808 171.05266553 122.06077402 171.04717445 127.43785667 C171.03402821 129.47818218 171.00004994 131.51848712 170.94454002 133.55809975 C170.17122317 144.56667161 170.17122317 144.56667161 174.51257324 154.08399963 C177.32511505 155.88049603 180.01456022 157.1166733 183.109375 158.33984375 C205.8695696 174.82403055 218.94713545 200.53965516 223.69140625 227.66796875 C226.96512356 256.42772827 220.05889556 284.56277918 202.12719727 307.49560547 C193.81527111 317.80994322 184.08500379 327.35202935 172.109375 333.33984375 C172.10975203 334.02453609 172.11012905 334.70922844 172.1105175 335.41466904 C172.11765193 352.11780327 172.09158104 368.82052797 172.0290966 385.5235405 C171.9996695 393.60121122 171.98125192 401.67862013 171.98925781 409.75634766 C171.99621184 416.80151109 171.98199381 423.84626888 171.94293892 430.89133286 C171.92300568 434.61763354 171.91327638 438.34329835 171.92895126 442.06963348 C171.94610379 446.24196481 171.91596109 450.41272951 171.88232422 454.58496094 C171.89454514 455.80416733 171.90676605 457.02337372 171.9193573 458.27952576 C171.78717211 467.42187554 169.46524613 475.16418695 163.48617363 482.26853561 C155.09846466 490.07039794 145.98002197 490.92469062 134.93437195 490.86123657 C133.50384295 490.86728514 132.07332041 490.87506688 130.64280921 490.88442171 C126.72985205 490.90492884 122.81726247 490.90063193 118.90427554 490.89206052 C114.67713095 490.8871163 110.45007377 490.90516642 106.22296143 490.9201355 C97.94831867 490.94560729 89.67380579 490.94921964 81.39913043 490.94453497 C74.6712675 490.94096565 67.94344393 490.94447426 61.21558571 490.95298386 C60.25721944 490.95417423 59.29885318 490.95536461 58.31144551 490.95659106 C56.36436908 490.95901463 54.41729266 490.96144289 52.47021625 490.96387582 C34.21861746 490.98561857 15.96709261 490.98130588 -2.28451034 490.96910612 C-18.9692627 490.95876984 -35.65378145 490.98127452 -52.3384876 491.01930256 C-69.48340072 491.05807896 -86.62820339 491.07456785 -103.77316064 491.06705606 C-113.39350745 491.06323475 -123.01365547 491.06818022 -132.63396645 491.09648514 C-140.82446476 491.12033995 -149.01464195 491.12309259 -157.2051448 491.0989048 C-161.38097721 491.08714562 -165.55622266 491.08487547 -169.73201561 491.10890961 C-173.56118422 491.13069185 -177.38927816 491.12434806 -181.21839716 491.09638624 C-183.24613239 491.08862619 -185.27391594 491.11013583 -187.30153733 491.13297999 C-196.80626004 491.02133908 -205.23048095 488.97838953 -212.15993768 482.08104861 C-220.25213197 472.53115904 -220.32629102 462.85992304 -220.27830505 450.9178772 C-220.28248016 449.23105273 -220.28795865 447.54423107 -220.29462487 445.8574146 C-220.30907501 441.23149572 -220.30483608 436.60575507 -220.29745805 431.97982645 C-220.29272762 426.98721044 -220.30523515 421.99463305 -220.31547546 417.00202942 C-220.33267135 407.22463716 -220.33350181 397.44730914 -220.32826256 387.66990568 C-220.32422102 379.72252056 -220.32566423 371.77515444 -220.33101082 363.82777023 C-220.33175924 362.69661863 -220.33250766 361.56546704 -220.33327876 360.40003812 C-220.33481024 358.1020947 -220.33634859 355.80415128 -220.33789373 353.50620787 C-220.35162169 331.95649297 -220.34617905 310.40681437 -220.33470852 288.85710029 C-220.32477631 269.144656 -220.33771609 249.43230558 -220.36164271 229.71987577 C-220.38602853 209.47652229 -220.39564282 189.23321255 -220.38898998 168.98984468 C-220.38549656 157.62578691 -220.387738 146.26180133 -220.40524101 134.89775467 C-220.41995651 125.22356374 -220.42060693 115.54949584 -220.4031701 105.87530734 C-220.39465232 100.94038647 -220.39252963 96.00568544 -220.40782166 91.07077599 C-220.42165543 86.5504615 -220.41692239 82.03055546 -220.39758242 77.51026468 C-220.39381808 75.87776722 -220.39675689 74.24523716 -220.40719407 72.61276872 C-220.4722405 61.65717261 -219.80183284 51.27986921 -211.79840088 42.92837524 C-201.63304741 34.46407694 -191.28217511 34.52577695 -178.78125 34.75390625 C-176.95995493 34.76512024 -175.13864155 34.77364999 -173.31732178 34.77963257 C-168.56254624 34.80235789 -163.80889993 34.86113668 -159.05456543 34.92785645 C-154.18757394 34.98963427 -149.32039697 35.0167228 -144.453125 35.046875 C-134.93180008 35.11089892 -125.41130705 35.21307635 -115.890625 35.33984375 C-115.92027344 34.24414062 -115.94992188 33.1484375 -115.98046875 32.01953125 C-115.87803488 27.82419602 -114.86916838 25.31838713 -111.890625 22.33984375 C-110.44772713 22.2468856 -109.00032715 22.22237862 -107.55444336 22.22631836 C-106.6335643 22.22639389 -105.71268524 22.22646942 -104.76390076 22.22654724 C-103.76286819 22.23170853 -102.76183563 22.23686981 -101.73046875 22.2421875 C-100.71086563 22.24360245 -99.69126251 22.2450174 -98.64076233 22.24647522 C-95.36985393 22.25209278 -92.09901287 22.26464825 -88.828125 22.27734375 C-86.61653744 22.28235649 -84.40494882 22.28691979 -82.19335938 22.29101562 C-76.75909143 22.30206791 -71.32486303 22.31882312 -65.890625 22.33984375 C-65.43248413 20.91841064 -65.43248413 20.91841064 -64.96508789 19.46826172 C-61.94882752 10.68608485 -54.02202672 3.14890377 -46.0078125 -1.23828125 C-31.36978498 -8.03032602 -14.17001589 -8.1381848 0 0 Z M-172.890625 81.33984375 C-172.890625 201.12984375 -172.890625 320.91984375 -172.890625 444.33984375 C-74.880625 444.33984375 23.129375 444.33984375 124.109375 444.33984375 C124.109375 412.32984375 124.109375 380.31984375 124.109375 347.33984375 C116.519375 346.67984375 108.929375 346.01984375 101.109375 345.33984375 C72.34948559 339.58786587 48.44331339 324.391255 31.8671875 300.046875 C15.92199179 275.48583202 11.52760277 246.28013067 17.52294922 217.78076172 C21.85927677 199.73138501 30.78108004 184.10643979 43.109375 170.33984375 C43.68171875 169.69660156 44.2540625 169.05335938 44.84375 168.390625 C66.07631053 145.89422158 94.52888807 139.31187621 124.109375 137.33984375 C124.109375 118.85984375 124.109375 100.37984375 124.109375 81.33984375 C105.299375 81.33984375 86.489375 81.33984375 67.109375 81.33984375 C66.449375 84.63984375 65.789375 87.93984375 65.109375 91.33984375 C62.2468723 94.20234645 60.29496012 93.59144296 56.28334045 93.59381104 C55.57321019 93.59693102 54.86307993 93.600051 54.13143057 93.60326552 C51.73996232 93.61127474 49.34874576 93.60491061 46.95727539 93.59863281 C45.24758251 93.60134141 43.53789079 93.60490159 41.82820129 93.60925293 C37.17534519 93.61839557 32.52257746 93.6148248 27.86971974 93.60849476 C23.00774342 93.60344362 18.14577483 93.60812381 13.28379822 93.61126709 C5.11667518 93.61490968 -3.05041174 93.61010034 -11.2175293 93.60058594 C-20.66740819 93.58970447 -30.11720078 93.59322356 -39.56707758 93.60423875 C-47.67071458 93.61330764 -55.77432555 93.61459874 -63.87796599 93.60936141 C-68.72214998 93.60623905 -73.56629337 93.60583957 -78.41047478 93.61243439 C-82.9650369 93.61820132 -87.51948751 93.61422294 -92.07403755 93.60264587 C-93.74822428 93.59999563 -95.42242035 93.60077057 -97.09660339 93.6051712 C-99.37706565 93.61061389 -101.65716768 93.60380826 -103.93760681 93.59381104 C-105.21537963 93.59305698 -106.49315245 93.59230293 -107.80964565 93.59152603 C-110.890625 93.33984375 -110.890625 93.33984375 -113.890625 91.33984375 C-114.550625 88.03984375 -115.210625 84.73984375 -115.890625 81.33984375 C-134.700625 81.33984375 -153.510625 81.33984375 -172.890625 81.33984375 Z M51.42773438 185.78759766 C36.41879614 203.45923271 29.87235602 226.43208487 31.109375 249.33984375 C33.2700357 271.30134183 42.57636098 289.7852561 58.109375 305.33984375 C58.91375 306.15582031 59.718125 306.97179687 60.546875 307.8125 C76.77269014 323.37113524 99.15644004 330.90151803 121.40576172 330.69335938 C144.95170876 329.9867286 167.21930661 319.72404031 183.53662109 302.86523438 C200.40467171 284.60407697 208.16859331 262.04790243 207.45703125 237.40625 C206.19731783 213.78775221 195.25219447 192.49964839 178.109375 176.33984375 C139.23144367 143.86907075 85.44096569 148.32641613 51.42773438 185.78759766 Z " fill="#6699FF" transform="translate(253.890625,13.66015625)"/>
<path d="M0 0 C1.15711235 -0.00087616 1.15711235 -0.00087616 2.33760071 -0.00177002 C4.87022974 0.00100172 7.40166035 0.0320489 9.93408203 0.06347656 C11.6966996 0.07094223 13.45932549 0.07663362 15.22195435 0.08062744 C19.8482986 0.09585819 24.47413598 0.13511767 29.10028076 0.17944336 C33.82606145 0.22045149 38.55192449 0.23865027 43.27783203 0.25878906 C52.54107487 0.30161462 61.80394245 0.36983471 71.06689453 0.45410156 C71.06689453 5.07410156 71.06689453 9.69410156 71.06689453 14.45410156 C67.90969849 14.49168579 67.90969849 14.49168579 64.6887207 14.5300293 C57.73966626 14.61345205 50.79068631 14.70214457 43.84173107 14.79344082 C39.62799377 14.84863908 35.41424949 14.90205415 31.20043945 14.95141602 C27.13498689 14.99910522 23.06961864 15.05144973 19.00426674 15.10704231 C17.45213224 15.12744521 15.89997465 15.14616171 14.3477993 15.16317558 C12.17619848 15.18726534 10.00475666 15.21731355 7.83325195 15.2487793 C6.59637131 15.26432358 5.35949066 15.27986786 4.08512878 15.29588318 C1.01845089 15.32239856 1.01845089 15.32239856 -1.93310547 16.45410156 C-3.04621767 19.79343818 -3.06191227 22.28682437 -3.06732655 25.8063488 C-3.06967878 26.45664785 -3.07203101 27.10694689 -3.07445452 27.77695197 C-3.08114813 29.97109941 -3.08068619 32.16518768 -3.08027649 34.35934448 C-3.08357487 35.94229444 -3.08730038 37.52524357 -3.09141797 39.10819161 C-3.10144867 43.46996611 -3.10515647 47.83172685 -3.10780728 52.19351125 C-3.11170705 56.89299052 -3.12128548 61.59245885 -3.13002014 66.29193115 C-3.14979179 77.64563821 -3.15985077 88.99934617 -3.16874793 100.35306615 C-3.1731289 105.69602179 -3.17849613 111.03897645 -3.1837368 116.3819313 C-3.2007483 134.13581321 -3.21524405 151.88969449 -3.22248554 169.6435833 C-3.22439552 174.25180945 -3.22631584 178.86003559 -3.22827148 183.46826172 C-3.22875522 184.61364973 -3.22923896 185.75903775 -3.22973736 186.93913449 C-3.23804359 205.50746072 -3.26339085 224.07572265 -3.29585216 242.64402078 C-3.3288867 261.69502026 -3.34693096 280.74598702 -3.35012978 299.79701531 C-3.35229802 310.49868833 -3.36109258 321.20026753 -3.38659096 331.90191269 C-3.40824859 341.01275109 -3.41637272 350.12347288 -3.40662418 359.2343341 C-3.40206536 363.88507749 -3.40405715 368.53558005 -3.42338562 373.18629074 C-3.4409174 377.44130989 -3.4401015 381.69591073 -3.42448833 385.95093371 C-3.422097 387.49265058 -3.42651418 389.03439567 -3.43831698 390.57606922 C-3.45334389 392.66794955 -3.44382992 394.75832991 -3.4280901 396.85017204 C-3.4290669 398.01314808 -3.43004371 399.17612411 -3.43105012 400.37434185 C-2.81324551 404.19542867 -1.77363806 405.84210058 1.06689453 408.45410156 C3.65616939 409.19645449 3.65616939 409.19645449 6.56108856 409.08051395 C8.24658963 409.09914701 8.24658963 409.09914701 9.96614122 409.11815649 C11.20075578 409.10632076 12.43537034 409.09448504 13.70739746 409.08229065 C15.67452108 409.09293223 15.67452108 409.09293223 17.68138456 409.10378879 C21.32475844 409.1227589 24.96746328 409.11045126 28.61082053 409.09306586 C32.53864356 409.07971993 36.46636688 409.09511892 40.3941803 409.10688782 C48.09002373 409.12528963 55.78561366 409.11673525 63.48144925 409.09879959 C69.73467561 409.08478732 75.98783305 409.08087783 82.24107361 409.08424187 C83.13026772 409.08471931 84.01946182 409.08519675 84.9356012 409.08568866 C86.74184916 409.08671497 88.5480971 409.08777032 90.35434502 409.08885442 C106.33458811 409.09742663 122.31470862 409.08072965 138.29492188 409.05102539 C153.80962269 409.02218672 169.32414692 409.01510376 184.83886719 409.03051758 C201.72381979 409.04726968 218.60868851 409.05132408 235.49364328 409.03380722 C237.293334 409.03196278 239.09302472 409.03012806 240.89271545 409.02830315 C242.22102035 409.02693501 242.22102035 409.02693501 243.57615969 409.02553924 C249.82356886 409.01992767 256.07093715 409.02324679 262.31834412 409.0298481 C269.92944738 409.03757089 277.54037665 409.0308669 285.15144479 409.00567306 C289.03651626 408.99315336 292.92131651 408.98706114 296.80639839 408.99821472 C301.01331572 409.01006441 305.21951683 408.99104574 309.4263916 408.96876526 C311.27831344 408.98112641 311.27831344 408.98112641 313.16764784 408.99373728 C314.29131522 408.98268959 315.4149826 408.9716419 316.5727005 408.96025944 C317.54413514 408.95906796 318.51556977 408.95787647 319.51644182 408.95664889 C322.80336361 408.30898593 323.99945953 407.03476331 326.06689453 404.45410156 C326.66452676 402.20762246 326.66452676 402.20762246 326.58587646 399.75909424 C326.59978928 398.81962448 326.61370209 397.88015472 326.6280365 396.91221619 C326.62300613 395.88866531 326.61797577 394.86511444 326.61279297 393.81054688 C326.62313065 392.72731644 326.63346832 391.644086 326.64411926 390.5280304 C326.67362771 386.94594549 326.67504819 383.36442365 326.67626953 379.78222656 C326.69124567 377.29928504 326.70797161 374.81635351 326.72637939 372.33343506 C326.76565622 366.46513249 326.78727837 360.5969724 326.80035329 354.72855735 C326.81778315 347.39086319 326.8626135 340.0533986 326.90673828 332.71582031 C326.98212216 319.62863003 327.03312575 306.54146198 327.06689453 293.45410156 C329.02398133 292.78378437 330.98260567 292.11795473 332.94189453 291.45410156 C334.03244141 291.08285156 335.12298828 290.71160156 336.24658203 290.32910156 C339.06689453 289.45410156 339.06689453 289.45410156 341.06689453 289.45410156 C341.16038699 305.51803025 341.23089766 321.58187052 341.27414322 337.64600563 C341.29475772 345.10507941 341.3228568 352.56398403 341.36865234 360.02294922 C341.40855447 366.5251287 341.43433544 373.02718564 341.44324851 379.52948415 C341.44845764 382.97161936 341.46067708 386.41340406 341.48981476 389.85542679 C341.52209868 393.70039631 341.52285177 397.5450247 341.52099609 401.39013672 C341.5353772 402.52805664 341.5497583 403.66597656 341.5645752 404.83837891 C341.53314181 410.84992828 341.37962053 414.86683147 337.06689453 419.45410156 C331.30056735 424.78043688 325.04315701 424.01380186 317.51599121 423.96203613 C316.11677511 423.96664668 314.71756385 423.97300063 313.31836271 423.98094511 C309.4782369 423.9976408 305.6385088 423.98939118 301.79838157 423.97700024 C297.65515688 423.96795298 293.51200076 423.98191785 289.36878967 423.99291992 C281.25415201 424.01071322 273.13966228 424.00686157 265.02501881 423.99526936 C258.43052081 423.9862385 251.8360643 423.98500953 245.24156189 423.98936462 C244.30325971 423.98997756 243.36495752 423.99059049 242.39822194 423.99122199 C240.49212252 423.99250089 238.58602311 423.99379774 236.67992371 423.99511236 C218.80334932 424.00652053 200.92685695 423.99340073 183.05029601 423.97191089 C167.70894532 423.9540397 152.36771569 423.95714374 137.02636719 423.97558594 C119.21408294 423.99698846 101.4018706 424.00542187 83.58957529 423.99313688 C81.69045926 423.99186268 79.79134322 423.99060519 77.89222717 423.98936462 C76.4905984 423.98843897 76.4905984 423.98843897 75.0606539 423.98749462 C68.47351877 423.98403986 61.88642922 423.98987277 55.29930115 423.99928284 C47.27256409 424.01049733 39.24598351 424.00747438 31.21926439 423.98615986 C27.12330282 423.975642 23.02760222 423.97154003 18.93164253 423.98475647 C15.18242828 423.99667117 11.43371702 423.99013356 7.68454844 423.96884626 C5.68506368 423.96225778 3.68554404 423.9753246 1.68609571 423.98907518 C-9.38193866 423.89198589 -9.38193866 423.89198589 -13.93310547 419.45410156 C-17.43535763 414.97779922 -18.43345237 412.10174505 -18.43647003 406.43877411 C-18.44228379 405.75323403 -18.44809756 405.06769395 -18.4540875 404.36137992 C-18.4686813 402.06506425 -18.45480621 399.76981855 -18.44104004 397.47351074 C-18.44564922 395.81030846 -18.45200226 394.14711026 -18.45994902 392.48392057 C-18.47666312 387.91411533 -18.46838654 383.34464378 -18.45600414 378.77483726 C-18.44696449 373.84633343 -18.46091799 368.91788751 -18.47192383 363.98939514 C-18.48972522 354.33470311 -18.48586184 344.68013536 -18.47427326 335.02543843 C-18.4652456 327.17998872 -18.46401206 319.33457389 -18.46836853 311.48912048 C-18.46898146 310.37319518 -18.46959439 309.25726988 -18.4702259 308.10752866 C-18.47150478 305.84066124 -18.47280163 303.57379383 -18.47411627 301.30692643 C-18.48552681 280.04250921 -18.4724009 258.77816093 -18.4509148 237.51375502 C-18.4330434 219.26157689 -18.43614738 201.00950051 -18.45458984 182.75732422 C-18.47598816 161.56982958 -18.48442813 140.38239539 -18.47214079 119.19489145 C-18.47086657 116.93628853 -18.46960909 114.67768559 -18.46836853 112.41908264 C-18.46775143 111.3077604 -18.46713433 110.19643816 -18.46649852 109.05143949 C-18.46304251 101.21396067 -18.46887939 93.37652014 -18.47828674 85.53904724 C-18.48949655 75.98985087 -18.48648809 66.44078605 -18.46516377 56.89160478 C-18.45463967 52.01795483 -18.45055469 47.14452434 -18.46376038 42.27087593 C-18.47566194 37.81112824 -18.46915876 33.35180385 -18.44785017 28.89209467 C-18.4433746 27.27710819 -18.44567175 25.66208609 -18.45535332 24.04712242 C-18.46749413 21.85404745 -18.45506789 19.66242772 -18.43647003 17.46942902 C-18.43582062 16.25074143 -18.43517121 15.03205384 -18.43450212 13.77643633 C-17.64491575 8.54451022 -15.13775463 5.48048737 -11.17892456 2.10748291 C-7.33697898 0.15044187 -4.20951866 -0.0844156 0 0 Z " fill="#9AC8FF" transform="translate(67.93310546875,64.5458984375)"/>
<path d="M0 0 C4.99489644 4.83009021 7.28006503 9.75110045 7.4375 16.6875 C7.47746094 17.64011719 7.51742187 18.59273437 7.55859375 19.57421875 C5.6109484 31.51886888 -3.41653475 39.1205535 -11.62109375 47.21484375 C-12.96808586 48.56012201 -14.31418627 49.90629363 -15.65943909 51.25331116 C-18.46842433 54.06065045 -21.2856712 56.85932544 -24.10961914 59.65161133 C-27.72230213 63.22450481 -31.31694747 66.81491256 -34.90603542 70.41149044 C-37.67893175 73.1874599 -40.45937342 75.95576712 -43.24232674 78.72165108 C-44.57066599 80.04298038 -45.89708039 81.36624775 -47.22149467 82.69151115 C-49.07319869 84.54141126 -50.93440574 86.38118777 -52.79858398 88.21850586 C-53.33955215 88.76240463 -53.88052032 89.30630341 -54.43788147 89.86668396 C-60.27220769 95.57225217 -65.94448497 98 -74 98 C-83.64987891 96.87505965 -89.56266277 90.73966203 -96.13671875 84.12890625 C-97.27860405 82.98989113 -97.27860405 82.98989113 -98.44355774 81.8278656 C-100.04531603 80.22746359 -101.6445703 78.62455195 -103.24145508 77.01928711 C-105.682853 74.56716741 -108.13475096 72.12591361 -110.58789062 69.68554688 C-112.14647512 68.12564098 -113.7044392 66.5651149 -115.26171875 65.00390625 C-115.99299484 64.27667862 -116.72427094 63.54945099 -117.47770691 62.80018616 C-123.43382989 56.7889355 -127.04836366 51.9455877 -127.3125 43.3125 C-127.22036991 37.05686717 -125.57552513 31.98630509 -121.45703125 27.2109375 C-116.51372508 22.61830065 -111.23475261 20.3528821 -104.5625 19.625 C-94.49771332 20.68445123 -89.09040249 24.94273023 -82 32 C-81.13117188 32.85464844 -80.26234375 33.70929688 -79.3671875 34.58984375 C-77.22876075 36.71151167 -75.10700461 38.84719094 -73 41 C-67.49319591 36.42286307 -62.44616365 31.53517975 -57.43359375 26.42578125 C-55.79781624 24.77249929 -54.16173959 23.11951324 -52.52539062 21.46679688 C-49.9723316 18.88272007 -47.42168252 16.29639605 -44.8762207 13.70483398 C-42.4021092 11.18836489 -39.91862344 8.68146281 -37.43359375 6.17578125 C-36.67719101 5.4007576 -35.92078827 4.62573395 -35.14146423 3.82722473 C-24.84640327 -6.51738484 -11.96156798 -9.74162633 0 0 Z " fill="#6699FF" transform="translate(433,210)"/>
<path d="M0 0 C7.61072437 4.34349421 12.49653867 9.88518053 14.89453125 18.3515625 C15.05566406 18.98191406 15.21679688 19.61226562 15.3828125 20.26171875 C15.6921875 21.27234375 16.0015625 22.28296875 16.3203125 23.32421875 C19.02980225 24.227382 20.72166584 24.47079375 23.51635742 24.52954102 C24.35700241 24.54948624 25.1976474 24.56943146 26.06376648 24.58998108 C26.96698135 24.60669357 27.87019623 24.62340607 28.80078125 24.640625 C29.72877029 24.6614061 30.65675934 24.68218719 31.61286926 24.70359802 C34.5777749 24.76899198 37.54276922 24.82793137 40.5078125 24.88671875 C42.5175873 24.92991362 44.52735313 24.97352822 46.53710938 25.01757812 C51.46475417 25.12545304 56.39246611 25.22460207 61.3203125 25.32421875 C61.3203125 38.52421875 61.3203125 51.72421875 61.3203125 65.32421875 C12.1503125 65.32421875 -37.0196875 65.32421875 -87.6796875 65.32421875 C-87.6796875 52.12421875 -87.6796875 38.92421875 -87.6796875 25.32421875 C-83.30976563 25.25074219 -83.30976563 25.25074219 -78.8515625 25.17578125 C-76.02843105 25.12176339 -73.20538411 25.06445904 -70.38232422 25.00683594 C-68.4211253 24.96856548 -66.45985666 24.93370921 -64.49853516 24.90234375 C-61.67845753 24.85665135 -58.85885912 24.79866375 -56.0390625 24.73828125 C-55.16288269 24.72673004 -54.28670288 24.71517883 -53.38397217 24.70327759 C-52.56342346 24.6834079 -51.74287476 24.66353821 -50.89746094 24.64306641 C-50.17798279 24.62974274 -49.45850464 24.61641907 -48.71722412 24.60269165 C-46.32272379 24.27543203 -44.72322698 23.60815332 -42.6796875 22.32421875 C-41.3218646 19.70790976 -41.3218646 19.70790976 -40.3046875 16.63671875 C-36.55836357 7.22028293 -32.19023208 2.71909267 -22.8984375 -1.5703125 C-15.04024223 -4.26918296 -7.48993028 -3.43188124 0 0 Z " fill="#9AC8FF" transform="translate(242.6796875,26.67578125)"/>
<path d="M0 0 C1.70723488 -0.01429802 1.70723488 -0.01429802 3.44895935 -0.02888489 C5.27258751 -0.02751778 5.27258751 -0.02751778 7.13305664 -0.02612305 C8.39533585 -0.03040817 9.65761505 -0.0346933 10.95814514 -0.03910828 C13.62360626 -0.04484306 16.28867905 -0.04629721 18.95410156 -0.04101562 C22.35457384 -0.03522266 25.75450113 -0.052159 29.15488338 -0.0753603 C32.41843662 -0.0937107 35.68196115 -0.08991094 38.94555664 -0.08862305 C40.15928452 -0.09783279 41.37301239 -0.10704254 42.6235199 -0.11653137 C50.48620766 -0.07362008 55.64486455 0.50597953 61.91821289 5.5246582 C67.12949725 12.07598712 66.41277397 19.89522754 66.40649414 27.8918457 C66.41077927 29.10357452 66.41506439 30.31530334 66.41947937 31.56375122 C66.42520857 34.12053809 66.42573336 36.67734126 66.42138672 39.23413086 C66.41822928 43.12943561 66.44169631 47.0239786 66.46704102 50.91918945 C66.46931451 53.41007392 66.47001727 55.90096041 66.46899414 58.3918457 C66.47820389 59.54836639 66.48741364 60.70488708 66.49690247 61.89645386 C66.45395162 69.466983 66.25666478 77.04078653 60.73071289 82.7121582 C56.12044731 85.4563639 52.51959654 86.52534407 47.14135742 86.54931641 C45.9630838 86.55884842 44.78481018 86.56838043 43.5708313 86.57820129 C42.30617035 86.57728989 41.0415094 86.57637848 39.73852539 86.57543945 C38.43043915 86.57972458 37.12235291 86.5840097 35.77462769 86.58842468 C33.00913432 86.59587168 30.24376865 86.59560709 27.47827148 86.59033203 C23.9488625 86.58454445 20.41997952 86.60145788 16.89065742 86.6246767 C13.50659218 86.64302643 10.12264001 86.63922724 6.73852539 86.63793945 C5.4779129 86.6471492 4.21730042 86.65635895 2.91848755 86.66584778 C-4.17027838 86.62857337 -9.99501644 86.55319296 -15.63647461 81.80981445 C-19.45059341 76.85146001 -20.01487049 73.57570857 -20.05541992 67.42382812 C-20.06502747 66.24547897 -20.07463501 65.06712982 -20.08453369 63.85307312 C-20.08878357 62.58325089 -20.09303345 61.31342865 -20.09741211 60.00512695 C-20.10311218 58.69562576 -20.10881226 57.38612457 -20.11468506 56.03694153 C-20.12517557 53.26550917 -20.13103082 50.49410565 -20.13452148 47.72265625 C-20.13999914 44.18540674 -20.16401931 40.64854351 -20.19249344 37.11141491 C-20.21568941 33.72182681 -20.21757399 30.33229026 -20.22241211 26.94262695 C-20.23475891 25.67887741 -20.24710571 24.41512787 -20.25982666 23.11308289 C-20.24062841 15.51460319 -20.20706897 9.58744006 -14.58178711 3.9621582 C-9.87846429 1.00890899 -5.51223806 0.02550091 0 0 Z " fill="#6699FF" transform="translate(124.894287109375,235.725341796875)"/>
<path d="M0 0 C1.22169388 -0.00960754 2.44338776 -0.01921509 3.70210266 -0.02911377 C5.0373211 -0.03396228 6.3725417 -0.03824098 7.70776367 -0.04199219 C9.07915752 -0.04774697 10.45055136 -0.05350466 11.82194519 -0.05926514 C14.69770685 -0.06976641 17.57344062 -0.07561456 20.44921875 -0.07910156 C24.12447254 -0.0845799 27.79935466 -0.108597 31.47449207 -0.13707352 C34.30817217 -0.15574898 37.14176368 -0.16090812 39.97550011 -0.16243744 C41.98621795 -0.16691635 43.99688827 -0.1855399 46.00752258 -0.20440674 C47.23867294 -0.20140564 48.4698233 -0.19840454 49.73828125 -0.1953125 C50.81733231 -0.19895813 51.89638336 -0.20260376 53.00813293 -0.20635986 C57.70474314 0.35858732 60.98602417 2.08392457 64.31323242 5.41113281 C68.78220252 12.43380011 68.35686593 19.77605154 68.32885742 27.84863281 C68.33077087 29.06510498 68.33268433 30.28157715 68.33465576 31.53491211 C68.33601331 34.10009977 68.33234701 36.6652944 68.32397461 39.23046875 C68.31326936 43.14761854 68.32388489 47.06430972 68.33666992 50.98144531 C68.33534825 53.47884215 68.3327857 55.97623871 68.32885742 58.47363281 C68.33290588 59.64047607 68.33695435 60.80731934 68.34112549 62.00952148 C68.26334768 75.55627937 68.26334768 75.55627937 64.40698242 80.12207031 C63.79854492 80.58871094 63.19010742 81.05535156 62.56323242 81.53613281 C61.95479492 82.01824219 61.34635742 82.50035156 60.71948242 82.99707031 C57.36876618 85.35205484 55.03908192 85.30270748 50.96459961 85.33813477 C49.04185211 85.35738762 49.04185211 85.35738762 47.08026123 85.37702942 C45.67354722 85.38519786 44.26682884 85.39264139 42.86010742 85.39941406 C42.15231392 85.40348959 41.44452042 85.40756512 40.71527863 85.41176414 C36.96717114 85.43262844 33.21910027 85.44692713 29.47094727 85.45629883 C25.60611725 85.46734902 21.74186527 85.50173091 17.87723923 85.54147053 C14.90029864 85.56766633 11.92349497 85.57599336 8.94644928 85.57958031 C7.52233233 85.58444066 6.09822127 85.59603907 4.67421722 85.6146183 C2.67610123 85.63906223 0.67770377 85.63561979 -1.32055664 85.63110352 C-2.45591858 85.63696976 -3.59128052 85.642836 -4.76104736 85.64888 C-9.28299928 84.95437003 -12.37536935 82.94747895 -15.38026428 79.50967407 C-18.77036908 73.00083371 -18.49635365 66.44853957 -18.43286133 59.24707031 C-18.4330166 57.90524212 -18.43451024 56.56341349 -18.43727112 55.22158813 C-18.43864876 52.42258647 -18.426202 49.6241012 -18.40332031 46.82519531 C-18.3748815 43.24975404 -18.37769604 39.67516585 -18.39041042 36.09966087 C-18.39738539 33.33369744 -18.3895587 30.56792902 -18.3771534 27.80199051 C-18.37048795 25.84671381 -18.37476664 23.89140961 -18.3792572 21.93612671 C-18.36657303 20.74113556 -18.35388885 19.54614441 -18.34082031 18.31494141 C-18.33541733 17.26873627 -18.33001434 16.22253113 -18.32444763 15.1446228 C-17.70233447 10.35699351 -15.77561814 6.33773781 -11.93676758 3.34863281 C-7.77963656 0.31739145 -5.0180281 0.03182339 0 0 Z " fill="#6699FF" transform="translate(122.936767578125,345.8388671875)"/>
<path d="M0 0 C1.41052009 -0.00269869 2.82103836 -0.00658424 4.23155212 -0.01159668 C7.17774285 -0.01747223 10.12344629 -0.00899127 13.06958008 0.00976562 C16.83463012 0.03257609 20.59854074 0.01940804 24.36354923 -0.00452423 C27.27278645 -0.01901758 30.18175598 -0.01436063 33.09100151 -0.00401306 C34.47879613 -0.00135658 35.86661554 -0.0045774 37.25438118 -0.01393127 C50.63046671 -0.08433179 50.63046671 -0.08433179 55.52734375 4.53125 C60.18001454 9.43541651 60.64254203 13.62923712 60.68847656 20.2043457 C60.69808411 21.31932938 60.70769165 22.43431305 60.71759033 23.58308411 C60.72184021 24.77898666 60.72609009 25.97488922 60.73046875 27.20703125 C60.73616882 28.44615768 60.7418689 29.68528412 60.7477417 30.96195984 C60.75718025 33.58197173 60.76372113 36.20199543 60.76757812 38.82202148 C60.77196754 41.49794111 60.78588125 44.17353916 60.80859375 46.84936523 C60.83911906 50.71868632 60.84963291 54.58760303 60.85546875 58.45703125 C60.86781555 59.64686111 60.88016235 60.83669098 60.8928833 62.06257629 C60.8559815 75.88880019 60.8559815 75.88880019 56.11065674 81.08149719 C51.65905938 84.98185737 48.24605691 85.65655615 42.4987793 85.70825195 C41.25706467 85.72108719 40.01535004 85.73392242 38.73600769 85.74714661 C37.37869669 85.75531456 36.02138117 85.76275818 34.6640625 85.76953125 C33.97925119 85.77360678 33.29443989 85.7776823 32.58887672 85.78188133 C28.96395802 85.80272252 25.33907694 85.81703247 21.71411133 85.82641602 C17.97821699 85.83747496 14.24291918 85.87187351 10.50723553 85.91158772 C7.6272321 85.93778523 4.74737016 85.94611058 1.86725807 85.94969749 C0.49058823 85.95455563 -0.88607563 85.96614772 -2.26262856 85.98473549 C-15.59121039 86.15352277 -15.59121039 86.15352277 -20.47265625 81.53125 C-24.60489788 76.95227954 -25.59273298 73.80633767 -25.6496582 67.71801758 C-25.66249344 66.52279984 -25.67532867 65.32758209 -25.68855286 64.09614563 C-25.69593979 62.80242538 -25.70332672 61.50870514 -25.7109375 60.17578125 C-25.71501303 59.51553137 -25.71908855 58.85528149 -25.72328758 58.17502403 C-25.74413346 54.67747691 -25.75843919 51.17996881 -25.76782227 47.68237305 C-25.77885883 44.08566826 -25.81322989 40.4895869 -25.85299397 36.89310169 C-25.87925894 34.11424178 -25.88752296 31.33552789 -25.89110374 28.55655479 C-25.89828932 26.59130892 -25.92468898 24.62616326 -25.95149231 22.66108704 C-25.92068145 9.90756377 -25.92068145 9.90756377 -21.47265625 4.53125 C-15.23338989 -0.87772017 -7.89689483 -0.05331681 0 0 Z " fill="#6699FF" transform="translate(130.47265625,126.46875)"/>
<path d="M0 0 C17.16 0 34.32 0 52 0 C52 17.16 52 34.32 52 52 C34.84 52 17.68 52 0 52 C0 34.84 0 17.68 0 0 Z " fill="#9AC8FF" transform="translate(122,363)"/>
<path d="M0 0 C17.16 0 34.32 0 52 0 C52 17.16 52 34.32 52 52 C34.84 52 17.68 52 0 52 C0 34.84 0 17.68 0 0 Z " fill="#9BC9FF" transform="translate(122,253)"/>
<path d="M0 0 C17.16 0 34.32 0 52 0 C52 17.16 52 34.32 52 52 C34.84 52 17.68 52 0 52 C0 34.84 0 17.68 0 0 Z " fill="#9AC8FF" transform="translate(122,143)"/>
<path d="M0 0 C10.19661806 -0.09276059 20.39313541 -0.16379579 30.5900898 -0.20724869 C35.32518565 -0.22810605 40.0599924 -0.25638979 44.79492188 -0.30175781 C49.36609608 -0.34528173 53.93699255 -0.36915104 58.508358 -0.37950897 C60.25066372 -0.38688861 61.99295457 -0.40129947 63.73514175 -0.42292023 C66.1793911 -0.4520419 68.62249907 -0.45595245 71.06689453 -0.45410156 C71.78403122 -0.46848267 72.50116791 -0.48286377 73.24003601 -0.49768066 C78.31354207 -0.45622617 81.15604011 0.72486729 85 4 C88.95512869 8.60337806 89.5662319 12.41710157 89.45410156 18.30029297 C89.45468567 19.11071548 89.45526978 19.921138 89.45587158 20.75611877 C89.45309839 23.41858669 89.42204368 26.07991665 89.390625 28.7421875 C89.38315986 30.59448637 89.37746822 32.44679317 89.37347412 34.29910278 C89.35823923 39.16217043 89.31897598 44.0247563 89.2746582 48.88763428 C89.23365915 53.85471073 89.21545322 58.82186542 89.1953125 63.7890625 C89.1524796 73.52625274 89.08425431 83.26308622 89 93 C87.04096255 92.52372025 85.08278903 92.04388577 83.125 91.5625 C82.03445313 91.29566406 80.94390625 91.02882813 79.8203125 90.75390625 C77 90 77 90 75 89 C74.99453156 87.69787567 74.99453156 87.69787567 74.98895264 86.3694458 C74.95108495 78.1882865 74.8942464 70.00752634 74.81609726 61.82664871 C74.77658887 57.62074473 74.7444171 53.41505115 74.72900391 49.20898438 C74.71385913 45.14979418 74.67945331 41.09118232 74.63169098 37.03224945 C74.6168545 35.48376238 74.60895768 33.93519274 74.60811615 32.38663483 C74.60575137 30.21709042 74.57871576 28.04915071 74.54589844 25.87988281 C74.53701599 24.64522278 74.52813354 23.41056274 74.51898193 22.13848877 C74.21656907 18.96644393 74.21656907 18.96644393 72.39587402 16.60412598 C69.17334535 14.44652424 66.98725932 14.48192273 63.12011719 14.45410156 C62.09511612 14.43859505 62.09511612 14.43859505 61.04940796 14.42277527 C58.79832285 14.39335644 56.5481372 14.3918484 54.296875 14.390625 C52.73315721 14.37564259 51.16945524 14.35891531 49.60577393 14.34051514 C45.4958422 14.29683557 41.38612393 14.27684139 37.27600098 14.26177979 C33.07970555 14.24221073 28.88364073 14.20024055 24.6875 14.16015625 C16.45836542 14.08484742 8.22939774 14.03663124 0 14 C0 9.38 0 4.76 0 0 Z " fill="#9AC8FF" transform="translate(320,65)"/>
<path d="M0 0 C1.07528458 -0.01272446 2.15056915 -0.02544891 3.25843811 -0.03855896 C5.02042542 -0.02877014 5.02042542 -0.02877014 6.81800842 -0.01878357 C8.67952293 -0.03170692 8.67952293 -0.03170692 10.5786438 -0.04489136 C13.97979281 -0.06370746 17.379968 -0.06444503 20.78109431 -0.05556989 C23.62158603 -0.0504587 26.46199041 -0.05775364 29.30247313 -0.06504196 C36.00434383 -0.08204272 42.70598685 -0.07847383 49.40785217 -0.06175232 C56.31881067 -0.04483192 63.22913749 -0.0606633 70.14002699 -0.0929752 C76.07648989 -0.11967827 82.01275625 -0.12694521 87.94927317 -0.11846012 C91.49358644 -0.1135327 95.03751969 -0.1157357 98.5817852 -0.13624763 C102.53447542 -0.15802816 106.48640534 -0.1391978 110.43910217 -0.11643982 C112.19805313 -0.13397812 112.19805313 -0.13397812 113.99253845 -0.15187073 C121.90524777 -0.05899742 121.90524777 -0.05899742 125.92398071 2.86660767 C128.11029126 6.13884242 128.41722796 7.65346161 127.69325256 11.5146637 C125.54234805 14.85227415 124.48912457 16.24937303 120.69325256 17.5146637 C119.01714126 17.61078648 117.33747134 17.64958829 115.65861511 17.65510559 C114.09823517 17.66367081 114.09823517 17.66367081 112.5063324 17.67240906 C110.79505661 17.67408585 110.79505661 17.67408585 109.04920959 17.67579651 C107.24643555 17.68324387 107.24643555 17.68324387 105.40724182 17.69084167 C102.10965201 17.7029502 98.81212562 17.71040829 95.51452112 17.71485233 C93.45392617 17.71778462 91.39333676 17.72188971 89.3327446 17.72635651 C82.88440004 17.74002789 76.43606817 17.74969654 69.98771012 17.7535584 C62.54612359 17.75803972 55.1047207 17.7755924 47.66319001 17.80455899 C41.90937967 17.82617807 36.15562099 17.83626278 30.40177047 17.83759952 C26.96594232 17.83864731 23.53028686 17.84454942 20.0945015 17.86241913 C16.26163561 17.88196668 12.42899916 17.87760992 8.59608459 17.87110901 C6.8908815 17.88493118 6.8908815 17.88493118 5.15122986 17.89903259 C3.58239044 17.89067886 3.58239044 17.89067886 1.9818573 17.88215637 C0.62298747 17.88435621 0.62298747 17.88435621 -0.76333427 17.88660049 C-3.87446246 17.43164372 -5.76657599 16.33791823 -8.30674744 14.5146637 C-9.87145976 11.38523904 -10.00376702 7.90384146 -9.30674744 4.5146637 C-6.39048229 0.90623244 -4.60767925 0.01385125 0 0 Z " fill="#6599FF" transform="translate(226.30674743652344,399.48533630371094)"/>
<path d="M0 0 C1.56890739 -0.01292336 1.56890739 -0.01292336 3.16950989 -0.02610779 C6.63026611 -0.04882818 10.09021653 -0.04201717 13.55102539 -0.03295898 C15.95471946 -0.03819203 18.35841147 -0.04446733 20.76210022 -0.05174255 C25.80178484 -0.06215816 30.84118731 -0.05756863 35.88085938 -0.04296875 C42.34204222 -0.02578394 48.80233559 -0.04926754 55.26341915 -0.08445835 C60.22797042 -0.10641021 65.19230816 -0.10499605 70.15689278 -0.09669304 C72.53914935 -0.09587223 74.9214214 -0.10276023 77.30363274 -0.11746407 C80.63396877 -0.1348671 83.96269765 -0.12040066 87.29296875 -0.09765625 C88.27858795 -0.10934845 89.26420715 -0.12104065 90.2796936 -0.13308716 C94.91410853 -0.06863087 97.03367432 0.02206458 100.8271637 2.88539124 C102.71118164 5.53344727 102.71118164 5.53344727 103.27368164 8.53344727 C102.58324307 12.2157863 101.34304236 13.90158654 98.71118164 16.53344727 C95.94454053 17.45566097 94.28975726 17.66268445 91.43582153 17.67388916 C90.56385132 17.6795993 89.6918811 17.68530945 88.79348755 17.69119263 C87.83965179 17.69231049 86.88581604 17.69342834 85.90307617 17.69458008 C84.89629822 17.69954498 83.88952026 17.70450989 82.85223389 17.70962524 C79.51614706 17.72425039 76.18010778 17.73104915 72.84399414 17.73657227 C70.52855426 17.74232302 68.2131144 17.74808076 65.89767456 17.75384521 C61.04042336 17.76435592 56.18318871 17.77019827 51.32592773 17.77368164 C45.09923973 17.77916932 38.87277007 17.80320309 32.64615059 17.83165359 C27.8626542 17.85026755 23.07921055 17.8554849 18.295681 17.85701752 C15.99994588 17.8600469 13.70421175 17.86808501 11.40851212 17.8812027 C8.19819718 17.89823839 4.98841785 17.89638891 1.77807617 17.88989258 C0.82828888 17.89910736 -0.12149841 17.90832214 -1.10006714 17.91781616 C-5.95997144 17.88697609 -9.37982805 17.77400153 -13.28881836 14.53344727 C-14.85353069 11.40402261 -14.98583794 7.92262503 -14.28881836 4.53344727 C-10.73896594 -0.84447756 -5.82806732 -0.0385091 0 0 Z " fill="#6699FF" transform="translate(231.288818359375,360.466552734375)"/>
<path d="M0 0 C0.84672775 -0.00426498 1.69345551 -0.00852997 2.56584167 -0.01292419 C3.49162521 -0.01247101 4.41740875 -0.01201782 5.37124634 -0.0115509 C6.34876358 -0.01490952 7.32628082 -0.01826813 8.3334198 -0.02172852 C11.57211571 -0.0312449 14.81075996 -0.03318199 18.04946899 -0.03425598 C20.29764833 -0.03746814 22.54582746 -0.04083218 24.79400635 -0.04434204 C29.51002487 -0.05033507 34.22602506 -0.05218177 38.94204712 -0.05158997 C44.98708546 -0.05148835 51.03200633 -0.06513964 57.07701683 -0.08236217 C61.72154277 -0.09347719 66.36604027 -0.09550932 71.01057816 -0.09498024 C73.23931915 -0.09616114 75.46806086 -0.10058908 77.69678879 -0.10831261 C80.81361888 -0.11810208 83.93019344 -0.11523845 87.04702759 -0.10920715 C87.96876266 -0.11482666 88.89049774 -0.12044617 89.84016418 -0.12623596 C95.19389143 -0.09989034 99.6004592 -0.02718462 103.65103149 3.88371277 C105.24964362 6.91266206 105.32224285 8.74773328 104.83853149 12.13371277 C103.45523071 14.78567505 103.45523071 14.78567505 100.83853149 17.13371277 C97.41255691 17.89202387 94.03054784 17.80614621 90.53384399 17.76481628 C89.48629944 17.77197159 88.43875488 17.77912689 87.35946655 17.78649902 C83.89371246 17.80341998 80.42924564 17.78396227 76.96353149 17.76261902 C74.55744316 17.7634474 72.15135489 17.76590559 69.74526978 17.76992798 C64.70131405 17.77278833 59.6578018 17.75806086 54.61392212 17.7306366 C48.14375053 17.69655415 41.67437215 17.70257019 35.2041626 17.72129917 C30.23535535 17.73186031 25.26673315 17.72293925 20.29794312 17.70791435 C17.91208444 17.70272562 15.5262065 17.70322268 13.14035034 17.7094593 C9.80754952 17.71490056 6.47588985 17.69456971 3.14321899 17.66716003 C2.15400452 17.67368591 1.16479004 17.68021179 0.14559937 17.68693542 C-6.53256712 17.59339549 -6.53256712 17.59339549 -9.77230835 15.22537231 C-11.70758698 12.31142175 -11.72731517 10.44332982 -11.55599976 7.03605652 C-10.94758743 4.10242481 -9.55000337 2.8398091 -7.16146851 1.13371277 C-4.42260202 0.22075727 -2.81826874 0.00642102 0 0 Z " fill="#6698FF" transform="translate(228.16146850585938,140.8662872314453)"/>
<path d="M0 0 C2 3 2 3 2.09423828 5.68994141 C0.46133544 10.62945428 -2.80878119 13.40688711 -6.5078125 16.9609375 C-7.64607986 18.08503525 -7.64607986 18.08503525 -8.80734253 19.23184204 C-11.23502916 21.62497772 -13.67916826 24.00042478 -16.125 26.375 C-18.54594604 28.74573096 -20.96331372 31.12002236 -23.37838745 33.49673462 C-24.88019475 34.97247032 -26.38592517 36.44422837 -27.89627075 37.91122437 C-31.95302135 41.87360058 -35.78969255 45.94310357 -39.48776245 50.24237061 C-42.52350851 53.7707293 -45.7552705 57.10263913 -49 60.4375 C-49.67289062 61.15615234 -50.34578125 61.87480469 -51.0390625 62.61523438 C-54.09204805 65.73599856 -56.41497522 67.76429247 -60.5 69.41015625 C-65.91927381 68.7750851 -68.27355597 65.80447673 -72 62 C-73.0160453 61.00233202 -74.03426739 60.00687797 -75.05419922 59.01318359 C-77.94331624 56.18774996 -80.80469625 53.33595906 -83.65698242 50.47338867 C-85.45442236 48.67052659 -87.25722661 46.87315015 -89.06054688 45.07617188 C-90.20605047 43.93000853 -91.35124439 42.78353558 -92.49609375 41.63671875 C-93.03455429 41.10028244 -93.57301483 40.56384613 -94.12779236 40.01115417 C-98.8968786 35.21167643 -98.8968786 35.21167643 -99.25 31.0625 C-99 28 -99 28 -97.875 26.125 C-95.06905131 24.44143079 -93.23281228 24.61703834 -90 25 C-87.86811875 26.61814085 -86.2511003 28.06649055 -84.453125 29.99609375 C-83.707211 30.75829979 -83.707211 30.75829979 -82.94622803 31.53590393 C-81.36603487 33.1561722 -79.80780238 34.79571971 -78.25 36.4375 C-76.67374405 38.07116606 -75.09329031 39.70063645 -73.51092529 41.3283844 C-72.52922123 42.34121376 -71.55188591 43.35829964 -70.57940674 44.37998962 C-67.63851159 47.45054718 -66.12880266 48.81939157 -61.875 49.5 C-52.94035018 48.34714196 -45.5416903 37.69283244 -39.4375 31.5625 C-38.53064453 30.65951172 -37.62378906 29.75652344 -36.68945312 28.82617188 C-32.16441626 24.29457223 -27.79049946 19.70598377 -23.61987305 14.84692383 C-20.93856642 11.78978975 -18.07188349 8.92668944 -15.1875 6.0625 C-14.61580078 5.48693359 -14.04410156 4.91136719 -13.45507812 4.31835938 C-8.54181231 -0.5833594 -6.91651622 -1.48211062 0 0 Z " fill="#99C7FF" transform="translate(422,222)"/>
<path d="M0 0 C0.96465179 -0.00960754 1.92930359 -0.01921509 2.92318726 -0.02911377 C3.96383331 -0.03336365 5.00447937 -0.03761353 6.07666016 -0.04199219 C7.14816315 -0.04769226 8.21966614 -0.05339233 9.32363892 -0.05926514 C11.59156303 -0.06871456 13.85950088 -0.07524889 16.12744141 -0.07910156 C19.59513303 -0.08880955 23.06223259 -0.11983502 26.52978516 -0.15136719 C28.73290664 -0.15789709 30.93603235 -0.16314761 33.13916016 -0.16699219 C34.17575775 -0.17933899 35.21235535 -0.19168579 36.28036499 -0.20440674 C45.37442518 -0.17629819 45.37442518 -0.17629819 49.24072266 3.16113281 C51.5824103 6.67366427 51.73695943 8.02582637 51.24072266 12.16113281 C49.98486328 14.81713867 49.98486328 14.81713867 47.24072266 17.16113281 C43.15572142 17.92750066 39.10487321 17.83701936 34.95947266 17.79003906 C33.75383667 17.79245102 32.54820068 17.79486298 31.30603027 17.79734802 C28.75737213 17.79636866 26.20869296 17.78295411 23.66015625 17.75805664 C19.75528825 17.72376074 15.85268359 17.73739251 11.94775391 17.75683594 C9.47248384 17.74993749 6.99721962 17.74026514 4.52197266 17.72753906 C3.35210815 17.73249893 2.18224365 17.7374588 0.97692871 17.74256897 C-0.65496399 17.71881447 -0.65496399 17.71881447 -2.31982422 17.69458008 C-3.27594604 17.6883815 -4.23206787 17.68218292 -5.21716309 17.67579651 C-8.48647052 17.01390893 -9.68833215 15.71937569 -11.75927734 13.16113281 C-12.48732686 10.42024053 -12.33370975 7.93092075 -11.75927734 5.16113281 C-8.50127062 0.77967549 -5.25797824 0.04229991 0 0 Z " fill="#6599FF" transform="translate(228.75927734375,179.8388671875)"/>
<path d="M0 0 C0.87128036 0.00233139 1.74256073 0.00466278 2.64024353 0.00706482 C4.4768151 0.01678322 6.31335754 0.03852648 8.1496582 0.0715332 C10.95894799 0.12098996 13.76648576 0.13301858 16.57617188 0.13867188 C18.36329986 0.15275715 20.15041266 0.1689613 21.9375 0.1875 C22.77612076 0.1928627 23.61474152 0.1982254 24.47877502 0.20375061 C25.26316452 0.21973801 26.04755402 0.2357254 26.85571289 0.25219727 C27.54234512 0.26283707 28.22897736 0.27347687 28.93641663 0.28443909 C32.06532538 0.72077516 34.27007965 1.74568277 36.21484375 4.24609375 C37.2333064 7.67183174 36.76280357 10.11675449 35.90234375 13.55859375 C34.24132347 16.00781128 32.95307097 17.35068293 29.99099731 17.9367981 C27.55825954 18.10637669 25.15740761 18.13905636 22.71875 18.125 C21.82623032 18.13119858 20.93371063 18.13739716 20.0141449 18.14378357 C18.12882578 18.15087909 16.24344397 18.14771236 14.3581543 18.13500977 C11.4778265 18.12115619 8.60075591 18.15520157 5.72070312 18.19335938 C3.88671796 18.19431073 2.05272873 18.19245086 0.21875 18.1875 C-0.63972031 18.20075821 -1.49819061 18.21401642 -2.38267517 18.22767639 C-6.74545343 18.15996746 -8.56709247 17.96316726 -12.14086914 15.23803711 C-14.09765625 12.55859375 -14.09765625 12.55859375 -14.72265625 9.05859375 C-13.2001546 0.5325845 -7.39737429 -0.17270914 0 0 Z " fill="#6599FF" transform="translate(231.09765625,289.44140625)"/>
<path d="M0 0 C1.7634375 -0.02900391 1.7634375 -0.02900391 3.5625 -0.05859375 C13.1324214 -0.0042192 13.1324214 -0.0042192 16.2734375 2.9453125 C18.57379159 6.51554531 18.74469289 8.45471982 18 12.625 C16.33626952 15.20716992 15.6203485 16.20158422 13 17.625 C8.65743484 18.37749673 4.3968967 18.32231738 0 18.25 C-1.7634375 18.27900391 -1.7634375 18.27900391 -3.5625 18.30859375 C-13.1324214 18.2542192 -13.1324214 18.2542192 -16.2734375 15.3046875 C-18.57379159 11.73445469 -18.74469289 9.79528018 -18 5.625 C-13.65213494 -1.12304396 -7.41246225 -0.1219155 0 0 Z " fill="#6599FF" transform="translate(235,250.375)"/>
<path d="M0 0 C2.86830829 2.01391859 4.61592935 3.45434983 5.48046875 6.93359375 C5.75669245 10.88284615 5.25523948 12.63647711 2.9375 15.9375 C-0.6336219 18.44488346 -2.63040496 19.15331912 -7 19 C-10.02727138 17.2730331 -12.41976665 15.16046671 -14 12 C-14.375 8.6875 -14.375 8.6875 -14 5 C-9.45613306 -0.5004705 -6.96669891 -1.653115 0 0 Z " fill="#679AFF" transform="translate(234,37)"/>
</svg>
