<?xml version="1.0" encoding="UTF-8"?>
<svg version="1.1" xmlns="http://www.w3.org/2000/svg" width="512" height="512">
<path d="M0 0 C1.27617188 -0.02900391 2.55234375 -0.05800781 3.8671875 -0.08789062 C15.53339826 -0.1670455 15.53339826 -0.1670455 20.25 4.3125 C27.16191028 11.97164382 25.25 15.24567268 25.25 27.3125 C38.78 27.3125 52.31 27.3125 66.25 27.3125 C66.25 22.3625 66.25 17.4125 66.25 12.3125 C69.2417257 6.3290486 71.27330415 3.30084792 77.25 0.3125 C81.80611527 -0.0146227 86.37110952 -0.01219425 90.9375 -0.0625 C92.20529297 -0.09988281 93.47308594 -0.13726562 94.77929688 -0.17578125 C105.29209106 -0.27480286 105.29209106 -0.27480286 109.45703125 2.4609375 C117.26357782 10.43125777 115.25 15.28619952 115.25 27.3125 C128.78 27.3125 142.31 27.3125 156.25 27.3125 C156.25 23.3525 156.25 19.3925 156.25 15.3125 C157.83451082 8.35825808 159.3843439 5.3061382 165.25 1.3125 C169.78931765 -0.95715883 176.01669751 0.03730017 181 0 C182.27617187 -0.02900391 183.55234375 -0.05800781 184.8671875 -0.08789062 C196.53339826 -0.1670455 196.53339826 -0.1670455 201.25 4.3125 C208.16191028 11.97164382 206.25 15.24567268 206.25 27.3125 C219.78 27.3125 233.31 27.3125 247.25 27.3125 C247.25 22.3625 247.25 17.4125 247.25 12.3125 C250.2417257 6.3290486 252.27330415 3.30084792 258.25 0.3125 C262.82753014 0.01265275 267.41381623 0.03432772 272 0 C273.27617187 -0.02900391 274.55234375 -0.05800781 275.8671875 -0.08789062 C285.22309503 -0.15137016 285.22309503 -0.15137016 289.890625 1.95703125 C293.83698824 5.89686078 296.42637076 8.92450209 296.640625 14.6171875 C296.61435031 16.14111949 296.56710118 17.6648193 296.5 19.1875 C296.48195313 19.97125 296.46390625 20.755 296.4453125 21.5625 C296.39855148 23.47970189 296.32682003 25.39626715 296.25 27.3125 C298.00763672 27.24289063 298.00763672 27.24289063 299.80078125 27.171875 C314.45226925 26.76289462 324.37459716 29.13255783 335.34375 39.2421875 C344.63071133 48.70241303 346.88650232 59.63969189 346.87210083 72.41645813 C346.85441425 74.07883199 346.83624035 75.74120072 346.81762695 77.40356445 C346.81621362 79.18871012 346.81701401 80.97385869 346.81983948 82.75900269 C346.82126392 87.56619087 346.79203288 92.37274504 346.75696969 97.17978692 C346.72554288 102.21790296 346.72276265 107.2560363 346.71684265 112.29423523 C346.70135193 121.81729486 346.66038849 131.34006473 346.6100952 140.86299723 C346.55405264 151.71190252 346.52667784 162.56082222 346.50161803 173.40983641 C346.44946808 195.71088549 346.36161925 218.01167443 346.25 240.3125 C347.17039062 240.60656738 348.09078125 240.90063477 349.0390625 241.20361328 C361.42707987 245.48177439 371.78031174 254.54800129 381.25 263.3125 C382.08273437 264.07433594 382.91546875 264.83617187 383.7734375 265.62109375 C405.44389028 286.34108808 420.90795502 317.7252007 422.42700195 347.8190918 C422.98123827 381.2167982 422.98123827 381.2167982 418.25 397.3125 C418.04632813 398.02680176 417.84265625 398.74110352 417.6328125 399.47705078 C411.30789033 420.98471438 399.52686973 439.09636522 384.25 455.3125 C383.65058594 455.97636719 383.05117188 456.64023437 382.43359375 457.32421875 C367.53235011 473.19098574 346.17212294 484.85081528 325.25 490.3125 C324.57372559 490.50424805 323.89745117 490.69599609 323.20068359 490.89355469 C288.61488082 500.48898221 251.02967046 494.00367776 220.1171875 476.625 C187.82294039 457.72723733 167.66883056 426.88818668 157.65795898 391.52807617 C157.14958032 388.76713278 157.22503165 386.11464851 157.25 383.3125 C156.24062252 383.31618717 155.23124504 383.31987434 154.19128036 383.32367325 C129.60214333 383.41257155 105.01302721 383.47825049 80.42376328 383.51974869 C68.53245066 383.54035162 56.64124436 383.5684289 44.75 383.61425781 C34.38252827 383.65419497 24.01513358 383.6799493 13.64758706 383.68885398 C8.16081214 383.69405705 2.67425754 383.70623897 -2.81244659 383.73542023 C-7.98345328 383.76269797 -13.15415021 383.77092007 -18.32522202 383.76493073 C-20.21656608 383.76602545 -22.10792118 383.77390529 -23.99920273 383.7893219 C-39.32830174 383.9080799 -51.46958823 382.35407765 -62.875 371.2421875 C-69.65699625 364.0861841 -73.86065792 356.25264615 -73.88701439 346.27793884 C-73.89208893 345.25674013 -73.89716347 344.23554142 -73.90239179 343.18339729 C-73.90288955 342.06318624 -73.90338731 340.9429752 -73.90390015 339.78881836 C-73.91047353 338.00167073 -73.91047353 338.00167073 -73.9171797 336.17841911 C-73.92823756 332.86995092 -73.93479005 329.56152994 -73.93936086 326.25305009 C-73.94532296 322.68502235 -73.95693139 319.11701198 -73.96765137 315.54899597 C-73.99216307 306.93058914 -74.00680155 298.31217657 -74.01971143 289.69374561 C-74.02342453 287.25850449 -74.02739768 284.82326393 -74.0314641 282.38802338 C-74.05670389 267.25813871 -74.07875208 252.12825312 -74.09119225 236.99835205 C-74.09412184 233.4945068 -74.09708351 229.99066158 -74.10009766 226.48681641 C-74.10084371 225.61597601 -74.10158976 224.74513561 -74.10235842 223.84790611 C-74.1150046 209.74947795 -74.1482183 195.65117612 -74.18989949 181.55280697 C-74.2323642 167.07038263 -74.25589259 152.58802288 -74.26111281 138.10553646 C-74.26452199 129.9774064 -74.27621866 121.84947369 -74.30921555 113.72140503 C-74.33727979 106.7971132 -74.34818761 99.87305919 -74.33702008 92.94871491 C-74.33184943 89.41899592 -74.3346149 85.88977443 -74.35948563 82.3601284 C-74.3862895 78.52390341 -74.37386325 74.68834838 -74.35800171 70.85205078 C-74.3718838 69.74968551 -74.38576588 68.64732023 -74.40006864 67.51154995 C-74.28251746 55.92470286 -70.16169795 46.77729772 -62.140625 38.50390625 C-50.51775685 27.84961044 -39.87104012 26.84376512 -24.75 27.3125 C-24.78480469 26.466875 -24.81960937 25.62125 -24.85546875 24.75 C-25.20766138 9.99145171 -25.20766138 9.99145171 -20.28515625 4.75390625 C-13.87480897 -0.77874067 -8.151116 0.06101135 0 0 Z M-6.75 16.3125 C-7.96480284 17.30661455 -7.96480284 17.30661455 -7.87025452 19.25502014 C-7.86803391 20.10551437 -7.86581329 20.95600861 -7.86352539 21.83227539 C-7.86344986 22.79319595 -7.86337433 23.75411652 -7.86329651 24.74415588 C-7.85813522 25.788936 -7.85297394 26.83371613 -7.84765625 27.91015625 C-7.8462413 28.97415146 -7.84482635 30.03814667 -7.84336853 31.13438416 C-7.83775064 34.54795083 -7.82519511 37.961453 -7.8125 41.375 C-7.80748731 43.68294176 -7.802924 45.99088455 -7.79882812 48.29882812 C-7.78777539 53.97007711 -7.77049877 59.6412776 -7.75 65.3125 C-2.47 65.3125 2.81 65.3125 8.25 65.3125 C8.25 49.1425 8.25 32.9725 8.25 16.3125 C3.3 16.3125 -1.65 16.3125 -6.75 16.3125 Z M83.25 16.3125 C83.25 32.4825 83.25 48.6525 83.25 65.3125 C88.2 65.3125 93.15 65.3125 98.25 65.3125 C98.25 49.1425 98.25 32.9725 98.25 16.3125 C93.3 16.3125 88.35 16.3125 83.25 16.3125 Z M174.25 16.3125 C173.03519716 17.30661455 173.03519716 17.30661455 173.12974548 19.25502014 C173.13196609 20.10551437 173.13418671 20.95600861 173.13647461 21.83227539 C173.13655014 22.79319595 173.13662567 23.75411652 173.13670349 24.74415588 C173.14186478 25.788936 173.14702606 26.83371613 173.15234375 27.91015625 C173.1537587 28.97415146 173.15517365 30.03814667 173.15663147 31.13438416 C173.16224936 34.54795083 173.17480489 37.961453 173.1875 41.375 C173.19251269 43.68294176 173.197076 45.99088455 173.20117188 48.29882812 C173.21222461 53.97007711 173.22950123 59.6412776 173.25 65.3125 C178.53 65.3125 183.81 65.3125 189.25 65.3125 C189.25 49.1425 189.25 32.9725 189.25 16.3125 C184.3 16.3125 179.35 16.3125 174.25 16.3125 Z M264.25 16.3125 C264.25 32.4825 264.25 48.6525 264.25 65.3125 C269.2 65.3125 274.15 65.3125 279.25 65.3125 C279.25 49.1425 279.25 32.9725 279.25 16.3125 C274.3 16.3125 269.35 16.3125 264.25 16.3125 Z M-56.75 115.3125 C-56.87375 153.71625 -56.9975 192.12 -57.125 231.6875 C-57.17962402 243.81290527 -57.23424805 255.93831055 -57.29052734 268.43115234 C-57.31059413 279.30170692 -57.31059413 279.30170692 -57.32266235 290.17227173 C-57.32825162 295.01366681 -57.3507332 299.85466701 -57.38345337 304.69595337 C-57.42465979 310.87488148 -57.43693764 317.05323679 -57.42843366 323.23228955 C-57.43021143 325.4977461 -57.44207946 327.76322302 -57.46529078 330.02856135 C-58.0878663 345.85329274 -58.0878663 345.85329274 -50.75 359.3125 C-48.46171338 361.57903438 -48.46171338 361.57903438 -46.0625 362.875 C-45.31613281 363.33003906 -44.56976563 363.78507813 -43.80078125 364.25390625 C-39.52941066 366.45874707 -35.70951583 366.4510461 -31.02424622 366.43275452 C-30.22947378 366.43360894 -29.43470135 366.43446337 -28.61584491 366.43534368 C-25.9441506 366.43699501 -23.27251863 366.43148275 -20.60083008 366.42602539 C-18.68908184 366.42574342 -16.7773335 366.42590145 -14.86558533 366.4264679 C-9.6675722 366.42675548 -4.46958203 366.42086505 0.72842574 366.41389394 C6.15767918 366.40765391 11.58693311 366.40705608 17.01618958 366.40586853 C27.30089166 366.40275714 37.58558315 366.39454632 47.87028056 366.38451904 C59.57750202 366.37335196 71.28472398 366.36784595 82.99194944 366.36282361 C107.07797237 366.35236356 131.16398515 366.33456701 155.25 366.3125 C155.58 358.0625 155.91 349.8125 156.25 341.3125 C154.06646912 341.30441315 151.88293823 341.29632629 149.63323975 341.28799438 C129.09069038 341.21097219 108.54820863 341.12303098 88.00574875 341.02497292 C77.44378868 340.97481992 66.88183649 340.92837731 56.31982422 340.890625 C47.1155474 340.85771635 37.91133115 340.81789138 28.70712113 340.76970994 C23.83215226 340.74443376 18.95722362 340.72265577 14.08220673 340.70915604 C9.49562767 340.69634586 4.90918653 340.67430272 0.32268333 340.64511681 C-1.3623563 340.63603286 -3.04741815 340.6303489 -4.732481 340.62828636 C-7.03024645 340.62496958 -9.32761947 340.60950826 -11.62530518 340.5909729 C-12.91212818 340.58544214 -14.19895119 340.57991138 -15.52476883 340.57421303 C-18.55649878 340.32820175 -20.26450867 340.01476792 -22.75 338.3125 C-24.26220803 335.28808393 -23.89435145 332.15873535 -23.89044189 328.84107971 C-23.89341302 328.06152906 -23.89638414 327.28197841 -23.8994453 326.47880501 C-23.90815457 323.85247713 -23.90964241 321.22619471 -23.91113281 318.59985352 C-23.91575935 316.7226756 -23.92078378 314.84549862 -23.92617798 312.96832275 C-23.93931832 307.85889893 -23.94574991 302.74948826 -23.95018864 297.64005017 C-23.95311623 294.45096423 -23.95722039 291.2618819 -23.96169281 288.07279778 C-23.97537093 278.10368 -23.98503652 268.13457047 -23.9888947 258.16544396 C-23.9933789 246.64082901 -24.01094224 235.11633247 -24.0398953 223.59175354 C-24.06147639 214.69407295 -24.07159704 205.79642575 -24.07293582 196.89871925 C-24.07398625 191.5794269 -24.07994466 186.26024581 -24.09775543 180.94098091 C-24.11417486 175.93989849 -24.1164216 170.93901168 -24.10761642 165.93791199 C-24.1068428 164.09923722 -24.11123134 162.26055219 -24.12107468 160.42190361 C-24.1336967 157.9180007 -24.12797114 155.41480091 -24.11749268 152.91090393 C-24.12554908 152.17783557 -24.13360548 151.44476721 -24.14190602 150.68948466 C-24.09379736 145.79770119 -24.09379736 145.79770119 -22.55579257 143.62711513 C-20.10533815 141.84318684 -18.50446979 141.93545007 -15.48538208 141.93218327 C-14.38747282 141.92374332 -13.28956356 141.91530338 -12.15838432 141.90660769 C-10.94741144 141.91261773 -9.73643856 141.91862778 -8.48876953 141.92481995 C-6.5647465 141.91674164 -6.5647465 141.91674164 -4.60185432 141.90850013 C-1.03425769 141.89399262 2.53310898 141.89830662 6.1007185 141.90566695 C9.94536217 141.91038324 13.78995497 141.89790251 17.63458252 141.88764954 C25.16907168 141.8704263 32.70347758 141.86962874 40.23798132 141.87486244 C46.3596516 141.87889856 52.48129721 141.87746724 58.60296631 141.87211418 C59.90825249 141.87099155 59.90825249 141.87099155 61.2399081 141.86984624 C63.00750431 141.86831481 64.77510052 141.86677647 66.54269671 141.86523127 C83.1301094 141.85149367 99.71747496 141.85695293 116.30488658 141.86841648 C131.49258666 141.8783519 146.68016496 141.8654051 161.86784625 141.84148229 C177.44970941 141.81712281 193.03151577 141.80747553 208.6133976 141.81413502 C217.3666297 141.81763405 226.11976809 141.81535018 234.87298584 141.79788399 C242.32382818 141.7832014 249.77451083 141.78247472 257.2253499 141.7999549 C261.02929301 141.80849971 264.83295036 141.81053034 268.63687897 141.79530334 C272.75441025 141.77902456 276.87124472 141.79352864 280.98876953 141.81129456 C282.19974241 141.80168955 283.41071529 141.79208454 284.65838432 141.78218848 C285.75629358 141.79200277 286.85420284 141.80181706 287.98538208 141.81192875 C288.93647417 141.81203609 289.88756626 141.81214342 290.86747932 141.81225401 C293.25 142.3125 293.25 142.3125 295.05411816 144.12153 C296.83213779 147.37903214 296.68936383 150.58261374 296.68237305 154.20214844 C296.6925647 154.99277176 296.70275635 155.78339508 296.71325684 156.59797668 C296.74340254 159.20601473 296.75265505 161.81368557 296.76171875 164.421875 C296.77856429 166.23221051 296.79671436 168.04253432 296.81611633 169.85284424 C296.86363609 174.61375267 296.89343266 179.37461364 296.91955566 184.13568115 C296.94935121 188.99549737 296.995885 193.85515003 297.04101562 198.71484375 C297.12707121 208.24731032 297.19440648 217.77981052 297.25 227.3125 C297.93513672 227.42319824 298.62027344 227.53389648 299.32617188 227.64794922 C302.46802829 228.15762579 305.60900813 228.67252343 308.75 229.1875 C309.82765625 229.36152344 310.9053125 229.53554687 312.015625 229.71484375 C313.07265625 229.88886719 314.1296875 230.06289062 315.21875 230.2421875 C316.18232422 230.39929199 317.14589844 230.55639648 318.13867188 230.71826172 C321.87452978 231.43178009 325.56017389 232.39004347 329.25 233.3125 C329.25 194.3725 329.25 155.4325 329.25 115.3125 C201.87 115.3125 74.49 115.3125 -56.75 115.3125 Z M175.25 157.3125 C175.25 172.1625 175.25 187.0125 175.25 202.3125 C189.77 202.3125 204.29 202.3125 219.25 202.3125 C219.25 187.4625 219.25 172.6125 219.25 157.3125 C204.73 157.3125 190.21 157.3125 175.25 157.3125 Z M236.25 157.3125 C236.25 172.1625 236.25 187.0125 236.25 202.3125 C250.77 202.3125 265.29 202.3125 280.25 202.3125 C280.25 187.4625 280.25 172.6125 280.25 157.3125 C265.73 157.3125 251.21 157.3125 236.25 157.3125 Z M175.25 219.3125 C175.25 233.8325 175.25 248.3525 175.25 263.3125 C195.57008067 265.36583241 195.57008067 265.36583241 204 258.75 C205.23596168 257.44027932 206.47047188 256.12808877 207.65673828 254.77319336 C209.25 253.3125 209.25 253.3125 211.77685547 251.90063477 C214.71395375 250.24517465 216.94825756 248.78638821 219.25 246.3125 C220.47821841 241.59973355 220.2016266 237.20358177 219.875 232.375 C219.66875 228.064375 219.4625 223.75375 219.25 219.3125 C204.73 219.3125 190.21 219.3125 175.25 219.3125 Z M236.25 219.3125 C236.25 225.2525 236.25 231.1925 236.25 237.3125 C237.590625 236.9 238.93125 236.4875 240.3125 236.0625 C242.29049232 235.47519696 244.26979853 234.89231085 246.25 234.3125 C247.90128906 233.82523438 247.90128906 233.82523438 249.5859375 233.328125 C259.70858133 230.47358336 269.84936524 228.79030817 280.25 227.3125 C280.25 224.6725 280.25 222.0325 280.25 219.3125 C265.73 219.3125 251.21 219.3125 236.25 219.3125 Z M212.25 272.3125 C211.61707031 272.82425781 210.98414063 273.33601563 210.33203125 273.86328125 C192.7290833 288.27982361 181.33363499 309.72020459 175.25 331.3125 C174.77046875 332.92318359 174.77046875 332.92318359 174.28125 334.56640625 C166.9899475 363.69786023 173.01471623 395.8854099 188.25 421.4375 C191.90469921 427.02325358 195.9347154 432.22537587 200.25 437.3125 C200.80171875 437.99828125 201.3534375 438.6840625 201.921875 439.390625 C206.70702676 445.17837998 212.31136587 449.74686485 218.25 454.3125 C219.03117187 454.9209375 219.81234375 455.529375 220.6171875 456.15625 C245.65462317 474.70249864 277.41891734 480.95871521 307.90917969 476.68359375 C329.42347755 473.27289989 348.79166517 463.34653019 365.25 449.3125 C366.04792969 448.67183594 366.84585938 448.03117188 367.66796875 447.37109375 C387.45701508 430.79108196 402.06963645 403.57841884 405.0390625 377.91650391 C406.28725223 362.50771732 406.69398035 346.23925658 402.25 331.3125 C401.9096875 330.10464844 401.569375 328.89679688 401.21875 327.65234375 C393.82946086 303.51233497 379.51246705 282.47048367 359.25 267.3125 C358.70633789 266.90499512 358.16267578 266.49749023 357.60253906 266.07763672 C313.90068008 233.82859314 253.06728734 237.31559367 212.25 272.3125 Z M53.25 280.3125 C53.25 294.8325 53.25 309.3525 53.25 324.3125 C67.77 324.3125 82.29 324.3125 97.25 324.3125 C97.25 309.7925 97.25 295.2725 97.25 280.3125 C82.73 280.3125 68.21 280.3125 53.25 280.3125 Z M114.25 280.3125 C114.25 294.8325 114.25 309.3525 114.25 324.3125 C128.77 324.3125 143.29 324.3125 158.25 324.3125 C158.25 309.7925 158.25 295.2725 158.25 280.3125 C143.73 280.3125 129.21 280.3125 114.25 280.3125 Z M175.25 280.3125 C175.25 283.2825 175.25 286.2525 175.25 289.3125 C177.65072955 286.43162454 179.72291037 283.74845166 181.25 280.3125 C179.27 280.3125 177.29 280.3125 175.25 280.3125 Z " fill="#56A4FF" transform="translate(81.75,8.6875)"/>
<path d="M0 0 C1.57460999 -0.00574036 1.57460999 -0.00574036 3.18103027 -0.01159668 C5.38615893 -0.01430176 7.59132045 -0.0070398 9.79638672 0.00976562 C13.14754633 0.03119435 16.49656232 0.00991463 19.84765625 -0.015625 C22.00260884 -0.01298148 24.15756011 -0.00785599 26.3125 0 C27.30133179 -0.00809692 28.29016357 -0.01619385 29.30895996 -0.02453613 C36.62487069 0.07276893 43.85380242 1.2617901 49.57043457 6.17712402 C54.4837095 11.35104387 56.8443792 17.18078808 56.7265625 24.2890625 C56.71641113 25.08715332 56.70625977 25.88524414 56.69580078 26.70751953 C56.68274902 27.30935059 56.66969727 27.91118164 56.65625 28.53125 C57.92218994 28.51030273 59.18812988 28.48935547 60.49243164 28.46777344 C65.20927528 28.39512859 69.92606988 28.34936125 74.64331055 28.31152344 C76.68115568 28.29146368 78.71894366 28.26420901 80.7565918 28.22949219 C83.69334047 28.18072566 86.62932518 28.15822459 89.56640625 28.140625 C90.92307152 28.10965729 90.92307152 28.10965729 92.30714417 28.07806396 C98.28904386 28.07596337 101.91043854 28.76490984 106.65625 32.53125 C110.62437299 37.81472934 111.24460286 43.0924049 111.15234375 49.52734375 C111.15379898 50.36032486 111.15525421 51.19330597 111.15675354 52.05152893 C111.15510376 53.80204793 111.14364655 55.55258284 111.12280273 57.30297852 C111.0938619 59.95848291 111.10221073 62.61198368 111.11523438 65.26757812 C111.10899479 66.97917622 111.10060214 68.69076809 111.08984375 70.40234375 C111.09277939 71.18387314 111.09571503 71.96540253 111.09873962 72.77061462 C110.98772798 79.37230407 110.01133985 85.81720336 105.57772827 90.92657471 C103.27033761 94.05437663 103.16644174 95.60384644 103.18969727 99.44799805 C103.1861171 100.61658859 103.18253693 101.78517914 103.17884827 102.98918152 C103.20053322 104.8720562 103.20053322 104.8720562 103.22265625 106.79296875 C103.21550694 108.78126898 103.20832869 110.76956956 103.19950008 112.75786304 C103.18697091 116.9460505 103.2076211 121.13419856 103.22998047 125.32232666 C103.24803719 128.76463941 103.25681078 132.20630153 103.23973083 135.64863586 C103.22861204 138.22528515 103.2384957 140.80213823 103.27259827 143.37858582 C103.22821873 151.1858321 102.0749245 156.99488772 97.65625 163.53125 C95.375 165.78515625 95.375 165.78515625 93.15625 167.09375 C92.4240625 167.54878906 91.691875 168.00382813 90.9375 168.47265625 C86.64510669 170.46450314 82.44418207 170.65808541 77.76263428 170.67169189 C76.58237167 170.67740204 75.40210907 170.68311218 74.18608093 170.68899536 C72.25657341 170.69067215 72.25657341 170.69067215 70.28808594 170.69238281 C68.91280485 170.69701476 67.53752504 170.70203992 66.1622467 170.70742798 C62.43271906 170.72051814 58.70320939 170.72699037 54.97366238 170.73143864 C52.64065499 170.73437496 50.30765246 170.73848083 47.97464752 170.74294281 C40.6666646 170.75660912 33.35869285 170.76627989 26.05069804 170.7701447 C17.63059203 170.77462282 9.21064856 170.79216285 0.79059196 170.8211453 C-5.72849489 170.84280125 -12.24753613 170.85285107 -18.76665854 170.85418582 C-22.65529626 170.85523109 -26.54378101 170.86107937 -30.43238068 170.87900543 C-34.09321608 170.89555393 -37.75378463 170.89760905 -41.41464424 170.88886642 C-43.38693822 170.88773604 -45.35922362 170.90140109 -47.33146667 170.9156189 C-55.44903152 170.87767818 -62.18313489 170.12007718 -69.15625 165.78125 C-74.57373459 160.20898013 -76.46624838 154.41646831 -76.46972656 146.7722168 C-76.47543671 145.0347242 -76.47543671 145.0347242 -76.48126221 143.26213074 C-76.48228943 142.01418228 -76.48331665 140.76623383 -76.484375 139.48046875 C-76.49800939 137.51339964 -76.51167372 135.54633021 -76.52708054 133.57927418 C-76.56498544 128.73518883 -76.59636868 123.89137003 -76.59423828 119.04711914 C-76.59360194 116.32783922 -76.60610573 113.60923587 -76.63323975 110.89009094 C-76.65851329 108.33258202 -76.66501142 105.77480122 -76.65045166 103.21720886 C-76.73876536 96.93460993 -76.96428816 92.87506845 -81.12258911 88.04696655 C-85.00488434 83.22822465 -84.66316454 76.47627721 -84.6796875 70.59765625 C-84.6896727 69.34250465 -84.6896727 69.34250465 -84.69985962 68.06199646 C-84.70993416 66.30136293 -84.71467826 64.54069162 -84.71435547 62.7800293 C-84.71873215 60.10465997 -84.75511502 57.43093797 -84.79296875 54.75585938 C-84.79883757 53.03646391 -84.80280653 51.3170607 -84.8046875 49.59765625 C-84.81905853 48.80782852 -84.83342957 48.01800079 -84.84823608 47.20423889 C-84.80266027 41.59278256 -83.7666304 37.07790656 -80.34375 32.53125 C-74.8167498 28.14494789 -70.14027196 27.98343443 -63.25390625 28.140625 C-61.8371183 28.14911469 -61.8371183 28.14911469 -60.39170837 28.15777588 C-57.39602444 28.18003929 -54.40156805 28.23021669 -51.40625 28.28125 C-49.36655382 28.30132798 -47.32683876 28.31957647 -45.28710938 28.3359375 C-40.30552174 28.37987117 -35.32484348 28.4488288 -30.34375 28.53125 C-30.35752686 26.6287146 -30.35752686 26.6287146 -30.37158203 24.68774414 C-30.42293936 17.59547765 -28.25324621 11.30314997 -23.25793457 6.14611816 C-16.60226075 0.53117594 -8.34499118 -0.0683319 0 0 Z M-11.97460938 19.69555664 C-13.77854677 22.90695846 -13.77854677 22.90695846 -13.34375 28.53125 C4.14625 28.53125 21.63625 28.53125 39.65625 28.53125 C40.233969 22.08401832 40.233969 22.08401832 38.28710938 19.12915039 C34.19325749 16.64267484 30.26636952 16.94031434 25.5625 16.96484375 C24.08698669 16.95554588 24.08698669 16.95554588 22.58166504 16.94606018 C20.50383493 16.93896253 18.42594795 16.94213505 16.34814453 16.95483398 C13.16723146 16.96870212 9.98925843 16.93462479 6.80859375 16.89648438 C4.78906178 16.8955332 2.76952612 16.8973919 0.75 16.90234375 C-0.20112671 16.88908554 -1.15225342 16.87582733 -2.13220215 16.86216736 C-7.50526734 16.91504091 -7.50526734 16.91504091 -11.97460938 19.69555664 Z M-24.34375 45.53125 C-24.34375 49.82125 -24.34375 54.11125 -24.34375 58.53125 C0.40625 58.53125 25.15625 58.53125 50.65625 58.53125 C50.65625 54.24125 50.65625 49.95125 50.65625 45.53125 C25.90625 45.53125 1.15625 45.53125 -24.34375 45.53125 Z M-59.34375 104.53125 C-59.44504515 111.02728988 -59.51517075 117.52312668 -59.56347656 124.01977539 C-59.58361064 126.23046479 -59.61092015 128.44110082 -59.64550781 130.65161133 C-59.69394629 133.82646846 -59.71670072 137.00062248 -59.734375 140.17578125 C-59.75502014 141.16649124 -59.77566528 142.15720123 -59.79693604 143.17793274 C-59.79723816 144.09866074 -59.79754028 145.01938873 -59.79785156 145.96801758 C-59.80673401 146.7785408 -59.81561646 147.58906403 -59.82476807 148.42414856 C-59.51756855 150.65937859 -59.51756855 150.65937859 -57.66713333 152.13913441 C-54.79552725 153.85973193 -53.02485255 153.90843265 -49.68859863 153.91220093 C-48.53614151 153.9206604 -47.38368439 153.92911987 -46.19630432 153.93783569 C-44.30572548 153.92872665 -44.30572548 153.92872665 -42.37695312 153.91943359 C-41.03311232 153.92349971 -39.68927486 153.92884182 -38.34544373 153.93536377 C-34.69875069 153.94903857 -31.05231233 153.94373818 -27.40561485 153.93422651 C-23.58912851 153.92663072 -19.77266396 153.9336753 -15.95617676 153.93838501 C-9.54707932 153.9438428 -3.1380856 153.93665036 3.27099609 153.92236328 C10.68056217 153.90603666 18.0898806 153.91132515 25.49944067 153.9278425 C31.86133618 153.94145672 38.22315714 153.94337735 44.5850625 153.93552649 C48.38466609 153.9308496 52.18415328 153.93022549 55.98374939 153.94013596 C59.55594919 153.94880249 63.12782973 153.94278979 66.69999504 153.92545319 C68.63626034 153.91959454 70.57255264 153.9285066 72.50880432 153.93783569 C74.23749001 153.92514648 74.23749001 153.92514648 76.00109863 153.91220093 C77.0025013 153.91106985 78.00390396 153.90993877 79.03565216 153.90877342 C82.07536978 153.47087159 83.45536272 152.64191275 85.65625 150.53125 C86.23232646 148.38523282 86.23232646 148.38523282 86.11035156 145.96801758 C86.11004944 145.04728958 86.10974731 144.12656158 86.10943604 143.17793274 C86.08879089 142.18722275 86.06814575 141.19651276 86.046875 140.17578125 C86.03838531 138.65062141 86.03838531 138.65062141 86.02972412 137.09465027 C86.00731519 133.84387328 85.95710942 130.59419441 85.90625 127.34375 C85.88619089 125.14129195 85.8679391 122.93881664 85.8515625 120.73632812 C85.8074358 115.3342601 85.74047889 109.93283349 85.65625 104.53125 C83.86537964 105.04437744 83.86537964 105.04437744 82.03833008 105.56787109 C70.49652579 108.79042614 59.55606793 110.65544715 47.56445312 111.38671875 C40.718827 111.95097831 40.718827 111.95097831 35.55688477 116.04394531 C34.0608577 118.82328986 32.86851866 121.62125167 31.65625 124.53125 C26.37783275 129.94501128 20.72282042 131.71909191 13.34375 132.03125 C6.85306893 131.84473618 1.81196421 130.57750672 -3.34375 126.53125 C-6.1988454 123.1953589 -8.63029273 119.64761484 -10.0402832 115.46508789 C-11.22688499 113.25700631 -11.22688499 113.25700631 -13.99487305 112.7734375 C-15.10386963 112.65226562 -16.21286621 112.53109375 -17.35546875 112.40625 C-18.58209229 112.25905518 -19.80871582 112.11186035 -21.07250977 111.96020508 C-23.03208618 111.74787231 -23.03208618 111.74787231 -25.03125 111.53125 C-35.46049481 110.28688318 -45.32224105 108.67496341 -55.34375 105.53125 C-56.67554155 105.19180905 -58.00862785 104.85734466 -59.34375 104.53125 Z " fill="#57A4FF" transform="translate(357.34375,279.46875)"/>
<path d="M0 0 C0.01401855 1.11858398 0.01401855 1.11858398 0.02832031 2.25976562 C0.0823603 5.6738215 0.16594304 9.08655655 0.25 12.5 C0.26417969 13.67304687 0.27835938 14.84609375 0.29296875 16.0546875 C0.47958255 22.69813871 0.65229784 28.67731342 5 34 C10.84653042 38.79734811 16.58654821 38.63921343 23.9375 38.5625 C24.98357422 38.58634766 26.02964844 38.61019531 27.10742188 38.63476562 C33.09113375 38.6234827 37.33547587 37.94062224 42.38110352 34.65991211 C46.41085363 30.52806608 47.37815473 26.11750153 47.51171875 20.5078125 C47.56138794 18.88576904 47.56138794 18.88576904 47.61206055 17.23095703 C47.63695557 15.87599121 47.66185059 14.52102539 47.6875 13.125 C47.790625 8.79375 47.89375 4.4625 48 0 C62.19 0 76.38 0 91 0 C91.25 13.625 91.25 13.625 91.29785156 17.88916016 C91.36129471 26.76518246 91.36129471 26.76518246 96 34 C101.82557033 38.46577522 106.815321 38.58718081 114 38.4375 C115.43859375 38.44813477 115.43859375 38.44813477 116.90625 38.45898438 C123.76257534 38.39776718 128.91007867 37.58885301 134.3125 33.0625 C137.63287761 29.0042607 138.26582099 25.94099167 138.4140625 20.703125 C138.44967285 19.61676758 138.4852832 18.53041016 138.52197266 17.41113281 C138.57297119 15.35137207 138.57297119 15.35137207 138.625 13.25 C138.810625 6.69125 138.810625 6.69125 139 0 C152.86 0 166.72 0 181 0 C181.25 13.0625 181.25 13.0625 181.29785156 17.14086914 C181.55686183 26.2974897 181.55686183 26.2974897 186 34 C191.83406612 38.62520557 197.17467154 38.6120951 204.4375 38.5 C205.93506836 38.52320312 205.93506836 38.52320312 207.46289062 38.546875 C214.07683982 38.51208763 218.35680798 37.48321163 224 34 C227.77788704 29.97837832 228.14001842 26.16801107 228.31640625 20.80078125 C228.35451416 19.71192627 228.39262207 18.62307129 228.43188477 17.5012207 C228.49653931 15.42780396 228.49653931 15.42780396 228.5625 13.3125 C228.706875 8.919375 228.85125 4.52625 229 0 C243.19 0 257.38 0 272 0 C272.25 13.625 272.25 13.625 272.29785156 17.88916016 C272.36129471 26.76518246 272.36129471 26.76518246 277 34 C282.82557033 38.46577522 287.815321 38.58718081 295 38.4375 C296.43859375 38.44813477 296.43859375 38.44813477 297.90625 38.45898438 C304.76257534 38.39776718 309.91007867 37.58885301 315.3125 33.0625 C318.63287761 29.0042607 319.26582099 25.94099167 319.4140625 20.703125 C319.45273437 19.49785156 319.49140625 18.29257813 319.53125 17.05078125 C319.5621875 15.79652344 319.593125 14.54226562 319.625 13.25 C319.66367187 11.98027344 319.70234375 10.71054687 319.7421875 9.40234375 C319.83644222 6.2683743 319.92205166 3.13441051 320 0 C329.31731369 -0.55903882 337.20010575 -0.79879778 345 5 C349.76089056 9.26454239 351.39489303 12.92141707 354 19 C354 30.88 354 42.76 354 55 C225.96 55 97.92 55 -34 55 C-34 14.09259259 -34 14.09259259 -25.625 5.5625 C-17.35608581 -0.64798236 -9.94087885 -0.34543594 0 0 Z " fill="#9AC8FF" transform="translate(58,52)"/>
<path d="M0 0 C8.58 0 17.16 0 26 0 C26.25 8.0625 26.25 8.0625 26.29785156 10.55883789 C26.55018873 16.10427928 27.70938136 19.4892023 31 24 C35.91247036 28.07928744 39.4629997 28.58079247 45.57226562 28.51757812 C46.41206467 28.5245874 47.25186371 28.53159668 48.11711121 28.53881836 C50.88049837 28.55635797 53.64285324 28.54479017 56.40625 28.53125 C58.3338643 28.53394608 60.26147726 28.53782947 62.18908691 28.54284668 C66.224009 28.54873626 70.25857627 28.54019615 74.29345703 28.52148438 C79.45856215 28.4986952 84.62283583 28.51182117 89.78791046 28.53577423 C93.76684809 28.55024678 97.74558946 28.54561952 101.72453308 28.53526306 C103.62867838 28.53259981 105.53284164 28.53585139 107.43696594 28.54518127 C110.10103369 28.5553709 112.76376579 28.5398126 115.42773438 28.51757812 C116.2102507 28.52567505 116.99276703 28.53377197 117.79899597 28.54211426 C122.97197014 28.46236188 125.8659312 27.36266312 130 24 C133.02349371 20.55947267 134.07778371 17.52210954 134.31640625 12.98828125 C134.35451416 12.30548096 134.39262207 11.62268066 134.43188477 10.91918945 C134.47498779 10.05898193 134.51809082 9.19877441 134.5625 8.3125 C134.706875 5.569375 134.85125 2.82625 135 0 C143.58 0 152.16 0 161 0 C161.06901579 4.60872083 161.12870199 9.2156363 161.16479492 13.82446289 C161.17984622 15.39093107 161.20029207 16.95735736 161.22631836 18.52368164 C161.26286433 20.78021606 161.27976261 23.03619153 161.29296875 25.29296875 C161.30845261 25.98899704 161.32393646 26.68502533 161.33988953 27.40214539 C161.341398 31.79793458 160.63735038 34.47631691 158 38 C145.5559981 49.54598114 123.00758805 50.58917547 107 52 C105.58074219 52.14308594 105.58074219 52.14308594 104.1328125 52.2890625 C102 52 102 52 100.48046875 50.390625 C99.84044922 49.33101563 99.84044922 49.33101563 99.1875 48.25 C95.49176248 42.84043601 91.05605636 41.01868545 85 39 C78.37924896 38.14962831 73.38741282 39.24232401 67.421875 42.125 C64.93908522 44.04715983 63.98845082 45.57722264 62.35546875 48.20703125 C60.55795639 50.69707931 59.73450794 51.83717497 56.70263672 52.50927734 C53.92558145 52.44447412 51.30512524 52.1281154 48.5625 51.6875 C47.58547119 51.56157471 46.60844238 51.43564941 45.60180664 51.3059082 C42.72488504 50.91864394 39.86448011 50.46968822 37 50 C36.2481543 49.8865625 35.49630859 49.773125 34.72167969 49.65625 C22.25998911 47.74915245 9.69053233 44.69140825 1 35 C-0.50606515 31.98786971 -0.12160331 28.88717378 -0.09765625 25.5859375 C-0.0962413 24.85629791 -0.09482635 24.12665833 -0.09336853 23.37490845 C-0.08776531 21.04156415 -0.07521235 18.70831536 -0.0625 16.375 C-0.05748541 14.79427222 -0.05292243 13.21354293 -0.04882812 11.6328125 C-0.03864517 7.75514182 -0.01907055 3.87767798 0 0 Z " fill="#99C8FF" transform="translate(290,325)"/>
<path d="M0 0 C14.85 0 29.7 0 45 0 C45 14.85 45 29.7 45 45 C30.15 45 15.3 45 0 45 C0 30.15 0 15.3 0 0 Z " fill="#9AC8FF" transform="translate(73,288)"/>
<path d="M0 0 C14.85 0 29.7 0 45 0 C45 14.85 45 29.7 45 45 C30.15 45 15.3 45 0 45 C0 30.15 0 15.3 0 0 Z " fill="#9AC8FF" transform="translate(195,227)"/>
<path d="M0 0 C14.85 0 29.7 0 45 0 C45 14.85 45 29.7 45 45 C30.15 45 15.3 45 0 45 C0 30.15 0 15.3 0 0 Z " fill="#9AC8FF" transform="translate(134,227)"/>
<path d="M0 0 C14.85 0 29.7 0 45 0 C45 14.85 45 29.7 45 45 C30.15 45 15.3 45 0 45 C0 30.15 0 15.3 0 0 Z " fill="#9AC8FF" transform="translate(73,227)"/>
<path d="M0 0 C14.85 0 29.7 0 45 0 C45 14.85 45 29.7 45 45 C30.15 45 15.3 45 0 45 C0 30.15 0 15.3 0 0 Z " fill="#57A4FF" transform="translate(134,166)"/>
<path d="M0 0 C14.85 0 29.7 0 45 0 C45 14.85 45 29.7 45 45 C30.15 45 15.3 45 0 45 C0 30.15 0 15.3 0 0 Z " fill="#58A4FF" transform="translate(73,166)"/>
<path d="M0 0 C14.85 0 29.7 0 45 0 C45 14.85 45 29.7 45 45 C30.15 45 15.3 45 0 45 C0 30.15 0 15.3 0 0 Z " fill="#9AC8FF" transform="translate(195,166)"/>
<path d="M0 0 C14.85 0 29.7 0 45 0 C45 14.85 45 29.7 45 45 C30.15 45 15.3 45 0 45 C0 30.15 0 15.3 0 0 Z M6.5 6.5625 C4.38993161 9.99136114 4.37508477 12.04220351 5 16 C6.62652316 17.70586575 8.29006566 19.3777546 10 21 C10.0625 23.0625 10.0625 23.0625 9 25 C7.9790625 25.8971875 7.9790625 25.8971875 6.9375 26.8125 C4.67817888 28.95897679 4.67817888 28.95897679 4.5 32.5 C4.75863211 35.97037187 4.75863211 35.97037187 6.5 38.4375 C9.3702366 40.23139787 11.64710803 40.6179748 15.02734375 40.47265625 C18.30885632 39.68639284 19.95783449 37.55270688 22 35 C25.75708502 36.68421053 25.75708502 36.68421053 27.25 38.625 C29.69945025 40.54956805 32.01312389 40.53922629 35.0546875 40.41015625 C37.27832012 40.09465215 37.27832012 40.09465215 39.5625 37.9375 C41.47987578 34.01938428 41.24141926 32.16240575 40 28 C38.4925282 25.75357143 36.87742366 23.97370179 35 22 C35.44472656 21.57589844 35.88945312 21.15179688 36.34765625 20.71484375 C40.25473179 16.7003255 40.25473179 16.7003255 41.0625 11.25 C39.9594217 7.33531363 39.9594217 7.33531363 37 5 C33.90521282 4.60067262 31.95967021 4.35509132 29 5 C25.99666733 7.33336666 25.99666733 7.33336666 24 10 C20.24291498 8.31578947 20.24291498 8.31578947 18.75 6.375 C16.2930928 4.44457292 13.98536386 4.52171044 10.94140625 4.65625 C8.79482535 4.91150963 8.79482535 4.91150963 6.5 6.5625 Z " fill="#98C7FF" transform="translate(134,166)"/>
<path d="M0 0 C14.85 0 29.7 0 45 0 C45 14.85 45 29.7 45 45 C30.15 45 15.3 45 0 45 C0 30.15 0 15.3 0 0 Z M6.5 6.5625 C4.37988855 10.00768111 4.38185074 12.01637143 5 16 C6.46855494 18.32224778 8.06234221 20.01390076 10 22 C9.00188842 24.22655661 8.29399424 25.76254312 6.375 27.3125 C4.68098895 29.08783768 4.68098895 29.08783768 4.5625 32.4375 C4.74462281 35.96398268 4.74462281 35.96398268 6.5 38.4375 C9.35474092 40.22171308 11.59855472 40.61747798 14.9609375 40.47265625 C18.52970929 39.64541221 20.44567646 37.55432354 23 35 C23.825 35.825 24.65 36.65 25.5 37.5 C28.03007841 39.59840627 29.83033014 40.43990619 33.125 40.625 C37.03162868 40.3228798 37.03162868 40.3228798 39.5625 37.9375 C41.47987578 34.01938428 41.24141926 32.16240575 40 28 C38.4925282 25.75357143 36.87742366 23.97370179 35 22 C35.44472656 21.57589844 35.88945313 21.15179688 36.34765625 20.71484375 C40.25473179 16.7003255 40.25473179 16.7003255 41.0625 11.25 C39.9594217 7.33531363 39.9594217 7.33531363 37 5 C33.90521282 4.60067262 31.95967021 4.35509132 29 5 C25.99666733 7.33336666 25.99666733 7.33336666 24 10 C20.24291498 8.31578947 20.24291498 8.31578947 18.75 6.375 C16.2930928 4.44457292 13.98536386 4.52171044 10.94140625 4.65625 C8.79482535 4.91150963 8.79482535 4.91150963 6.5 6.5625 Z " fill="#98C7FF" transform="translate(73,166)"/>
<path d="M0 0 C2.5 2.125 2.5 2.125 4 5 C4.07481382 9.26438773 3.64839572 11.23718151 0.875 14.5 C-2.97148295 16.50686067 -4.88546541 16.27176524 -9 15 C-11.5 12.875 -11.5 12.875 -13 10 C-13.07481382 5.73561227 -12.64839572 3.76281849 -9.875 0.5 C-6.02851705 -1.50686067 -4.11453459 -1.27176524 0 0 Z " fill="#98C7FF" transform="translate(375,380)"/>
</svg>
