<?xml version="1.0" encoding="UTF-8"?>
<svg version="1.1" xmlns="http://www.w3.org/2000/svg" width="512" height="512">
<path d="M0 0 C1.68017212 -0.00861053 1.68017212 -0.00861053 3.39428711 -0.01739502 C5.7508345 -0.0214586 8.10745072 -0.01052281 10.46386719 0.01464844 C14.05297938 0.04678974 17.63758891 0.01489993 21.2265625 -0.0234375 C23.52605152 -0.01947231 25.82553776 -0.01178427 28.125 0 C29.18775146 -0.01214539 30.25050293 -0.02429077 31.34545898 -0.0368042 C38.68983956 0.10054092 43.57235911 1.81955977 49.0625 6.796875 C52.7693365 11.5065885 53.30689797 16.16726178 53.9375 22.046875 C55.19483192 32.84703376 59.05909277 41.3190384 67.66796875 48.171875 C76.59496798 54.23000172 85.57299276 54.82232581 96.0625 53.796875 C103.29991041 52.23624742 108.1082294 48.3052302 113.6953125 43.640625 C118.54360455 39.86439753 122.86600845 38.50754018 129 38.734375 C139.69441496 40.46649363 147.25155078 49.4559036 154.57519531 56.80859375 C156.30933937 58.54371259 158.06377198 60.25634367 159.8203125 61.96875 C166.88949967 68.9615074 173.72685401 75.89348827 174.6875 86.296875 C174.24681987 93.22534597 170.66649232 99.25915799 166 104.234375 C160.07121589 110.79127319 158.34371228 119.16673777 158.6796875 127.8125 C160.002959 138.12861661 164.8377483 146.5900933 172.875 153.109375 C178.72967113 157.18990336 184.42247445 158.78310951 191.5 159.171875 C197.44795732 159.61400927 202.23659453 161.240487 207.0625 164.796875 C212.16722939 170.81693518 213.22926481 176.4810442 213.30078125 184.2265625 C213.308853 185.053909 213.31692474 185.88125549 213.32524109 186.7336731 C213.33906427 188.48372309 213.34979432 190.23379984 213.35766602 191.98388672 C213.3748921 194.65514281 213.41879394 197.32516503 213.46289062 199.99609375 C213.47301701 201.69790758 213.48153328 203.39973192 213.48828125 205.1015625 C213.50578934 205.89754852 213.52329742 206.69353455 213.54133606 207.51364136 C213.53694771 208.63973312 213.53694771 208.63973312 213.5324707 209.78857422 C213.53833694 210.44348846 213.54420319 211.09840271 213.55024719 211.77316284 C212.79592656 214.90291501 211.31006499 216.51853626 209.0625 218.796875 C206.06961727 219.42362082 206.06961727 219.42362082 202.4907074 219.4260807 C201.4978833 219.43698151 201.4978833 219.43698151 200.48500216 219.44810253 C198.25692521 219.46641717 196.0305559 219.44896983 193.80249023 219.43179321 C192.19320766 219.43755192 190.58393165 219.44549136 188.97466946 219.45542943 C184.54463749 219.47636068 180.11514196 219.46595932 175.68510771 219.45049834 C170.9106499 219.43921431 166.13628621 219.45663286 161.36184692 219.47039795 C152.00564723 219.49266648 142.64964774 219.48781309 133.2934401 219.47333474 C125.6915308 219.4620567 118.08967772 219.46050538 110.48776245 219.46595383 C108.8667214 219.46710307 108.8667214 219.46710307 107.21293205 219.46827554 C105.01773109 219.46987412 102.82253015 219.47149518 100.62732923 219.4731385 C80.02823082 219.48740659 59.42924355 219.47098664 38.83016336 219.44413666 C21.14355584 219.42179694 3.45711238 219.42567677 -14.22949219 219.44873047 C-34.75334724 219.47546975 -55.27710481 219.48603319 -75.80097485 219.47066915 C-77.98823737 219.46907635 -80.1754999 219.4675045 -82.36276245 219.46595383 C-83.97715276 219.46479676 -83.97715276 219.46479676 -85.62415701 219.46361632 C-93.21960539 219.4592937 -100.81499208 219.46659796 -108.41043091 219.47835159 C-117.66295475 219.49235435 -126.91526642 219.48862358 -136.16776586 219.46194787 C-140.89132955 219.44877967 -145.61453912 219.44370824 -150.33810043 219.46019363 C-154.65851955 219.47504434 -158.97825484 219.46698645 -163.29861152 219.44030587 C-164.86516766 219.43470006 -166.43178105 219.43760819 -167.99830067 219.44968481 C-170.12160091 219.46480374 -172.2425327 219.4493923 -174.3657074 219.4260807 C-175.54674766 219.42526894 -176.72778791 219.42445718 -177.94461727 219.42362082 C-180.9375 218.796875 -180.9375 218.796875 -183.31489658 216.50112569 C-185.51710168 212.83090376 -185.53056636 209.50817687 -185.50390625 205.34765625 C-185.51010483 204.53499802 -185.51630341 203.72233978 -185.52268982 202.88505554 C-185.52977718 201.16793002 -185.52663284 199.45073563 -185.51391602 197.73364258 C-185.50013194 195.13425572 -185.534033 192.53853167 -185.57226562 189.93945312 C-185.65395024 172.79383277 -185.65395024 172.79383277 -179.9375 165.796875 C-174.24928097 161.17630917 -169.11923763 159.78382695 -161.875 159.046875 C-151.39273731 157.74933474 -144.40179677 154.40291291 -137.62890625 146.20703125 C-131.65713856 137.69760708 -130.08059913 129.04242883 -130.9375 118.796875 C-132.56453163 111.15915329 -136.11737933 105.95556053 -141.09765625 100.06640625 C-144.94906632 95.31551612 -146.67762129 90.43740996 -146.3034668 84.27783203 C-144.76693107 73.86137035 -136.62225288 66.76745001 -129.46411133 59.78149414 C-127.62521574 57.98458581 -125.80871337 56.16713718 -123.99414062 54.34570312 C-122.81375826 53.17581242 -121.63215743 52.00714956 -120.44921875 50.83984375 C-119.91560226 50.30642868 -119.38198578 49.77301361 -118.8321991 49.22343445 C-112.95236668 43.52221211 -106.87456217 39.02854379 -98.515625 38.60546875 C-91.88614119 39.0976577 -86.7430104 41.81945165 -81.9375 46.296875 C-74.81316826 52.86991916 -67.36900393 54.4083346 -57.83764648 54.26538086 C-48.46372903 53.83995008 -41.72007325 50.65295867 -34.98046875 44.17578125 C-28.24975489 36.33829609 -26.48037641 28.27402744 -25.40234375 18.22265625 C-24.65928752 12.74651919 -23.28647526 8.92643608 -19.15039062 5.17669678 C-12.80947113 0.55414455 -7.72529206 -0.08828654 0 0 Z M-46.9375 140.796875 C-47.62457031 141.45945313 -48.31164062 142.12203125 -49.01953125 142.8046875 C-65.30371333 159.69912492 -69.9375 181.01436776 -69.9375 203.796875 C-14.4975 203.796875 40.9425 203.796875 98.0625 203.796875 C98.0625 177.39243732 91.59986835 158.03092886 73.5 138.734375 C56.62844851 122.5077605 35.17563836 114.20684622 11.76123047 114.4453125 C-11.35262604 115.1578784 -30.57432847 124.73929751 -46.9375 140.796875 Z " fill="#A3D3FE" transform="translate(241.9375,7.203125)"/>
<path d="M0 0 C1.68017212 -0.00861053 1.68017212 -0.00861053 3.39428711 -0.01739502 C5.7508345 -0.0214586 8.10745072 -0.01052281 10.46386719 0.01464844 C14.05297938 0.04678974 17.63758891 0.01489993 21.2265625 -0.0234375 C23.52605152 -0.01947231 25.82553776 -0.01178427 28.125 0 C29.18775146 -0.01214539 30.25050293 -0.02429077 31.34545898 -0.0368042 C38.68983956 0.10054092 43.57235911 1.81955977 49.0625 6.796875 C52.7693365 11.5065885 53.30689797 16.16726178 53.9375 22.046875 C55.19483192 32.84703376 59.05909277 41.3190384 67.66796875 48.171875 C76.59496798 54.23000172 85.57299276 54.82232581 96.0625 53.796875 C103.29991041 52.23624742 108.1082294 48.3052302 113.6953125 43.640625 C118.54360455 39.86439753 122.86600845 38.50754018 129 38.734375 C139.69441496 40.46649363 147.25155078 49.4559036 154.57519531 56.80859375 C156.30933937 58.54371259 158.06377198 60.25634367 159.8203125 61.96875 C166.88949967 68.9615074 173.72685401 75.89348827 174.6875 86.296875 C174.24681987 93.22534597 170.66649232 99.25915799 166 104.234375 C160.07121589 110.79127319 158.34371228 119.16673777 158.6796875 127.8125 C160.002959 138.12861661 164.8377483 146.5900933 172.875 153.109375 C178.72967113 157.18990336 184.42247445 158.78310951 191.5 159.171875 C197.44795732 159.61400927 202.23659453 161.240487 207.0625 164.796875 C212.16722939 170.81693518 213.22926481 176.4810442 213.30078125 184.2265625 C213.308853 185.053909 213.31692474 185.88125549 213.32524109 186.7336731 C213.33906427 188.48372309 213.34979432 190.23379984 213.35766602 191.98388672 C213.3748921 194.65514281 213.41879394 197.32516503 213.46289062 199.99609375 C213.47301701 201.69790758 213.48153328 203.39973192 213.48828125 205.1015625 C213.50578934 205.89754852 213.52329742 206.69353455 213.54133606 207.51364136 C213.53694771 208.63973312 213.53694771 208.63973312 213.5324707 209.78857422 C213.53833694 210.44348846 213.54420319 211.09840271 213.55024719 211.77316284 C212.79592656 214.90291501 211.31006499 216.51853626 209.0625 218.796875 C206.06961727 219.42362082 206.06961727 219.42362082 202.4907074 219.4260807 C201.4978833 219.43698151 201.4978833 219.43698151 200.48500216 219.44810253 C198.25692521 219.46641717 196.0305559 219.44896983 193.80249023 219.43179321 C192.19320766 219.43755192 190.58393165 219.44549136 188.97466946 219.45542943 C184.54463749 219.47636068 180.11514196 219.46595932 175.68510771 219.45049834 C170.9106499 219.43921431 166.13628621 219.45663286 161.36184692 219.47039795 C152.00564723 219.49266648 142.64964774 219.48781309 133.2934401 219.47333474 C125.6915308 219.4620567 118.08967772 219.46050538 110.48776245 219.46595383 C108.8667214 219.46710307 108.8667214 219.46710307 107.21293205 219.46827554 C105.01773109 219.46987412 102.82253015 219.47149518 100.62732923 219.4731385 C80.02823082 219.48740659 59.42924355 219.47098664 38.83016336 219.44413666 C21.14355584 219.42179694 3.45711238 219.42567677 -14.22949219 219.44873047 C-34.75334724 219.47546975 -55.27710481 219.48603319 -75.80097485 219.47066915 C-77.98823737 219.46907635 -80.1754999 219.4675045 -82.36276245 219.46595383 C-83.97715276 219.46479676 -83.97715276 219.46479676 -85.62415701 219.46361632 C-93.21960539 219.4592937 -100.81499208 219.46659796 -108.41043091 219.47835159 C-117.66295475 219.49235435 -126.91526642 219.48862358 -136.16776586 219.46194787 C-140.89132955 219.44877967 -145.61453912 219.44370824 -150.33810043 219.46019363 C-154.65851955 219.47504434 -158.97825484 219.46698645 -163.29861152 219.44030587 C-164.86516766 219.43470006 -166.43178105 219.43760819 -167.99830067 219.44968481 C-170.12160091 219.46480374 -172.2425327 219.4493923 -174.3657074 219.4260807 C-175.54674766 219.42526894 -176.72778791 219.42445718 -177.94461727 219.42362082 C-180.9375 218.796875 -180.9375 218.796875 -183.31489658 216.50112569 C-185.51710168 212.83090376 -185.53056636 209.50817687 -185.50390625 205.34765625 C-185.51010483 204.53499802 -185.51630341 203.72233978 -185.52268982 202.88505554 C-185.52977718 201.16793002 -185.52663284 199.45073563 -185.51391602 197.73364258 C-185.50013194 195.13425572 -185.534033 192.53853167 -185.57226562 189.93945312 C-185.65395024 172.79383277 -185.65395024 172.79383277 -179.9375 165.796875 C-174.24928097 161.17630917 -169.11923763 159.78382695 -161.875 159.046875 C-151.39273731 157.74933474 -144.40179677 154.40291291 -137.62890625 146.20703125 C-131.65713856 137.69760708 -130.08059913 129.04242883 -130.9375 118.796875 C-132.56453163 111.15915329 -136.11737933 105.95556053 -141.09765625 100.06640625 C-144.94906632 95.31551612 -146.67762129 90.43740996 -146.3034668 84.27783203 C-144.76693107 73.86137035 -136.62225288 66.76745001 -129.46411133 59.78149414 C-127.62521574 57.98458581 -125.80871337 56.16713718 -123.99414062 54.34570312 C-122.81375826 53.17581242 -121.63215743 52.00714956 -120.44921875 50.83984375 C-119.91560226 50.30642868 -119.38198578 49.77301361 -118.8321991 49.22343445 C-112.95236668 43.52221211 -106.87456217 39.02854379 -98.515625 38.60546875 C-91.88614119 39.0976577 -86.7430104 41.81945165 -81.9375 46.296875 C-74.81316826 52.86991916 -67.36900393 54.4083346 -57.83764648 54.26538086 C-48.46372903 53.83995008 -41.72007325 50.65295867 -34.98046875 44.17578125 C-28.24975489 36.33829609 -26.48037641 28.27402744 -25.40234375 18.22265625 C-24.65928752 12.74651919 -23.28647526 8.92643608 -19.15039062 5.17669678 C-12.80947113 0.55414455 -7.72529206 -0.08828654 0 0 Z M-9.4909668 16.61767578 C-11.57448238 19.75648761 -11.53338393 22.43432992 -11.75 26.171875 C-12.86879337 38.54516318 -18.53481002 49.53545355 -27.9375 57.796875 C-34.3641817 62.5633306 -41.37265284 65.34239048 -48.9375 67.796875 C-50.4225 68.291875 -50.4225 68.291875 -51.9375 68.796875 C-67.3863002 69.82231223 -79.28368815 67.28723388 -91.9375 57.796875 C-92.55625 57.0440625 -93.175 56.29125 -93.8125 55.515625 C-95.89761737 53.45800507 -95.89761737 53.45800507 -99.14477539 53.81591797 C-104.01555893 55.07570608 -106.28323455 57.25645269 -109.74609375 60.7734375 C-110.35767838 61.3769101 -110.969263 61.98038269 -111.59938049 62.60214233 C-112.88320023 63.8775261 -114.15945657 65.16056348 -115.4284668 66.45068359 C-117.3711018 68.41792742 -119.34596341 70.34801069 -121.32617188 72.27734375 C-122.572408 73.5239503 -123.81662083 74.77258353 -125.05859375 76.0234375 C-125.64910019 76.59663727 -126.23960663 77.16983704 -126.8480072 77.76040649 C-129.83640042 80.85343725 -130.86419097 82.17814359 -131.38745117 86.59448242 C-130.89176456 90.12238326 -130.36955806 91.10996394 -127.8125 93.484375 C-118.82558106 102.87233292 -115.379195 114.59488531 -115.62890625 127.30078125 C-116.78445989 140.39218007 -122.12574629 152.53856365 -131.625 161.671875 C-140.90717517 169.34217544 -149.83303164 172.41161949 -161.61499023 173.86083984 C-166.24437314 174.25130763 -166.24437314 174.25130763 -169.9375 176.796875 C-169.9375 186.036875 -169.9375 195.276875 -169.9375 204.796875 C-141.8875 204.796875 -113.8375 204.796875 -84.9375 204.796875 C-84.6075 198.856875 -84.2775 192.916875 -83.9375 186.796875 C-78.63874632 159.51810608 -66.15172402 135.02933885 -42.875 118.640625 C-24.60927838 107.00070436 -7.50822169 101.47848354 14.125 101.296875 C14.79933075 101.28625031 15.4736615 101.27562561 16.16842651 101.26467896 C42.10897767 100.95220866 65.96678714 112.58953599 84.75 130.046875 C104.70924955 151.24122662 111.4786923 176.28833643 113.0625 204.796875 C141.1125 204.796875 169.1625 204.796875 198.0625 204.796875 C198.0625 195.556875 198.0625 186.316875 198.0625 176.796875 C195.25614394 173.99051894 193.04276985 174.31166327 189.125 173.921875 C175.8529447 172.34126507 165.05424414 167.4568642 155.75 157.546875 C146.84568578 146.22346964 142.58878 132.06516414 144.0625 117.796875 C145.91536341 108.40021058 149.77130283 98.25899374 157.28125 91.92578125 C159.34132883 89.83962547 159.34132883 89.83962547 159.54125977 86.5871582 C158.89515408 81.47201755 156.78431221 79.51862544 153.18359375 76.0234375 C152.57870621 75.41422455 151.97381866 74.8050116 151.3506012 74.17733765 C150.07026971 72.89662561 148.78120642 71.62459101 147.48413086 70.36083984 C145.50784625 68.42954264 143.56855432 66.4660221 141.63085938 64.49609375 C140.37966972 63.25312566 139.12647728 62.01216968 137.87109375 60.7734375 C137.29475693 60.18809235 136.7184201 59.60274719 136.12461853 58.99966431 C132.29677832 55.32315083 129.58458997 53.87933193 124.0625 53.796875 C121.89287993 54.97673644 121.89287993 54.97673644 120.25 56.921875 C111.67953378 65.21161304 100.38257581 68.89816625 88.625 69.171875 C74.43806686 68.84360592 62.64912825 64.00311688 52.32421875 54.26171875 C44.49713113 45.73168026 40.76553158 35.85865095 39.97851562 24.49414062 C39.69100169 21.44184627 39.31511559 19.17781134 37.60717773 16.60229492 C33.7649694 13.87629179 30.22936708 14.22352338 25.625 14.265625 C24.7079126 14.2617981 23.7908252 14.25797119 22.84594727 14.25402832 C20.90933127 14.25130951 18.97267853 14.25866854 17.03613281 14.27539062 C14.07273447 14.29680106 11.11176049 14.27558831 8.1484375 14.25 C6.26561965 14.25264328 4.38280331 14.25776827 2.5 14.265625 C1.61449463 14.25752808 0.72898926 14.24943115 -0.18334961 14.24108887 C-5.170217 14.30235554 -5.170217 14.30235554 -9.4909668 16.61767578 Z M-46.9375 140.796875 C-47.62457031 141.45945313 -48.31164062 142.12203125 -49.01953125 142.8046875 C-65.30371333 159.69912492 -69.9375 181.01436776 -69.9375 203.796875 C-14.4975 203.796875 40.9425 203.796875 98.0625 203.796875 C98.0625 177.39243732 91.59986835 158.03092886 73.5 138.734375 C56.62844851 122.5077605 35.17563836 114.20684622 11.76123047 114.4453125 C-11.35262604 115.1578784 -30.57432847 124.73929751 -46.9375 140.796875 Z " fill="#1F4571" transform="translate(241.9375,7.203125)"/>
<path d="M0 0 C7.26801442 5.79675644 11.67111893 14.14201088 12.75 23.3125 C13.43344023 33.56410348 10.43711277 42.45987737 3.75 50.3125 C-1.60981629 55.51081523 -7.01906979 58.51758825 -14.25 60.3125 C-13.23421875 60.53164063 -12.2184375 60.75078125 -11.171875 60.9765625 C6.07107835 64.87189668 21.24020682 72.54824144 31.75 87.3125 C39.91120767 100.77570409 44.33220899 114.38129227 42.75 130.3125 C41.07504163 137.01233348 36.38840717 141.58274619 30.75 145.3125 C14.57695858 153.88179807 -2.64182051 155.54833737 -20.625 155.5625 C-21.38977661 155.56317474 -22.15455322 155.56384949 -22.94250488 155.56454468 C-42.58605311 155.53694528 -63.83498844 154.03419589 -79.25 140.3125 C-85.50726081 133.27308159 -85.84837448 126.41881431 -85.42480469 117.38964844 C-84.04107963 100.94728421 -75.50490698 86.06758696 -63.25 75.3125 C-53.0235013 67.03097487 -41.27406898 62.21846131 -28.25 60.3125 C-28.79527344 60.17714844 -29.34054688 60.04179687 -29.90234375 59.90234375 C-39.2055739 57.24654984 -45.97609633 51.959876 -51.03125 43.703125 C-55.52145942 34.89540651 -56.43555344 26.26834223 -54.06640625 16.67578125 C-50.80035395 7.22141934 -44.83109531 0.57138271 -36.0625 -4 C-24.01642084 -9.81450257 -10.72190969 -7.26257656 0 0 Z " fill="#1F4671" transform="translate(277.25,348.6875)"/>
<path d="M0 0 C7.81445062 5.49698461 13.30655583 12.0841925 15.60546875 21.47265625 C17.14741305 31.35025981 16.12918453 40.96569452 10.25 49.25 C4.42436361 56.3321462 -1.31301458 60.02859654 -10 63 C-9.07960938 63.20753906 -8.15921875 63.41507812 -7.2109375 63.62890625 C10.26523242 67.88227144 25.25720013 75.75837924 35.69921875 90.8515625 C43.93075231 104.4471885 48.08663824 118.07186123 46 134 C44.90850754 137.38120109 43.50357773 139.50916312 41 142 C40.50371094 142.53496094 40.00742187 143.06992187 39.49609375 143.62109375 C22.96077291 159.59859654 -5.17711203 158.51819201 -26.4296875 158.28125 C-43.96512836 157.97357543 -61.97291793 154.45178463 -75.625 142.75 C-80.86824051 136.67887941 -82.6885014 131.47643704 -82.3828125 123.40625 C-80.29906939 104.86518884 -72.58616842 88.867433 -58.1875 76.6875 C-47.97757203 69.01829143 -37.27819177 65.64884848 -25 63 C-25.6290625 62.78085937 -26.258125 62.56171875 -26.90625 62.3359375 C-37.00853241 58.59322444 -43.92392561 53.6995052 -49 44 C-52.3813904 35.70864545 -52.50728801 24.85777123 -49.3125 16.4375 C-48.58777463 14.93520469 -47.81940328 13.45282357 -47 12 C-46.4740625 11.03513672 -46.4740625 11.03513672 -45.9375 10.05078125 C-41.84812218 3.50493689 -34.61186871 -1.1120626 -27.3515625 -3.52734375 C-17.98269181 -5.41045563 -8.39678228 -4.67748682 0 0 Z " fill="#1F4571" transform="translate(458,346)"/>
<path d="M0 0 C7.20100863 5.28641254 12.46497081 12.06892107 14 21 C14.74081874 29.92640852 14.99866162 38.20521203 10 46 C9.5875 46.69480469 9.175 47.38960938 8.75 48.10546875 C3.77355869 55.64081881 -3.5460171 59.37041811 -12 62 C-10.98421875 62.21914063 -9.9684375 62.43828125 -8.921875 62.6640625 C8.85443478 66.67484917 24.56740475 74.7577386 34.58203125 90.55859375 C35.04996094 91.36425781 35.51789063 92.16992188 36 93 C36.45761719 93.75410156 36.91523437 94.50820313 37.38671875 95.28515625 C43.09519885 105.5535634 46.73450629 119.24390183 45 131 C42.48088327 139.06925627 36.26699841 144.93048089 29 149 C5.03549945 159.67193832 -27.70322065 160.87765413 -53 154 C-54.09441406 153.70996094 -55.18882813 153.41992188 -56.31640625 153.12109375 C-67.23668624 149.85457696 -75.74514009 144.82792924 -82.1328125 135.3125 C-86.44013989 123.82629362 -82.27712546 108.7871245 -77.78515625 98.11328125 C-70.29084417 82.88570802 -55.9204112 70.6114667 -40 65 C-35.6950058 63.83572676 -31.37620473 62.85576023 -27 62 C-27.60585938 61.81566406 -28.21171875 61.63132812 -28.8359375 61.44140625 C-38.18116719 58.20651905 -45.45464546 52.62144408 -50.0625 43.75 C-54.19243238 34.75527184 -54.19660901 24.65799199 -51.0390625 15.34765625 C-47.2750476 6.84324665 -40.4711273 0.2036179 -31.9375 -3.375 C-20.73011537 -7.01356186 -10.20553878 -5.77958977 0 0 Z " fill="#1F4571" transform="translate(91,347)"/>
<path d="M0 0 C3.10205807 4.0034331 3.35664394 7.06289149 3.29296875 12.05078125 C3.28872391 12.70958786 3.28447906 13.36839447 3.28010559 14.04716492 C3.26341196 16.13603885 3.22578058 18.22392139 3.1875 20.3125 C3.17244097 21.73501203 3.15875469 23.1575393 3.14648438 24.58007812 C3.11354003 28.05370351 3.06182408 31.52675487 3 35 C3.9352139 34.99631283 4.8704278 34.99262566 5.83398151 34.98882675 C28.56732414 34.90011289 51.30064438 34.83433716 74.03412342 34.79275131 C85.02777564 34.77210727 96.02131365 34.74395152 107.01489258 34.69824219 C116.59450803 34.65843078 126.1740408 34.6325806 135.75373667 34.62364602 C140.82831249 34.61842161 145.90265172 34.60610421 150.97715187 34.57707977 C155.7500611 34.55000061 160.52263549 34.54153976 165.29561424 34.54756927 C167.05044751 34.54646567 168.80529158 34.53846721 170.56005859 34.5231781 C172.95039251 34.50336686 175.33945111 34.50802743 177.72981262 34.51898193 C178.77893372 34.50150488 178.77893372 34.50150488 179.84924918 34.48367476 C183.03258524 34.52329139 184.59632982 34.60907486 186.92973614 36.86880875 C188.28210744 39.5617539 188.39388586 41.51954299 188.41992188 44.53125 C188.43583374 45.63919922 188.45174561 46.74714844 188.46813965 47.88867188 C188.46844177 49.6762793 188.46844177 49.6762793 188.46875 51.5 C188.47636353 52.72783203 188.48397705 53.95566406 188.49182129 55.22070312 C188.50262564 57.81638556 188.50547406 60.41211148 188.50097656 63.0078125 C188.50000364 66.98510924 188.54163903 70.96048155 188.5859375 74.9375 C188.59114384 77.4583293 188.5938327 79.97916532 188.59375 82.5 C188.61014526 83.69173828 188.62654053 84.88347656 188.64343262 86.11132812 C188.57458758 94.30835781 188.57458758 94.30835781 185.68945312 97.78125 C181.99333669 99.45617858 179.85704024 99.14282674 176 98 C166.38126827 85.17502437 173 66.03121954 173 50 C116.9 50 60.8 50 3 50 C3 63.86 3 77.72 3 92 C1 97 1 97 -0.75 98.375 C-3.83916317 99.23310088 -5.92723121 98.84991477 -9 98 C-11.52737004 96.08268479 -11.9716847 95.08494591 -13 92 C-13 78.14 -13 64.28 -13 50 C-68.77 50 -124.54 50 -182 50 C-182 64.85 -182 79.7 -182 95 C-187 99 -187 99 -190.625 99 C-194.41220262 97.87786589 -195.08100301 97.32190306 -197 94 C-197.3742218 91.49584961 -197.3742218 91.49584961 -197.37231445 88.65234375 C-197.37854324 87.58443604 -197.38477203 86.51652832 -197.39118958 85.41625977 C-197.38197983 84.26826904 -197.37277008 83.12027832 -197.36328125 81.9375 C-197.36377975 80.75406006 -197.36427826 79.57062012 -197.36479187 78.35131836 C-197.36245186 75.84975505 -197.35272772 73.34818937 -197.33618164 70.84667969 C-197.31259087 67.01476008 -197.31562144 63.18353626 -197.32226562 59.3515625 C-197.3166888 56.92187085 -197.3095789 54.49218213 -197.30078125 52.0625 C-197.30169266 50.91450928 -197.30260406 49.76651855 -197.30354309 48.58374023 C-197.29401108 47.51583252 -197.28447906 46.4479248 -197.2746582 45.34765625 C-197.27005081 44.40929932 -197.26544342 43.47094238 -197.26069641 42.50415039 C-196.98510367 39.85691158 -196.43078261 38.2320863 -195 36 C-192.07245599 34.536228 -189.13422059 34.86629056 -185.92599487 34.87974548 C-185.1892466 34.87889106 -184.45249832 34.87803663 -183.69342434 34.87715632 C-181.2120958 34.8755025 -178.73083409 34.88102129 -176.24951172 34.88647461 C-174.47584027 34.88675653 -172.7021687 34.88659866 -170.92849731 34.8860321 C-166.10231323 34.88574431 -161.27615382 34.8916381 -156.44997549 34.89860606 C-151.41042804 34.90484264 -146.37088006 34.90544364 -141.33132935 34.90663147 C-131.78324569 34.90974388 -122.23517344 34.91795607 -112.68709481 34.92798096 C-101.81905844 34.93914487 -90.95102154 34.94465325 -80.08298087 34.94967639 C-57.72198092 34.96013875 -35.3609911 34.97773647 -13 35 C-13.02356567 33.67609253 -13.02356567 33.67609253 -13.04760742 32.32543945 C-13.09887998 29.03599114 -13.13641917 25.74697039 -13.16479492 22.45727539 C-13.1798376 21.03630859 -13.20027704 19.61538787 -13.22631836 18.19458008 C-13.26290347 16.14653114 -13.27977097 14.0990985 -13.29296875 12.05078125 C-13.31653442 10.20480347 -13.31653442 10.20480347 -13.34057617 8.3215332 C-12.97111984 4.71834076 -12.14027884 2.88395449 -10 0 C-6.43706227 -2.8257782 -3.9156772 -1.91618246 0 0 Z " fill="#1E4570" transform="translate(261,233)"/>
<path d="M0 0 C10.56180763 8.58683547 18.54772775 20.12561332 20 34 C20.0928125 34.78246094 20.185625 35.56492187 20.28125 36.37109375 C20.66352396 42.19121477 20.66352396 42.19121477 17.89453125 45.56640625 C1.91735929 58.99930521 -23.488903 58.04411966 -43 57 C-55.4946487 55.77366598 -67.45255539 53.19407329 -77.7734375 45.71484375 C-80.81641417 41.46049101 -79.52642659 34.92334198 -79 30 C-75.79164167 17.36619787 -68.56917124 6.62420093 -58 -1 C-39.8034751 -11.80268629 -17.81119492 -12.59690307 0 0 Z " fill="#A2D2FD" transform="translate(470,433)"/>
<path d="M0 0 C0.77730469 0.24492187 1.55460937 0.48984375 2.35546875 0.7421875 C13.99655438 4.82107952 23.45835208 13.60606144 29.3125 24.42578125 C30.30585688 26.59874943 31.19453008 28.75106419 32 31 C32.350625 31.93328125 32.70125 32.8665625 33.0625 33.828125 C34.75343669 39.54912746 34.9720597 45.11868917 34 51 C29.69154566 58.05626114 18.57101493 60.03968289 11 62 C-12.08359332 67.55502932 -39.72860606 65.91348358 -60.70703125 54.53125 C-63 53 -63 53 -65 50 C-66.02434292 37.09327923 -61.81395478 25.05502887 -53.62109375 15.11328125 C-39.87099781 0.44250931 -19.65717585 -6.85440601 0 0 Z " fill="#A2D2FD" transform="translate(87,426)"/>
<path d="M0 0 C5.5155556 4.73233021 9.89440063 9.59997721 13.36328125 15.9921875 C13.84925781 16.88550781 14.33523438 17.77882813 14.8359375 18.69921875 C18.64654704 26.62825866 19.79848201 34.31812746 18.36328125 42.9921875 C16.09004687 46.04310733 15.58822262 46.61280664 12.36328125 47.9921875 C11.57824219 48.353125 10.79320312 48.7140625 9.984375 49.0859375 C-10.66269232 57.91216475 -35.9571195 58.69923148 -57.69921875 53.8046875 C-58.57199463 53.60866943 -59.44477051 53.41265137 -60.34399414 53.21069336 C-67.29481144 51.45190653 -74.93053823 48.67600652 -79.63671875 42.9921875 C-81.54796358 30.13906601 -77.67477238 19.46692175 -70.21484375 9.01171875 C-62.7325107 -0.56344508 -52.57481731 -7.18371075 -40.57421875 -9.6328125 C-25.71791079 -11.04769897 -12.14852134 -9.25087403 0 0 Z " fill="#A3D3FE" transform="translate(286.63671875,434.0078125)"/>
<path d="M0 0 C3.90387701 2.95171189 7.35807825 6.52865649 9.5625 10.9375 C10.06384255 17.37782357 10.54198918 23.54593401 6.5625 28.9375 C2.14386112 33.35613888 -2.19045596 37.19564669 -8.6875 37.3125 C-14.33716337 37.16382465 -18.81757829 35.36458483 -22.9765625 31.51171875 C-27.44328021 26.45727502 -28.94018652 21.89540486 -28.7421875 15.2734375 C-27.99100658 9.51438375 -25.27178143 5.29384391 -21 1.4375 C-14.76632433 -2.85473071 -6.95984373 -2.15122442 0 0 Z " fill="#A1D1FC" transform="translate(449.4375,358.0625)"/>
<path d="M0 0 C5.7287763 2.0799313 9.09825646 5.66079189 12 11 C13.84152373 16.52457118 13.8169855 21.91005661 11.375 27.25 C8.73330656 31.93597212 5.36891878 34.65547853 0.6875 37.3125 C-5.08635858 38.78953359 -10.00244522 38.96004638 -15.25 35.875 C-19.7062132 32.74408773 -23.24646046 29.26061863 -25 24 C-25.48514482 18.48843667 -25.76737316 13.62328938 -23.375 8.5625 C-16.12154887 0.736408 -10.7342037 -1.10480693 0 0 Z " fill="#A1D1FC" transform="translate(78,357)"/>
<path d="M0 0 C5.13284288 2.70499711 8.51278557 7.00410235 10.74609375 12.265625 C11.72669047 18.91303859 11.15472332 24.13709308 7.16796875 29.61328125 C2.67887076 34.83000777 -1.83998073 36.88629994 -8.62890625 37.640625 C-14.56336499 37.02671548 -19.20287789 34.81519904 -23.12890625 30.265625 C-27.38341543 24.25925909 -28.23025727 19.60859833 -27.25390625 12.265625 C-25.38022111 7.29701352 -21.94094347 3.00394952 -17.47265625 0.11328125 C-12.01833253 -1.97050088 -5.52044616 -1.79868956 0 0 Z " fill="#A2D2FD" transform="translate(264.25390625,357.734375)"/>
</svg>
