<?xml version="1.0" encoding="UTF-8"?>
<svg version="1.1" xmlns="http://www.w3.org/2000/svg" width="512" height="512">
<path d="M0 0 C1.07893115 -0.00872064 1.07893115 -0.00872064 2.17965889 -0.01761746 C4.60277527 -0.03227748 7.02488816 -0.01830507 9.44799805 -0.00457001 C11.19752014 -0.00917657 12.94703837 -0.01552783 14.69654846 -0.02347898 C19.51416062 -0.04022911 24.33145721 -0.03190021 29.14907074 -0.01953411 C34.34069494 -0.01050912 39.53226366 -0.02444064 44.72387695 -0.0354538 C54.89820818 -0.05327094 65.0724216 -0.04938482 75.24675751 -0.03780323 C83.51322906 -0.02878173 91.77966752 -0.02753934 100.04614258 -0.0318985 C101.22119889 -0.03251143 102.39625521 -0.03312436 103.60691929 -0.03375587 C105.99377824 -0.03503473 108.38063718 -0.03633158 110.76749611 -0.03764623 C133.16637097 -0.04906139 155.56518043 -0.03592365 177.96404457 -0.01444477 C197.19700975 0.00342705 216.42987836 0.0003232 235.6628418 -0.01811981 C257.97976777 -0.03951 280.29663637 -0.04796267 302.61357117 -0.03567076 C304.99181111 -0.03439652 307.37005106 -0.03313903 309.74829102 -0.0318985 C311.50365095 -0.03097285 311.50365095 -0.03097285 313.29447269 -0.03002849 C321.55415788 -0.02657003 329.81380677 -0.0324146 338.07348633 -0.04181671 C348.13478915 -0.05301751 358.1959671 -0.05003711 368.25725555 -0.02869374 C373.39392472 -0.01815746 378.53038544 -0.01410528 383.66705322 -0.02729034 C388.36485632 -0.03916683 393.0622568 -0.03273048 397.76002312 -0.01138014 C399.46386248 -0.00689386 401.16773552 -0.00922543 402.87155342 -0.01888329 C405.17967046 -0.03096785 407.48639072 -0.01865515 409.79443359 0 C411.07875778 0.00064941 412.36308197 0.00129882 413.68632507 0.00196791 C417.45999567 0.59124527 418.65252577 1.46426083 420.8972168 4.50336456 C421.39105892 7.38387108 421.39105892 7.38387108 421.3825531 10.79044342 C421.38924011 12.08305084 421.39592712 13.37565826 421.40281677 14.70743561 C421.39012973 16.13795004 421.37710256 17.56846148 421.36376953 18.99897003 C421.36431831 20.50704872 421.36669326 22.01512768 421.37075806 23.52320099 C421.37593533 26.76994757 421.36885998 30.0163566 421.35250664 33.26306534 C421.32740349 38.39828908 421.33366817 43.53317902 421.34498596 48.66843414 C421.36819517 61.4243206 421.34976643 74.18011116 421.32348633 86.93598175 C421.30353857 96.84755647 421.2949668 106.75886477 421.32042271 116.67043984 C421.33223574 121.77376051 421.32059056 126.87632263 421.29117 131.97956443 C421.27790064 135.15716715 421.28534224 138.33447672 421.29845047 141.5120697 C421.30030478 142.9834454 421.29361058 144.45486101 421.27764702 145.92615128 C420.83894909 154.66128422 420.83894909 154.66128422 424.35319519 162.28105927 C425.19272232 163.01442001 426.03224945 163.74778076 426.8972168 164.50336456 C429.43398807 169.01249218 429.1553815 173.48579784 429.0925293 178.52289581 C429.08828445 179.81075233 429.08828445 179.81075233 429.08395386 181.12462616 C429.0727975 183.85518331 429.04770139 186.58540727 429.0222168 189.31586456 C429.01218112 191.1719796 429.00305629 193.02809981 428.99487305 194.88422394 C428.97287305 199.42406502 428.9383746 203.96365838 428.8972168 208.50336456 C429.92782227 208.48596222 430.95842773 208.46855988 432.02026367 208.45063019 C433.38549396 208.43655565 434.75072867 208.42290617 436.1159668 208.40961456 C436.79369141 208.3970462 437.47141602 208.38447784 438.16967773 208.37152863 C445.01070823 208.3215941 448.9659132 209.70636372 453.8581543 214.37445831 C460.33098764 221.36247636 461.25987625 227.01726491 461.2722168 236.31586456 C461.29670898 237.27557159 461.32120117 238.23527863 461.34643555 239.22406769 C461.37726866 246.752487 459.93248661 252.03965706 454.93237305 257.74555206 C454.28139648 258.28438019 453.63041992 258.82320831 452.9597168 259.37836456 C452.31131836 259.93266144 451.66291992 260.48695831 450.99487305 261.05805206 C446.13902109 264.40379736 441.86630918 264.77221279 436.0847168 264.62836456 C435.3918457 264.61934113 434.69897461 264.61031769 433.98510742 264.60102081 C432.28899284 264.57762613 430.59305809 264.54176097 428.8972168 264.50336456 C428.93202148 265.74730988 428.96682617 266.99125519 429.00268555 268.27289581 C429.39988911 288.01192691 424.34198887 304.66694136 410.50268555 319.21430206 C407.90547918 321.49610556 405.34576362 323.01567446 402.3347168 324.69086456 C399.86230241 326.11379596 399.86230241 326.11379596 397.8972168 328.50336456 C397.4105937 331.39304216 397.16144561 333.85052099 397.11987305 336.74164581 C397.07836121 337.86053192 397.07836121 337.86053192 397.03601074 339.00202179 C396.97072263 340.835224 396.93140478 342.66931874 396.8972168 344.50336456 C398.08162354 344.4824173 399.26603027 344.46147003 400.48632812 344.439888 C404.92744611 344.36687786 409.36851228 344.32134533 413.81005859 344.283638 C415.72356114 344.26366037 417.63700372 344.23646857 419.55029297 344.20160675 C434.58544907 343.93473371 446.47762824 344.60186698 457.8972168 355.50336456 C469.97004767 368.14995373 469.4984794 382.0378604 469.4284668 398.53070831 C469.43116448 400.76985085 469.4350492 403.00899225 469.44006348 405.2481308 C469.44593693 409.92064413 469.4374593 414.59285004 469.41870117 419.26532745 C469.39582037 425.25662414 469.40910628 431.24720761 469.43299103 437.23847866 C469.44742822 441.85297296 469.44285411 446.4672973 469.43247986 451.08179665 C469.42981162 453.2918233 469.4330857 455.50186537 469.44239807 457.71187401 C469.45253931 460.79244741 469.4371001 463.87185298 469.41479492 466.95233917 C469.42289185 467.86510117 469.43098877 468.77786316 469.43933105 469.71828461 C469.42805176 470.55771606 469.41677246 471.39714752 469.40515137 472.2620163 C469.40288921 473.35226813 469.40288921 473.35226813 469.40058136 474.46454525 C468.63668178 477.55863119 467.48498873 478.65335347 464.8972168 480.50336456 C462.08406126 480.89621957 459.66233417 481.04414905 456.8503418 481.01129913 C455.62438293 481.02065908 455.62438293 481.02065908 454.37365723 481.03020811 C451.63121816 481.04618058 448.88966268 481.03351746 446.1472168 481.02094269 C444.18269328 481.02636192 442.21817383 481.03348346 440.25366211 481.04218292 C434.91485664 481.06044279 429.57635981 481.05333769 424.23754883 481.04066658 C418.65534624 481.03055274 413.0731704 481.03992776 407.4909668 481.04621124 C398.11591844 481.05349235 388.74099604 481.04388774 379.3659668 481.02484894 C368.52089341 481.00307937 357.67612079 481.01013041 346.83105469 481.03215456 C337.52650372 481.05029531 328.2220434 481.05287336 318.91748047 481.04239988 C313.35729033 481.03615768 307.79724165 481.03534933 302.23706055 481.04854584 C297.01015108 481.06008439 291.78363011 481.05211499 286.5567627 481.02896881 C284.63627773 481.02367106 282.71576017 481.02521364 280.79528809 481.03401947 C278.17777842 481.04491657 275.5615212 481.03128267 272.9440918 481.01129913 C271.79837708 481.02468346 271.79837708 481.02468346 270.6295166 481.03833818 C267.20519778 480.98746916 265.23453557 480.74663328 262.42435074 478.71997452 C260.80090117 476.36356401 260.40081725 475.34448107 260.41619873 472.52967072 C260.41070007 471.75006989 260.40520142 470.97046906 260.39953613 470.16724396 C260.42110779 468.8984137 260.42110779 468.8984137 260.44311523 467.6039505 C260.44253113 466.7060379 260.44194702 465.80812531 260.44134521 464.88300323 C260.44413012 461.91752097 260.47524146 458.95304605 260.5065918 455.98773956 C260.51405274 453.93079935 260.51974636 451.87385202 260.52374268 449.81690216 C260.53901052 444.40473534 260.57830254 438.99299835 260.62255859 433.58100128 C260.66348631 428.05778569 260.68174837 422.53450061 260.7019043 417.01117706 C260.74479556 406.17502039 260.8151551 395.33929548 260.8972168 384.50336456 C250.3372168 384.50336456 239.7772168 384.50336456 228.8972168 384.50336456 C229.05501841 390.90591113 229.05501841 390.90591113 229.25756836 397.3070755 C229.26755859 398.10919464 229.27754883 398.91131378 229.2878418 399.73773956 C229.30878906 400.55468292 229.32973633 401.37162628 229.35131836 402.2133255 C228.8972168 404.50336456 228.8972168 404.50336456 227.51342773 406.78559113 C223.41940291 409.47367984 219.42488194 408.92734116 214.6472168 408.75336456 C213.71135742 408.73531769 212.77549805 408.71727081 211.8112793 408.69867706 C209.50554664 408.65162129 207.20190735 408.58590169 204.8972168 408.50336456 C204.90609924 409.3463913 204.91498169 410.18941803 204.9241333 411.05799103 C205.0042873 419.00340649 205.0651852 426.94868614 205.10446548 434.89441299 C205.12533891 438.97940826 205.15365143 443.06406941 205.19897461 447.14887238 C205.2424421 451.09110802 205.26635575 455.03302233 205.27672577 458.97547913 C205.28411561 460.47941141 205.29854646 461.98332613 205.32013702 463.48712158 C205.34918492 465.59415916 205.35317251 467.69986985 205.35131836 469.8070755 C205.36020081 471.00620575 205.36908325 472.205336 205.37823486 473.44080353 C204.79859812 477.1312531 203.86917869 478.30287607 200.8972168 480.50336456 C197.5690918 481.02094269 197.5690918 481.02094269 193.6472168 481.03461456 C192.95208984 481.03844147 192.25696289 481.04226837 191.54077148 481.04621124 C190.07493639 481.04892636 188.60905252 481.04159291 187.14331055 481.02484894 C184.90392705 481.00342875 182.66775093 481.02465899 180.4284668 481.05023956 C179.00137641 481.04759621 177.57428801 481.04247106 176.1472168 481.03461456 C174.85299805 481.03010284 173.5587793 481.02559113 172.2253418 481.02094269 C168.36593458 480.42074145 167.19558335 479.60238012 164.8972168 476.50336456 C163.9909668 473.37836456 163.9909668 473.37836456 163.3972168 469.50336456 C163.22838989 468.43336212 163.22838989 468.43336212 163.05615234 467.34174347 C162.65167833 464.73141553 162.27540036 462.11762997 161.8972168 459.50336456 C161.5395957 457.13610876 161.18149132 454.76892594 160.82299805 452.40180206 C160.45025154 449.89423469 160.07916074 447.38642064 159.7097168 444.87836456 C159.53053711 443.66922394 159.35135742 442.46008331 159.16674805 441.21430206 C159.00174805 440.05930206 158.83674805 438.90430206 158.66674805 437.71430206 C158.51826416 436.68611359 158.36978027 435.65792511 158.21679688 434.59857941 C157.86739225 431.21450615 157.87667877 427.9033252 157.8972168 424.50336456 C145.5124526 424.39505219 135.95219842 427.63967112 124.65112305 432.38227081 C122.94388297 433.07816892 121.23568613 433.77172391 119.52659607 434.4630661 C115.06871832 436.27141241 110.620841 438.1030012 106.17572021 439.94245148 C99.04090459 442.8936058 91.89663978 445.82104229 84.74235344 448.72466087 C82.26001145 449.73832806 79.78553589 450.7696136 77.31117249 451.80257416 C75.78358708 452.42694218 74.25572365 453.05063055 72.72753906 453.67353058 C72.05050934 453.96183243 71.37347961 454.25013428 70.67593384 454.54717255 C65.79975882 456.50628312 62.05905848 456.87337989 56.8972168 456.50336456 C54.42163086 455.12934113 54.42163086 455.12934113 52.8972168 452.50336456 C52.36832707 449.15531256 52.43245233 445.86987363 52.5065918 442.48773956 C52.51225159 441.51677338 52.51791138 440.54580719 52.52374268 439.54541779 C52.54611368 436.44756287 52.59631207 433.35086923 52.6472168 430.25336456 C52.66728083 428.15181878 52.68553177 426.05025485 52.7019043 423.94867706 C52.74598099 418.79979287 52.81501421 413.65177553 52.8972168 408.50336456 C51.86661133 408.52076691 50.83600586 408.53816925 49.77416992 408.55609894 C48.40893964 408.57017348 47.04370493 408.58382295 45.6784668 408.59711456 C45.00074219 408.60968292 44.32301758 408.62225128 43.62475586 408.6352005 C36.78372536 408.68513503 32.8285204 407.30036541 27.9362793 402.63227081 C22.39344388 396.64827095 20.81122167 392.69201204 20.8972168 384.50336456 C20.06996094 384.52431183 19.24270508 384.54525909 18.39038086 384.56684113 C14.64278309 384.64998076 10.89537931 384.70201987 7.1472168 384.75336456 C5.19428711 384.803638 5.19428711 384.803638 3.2019043 384.85492706 C1.95151367 384.86781769 0.70112305 384.88070831 -0.5871582 384.89398956 C-1.73925781 384.91493683 -2.89135742 384.93588409 -4.07836914 384.95746613 C-7.85500864 384.39042145 -8.78045709 383.48901863 -11.1027832 380.50336456 C-11.60417986 377.60025024 -11.60417986 377.60025024 -11.60614777 374.15021515 C-11.61657876 372.83496101 -11.62700974 371.51970688 -11.63775682 370.16459656 C-11.62910822 368.70134515 -11.62008158 367.23809594 -11.61071777 365.77484894 C-11.61532492 364.22331659 -11.62167658 362.6717886 -11.62962675 361.12026978 C-11.64636901 356.84991965 -11.63805164 352.57992576 -11.62568188 348.30957413 C-11.61665365 343.7069097 -11.63059001 339.10430771 -11.64160156 334.50165558 C-11.65941524 325.48236597 -11.65553414 316.46320929 -11.643951 307.44391441 C-11.63492814 300.11565685 -11.6336877 292.78743663 -11.63804626 285.45917511 C-11.6386592 284.41733613 -11.63927213 283.37549716 -11.63990363 282.30208731 C-11.6411825 280.18580436 -11.64247935 278.06952142 -11.643794 275.95323849 C-11.65520814 256.0952463 -11.64207301 236.23732789 -11.62059253 216.3793478 C-11.6027208 199.32950393 -11.60582468 182.27976897 -11.62426758 165.22992706 C-11.64565956 145.44440923 -11.65410943 125.65895612 -11.64181852 105.87342834 C-11.64054429 103.76480358 -11.63928681 101.6561788 -11.63804626 99.54755402 C-11.63742916 98.50999135 -11.63681206 97.47242869 -11.63617626 96.40342474 C-11.63271834 89.08149764 -11.63856121 81.75961149 -11.64796448 74.43769073 C-11.65916728 65.5182334 -11.65618069 56.59891692 -11.6348415 47.67947578 C-11.62430788 43.12607442 -11.62024846 38.57290814 -11.63343811 34.01950836 C-11.64532021 29.8546084 -11.63886915 25.69016237 -11.6175279 21.52530384 C-11.61304399 20.01527259 -11.61536802 18.50520333 -11.62503105 16.99519634 C-11.63712521 14.94899495 -11.62237551 12.90268677 -11.60614777 10.85651398 C-11.60549836 9.7180024 -11.60484895 8.57949081 -11.60417986 7.40647888 C-11.1027832 4.50336456 -11.1027832 4.50336456 -9.51524687 2.13775301 C-6.21835297 -0.0958165 -3.97132924 0.00200807 0 0 Z M4.8972168 80.50336456 C4.8972168 175.54336456 4.8972168 270.58336456 4.8972168 368.50336456 C25.38211372 370.85070736 25.38211372 370.85070736 32.8972168 363.50336456 C37.01231842 361.30774569 41.12614325 361.08890191 45.7097168 360.87836456 C46.40258789 360.83969269 47.09545898 360.80102081 47.80932617 360.76117706 C49.50488694 360.66762888 51.20101392 360.58444093 52.8972168 360.50336456 C52.91179932 359.18618439 52.92638184 357.86900421 52.94140625 356.51190948 C52.99932393 351.63077219 53.07655715 346.75009938 53.15966797 341.86933136 C53.19294807 339.7558012 53.22097032 337.64218151 53.24365234 335.52851105 C53.27714152 332.49239651 53.32945444 329.45710481 53.38549805 326.42133331 C53.39508293 325.00088966 53.39508293 325.00088966 53.40486145 323.55175018 C53.42465561 322.67106369 53.44444977 321.7903772 53.46484375 320.88300323 C53.47594681 320.1080098 53.48704987 319.33301636 53.49848938 318.53453827 C53.8972168 316.50336456 53.8972168 316.50336456 54.92424011 314.72963715 C58.10043022 312.75552621 61.31677805 313.0329562 64.8972168 313.50336456 C68.43014526 314.67351532 68.43014526 314.67351532 72.04516602 316.33319855 C73.43473905 316.95695096 74.82440739 317.58049111 76.2141571 318.20384979 C76.94282171 318.53704412 77.67148632 318.87023846 78.42223167 319.21352959 C82.39320705 321.01802003 86.39707794 322.74653343 90.39990234 324.4789505 C91.24103608 324.84325763 92.08216982 325.20756475 92.94879246 325.58291149 C127.26539139 340.39764338 155.9291549 349.26232977 193.70625305 345.80239105 C194.61836044 345.72337051 195.53046783 345.64434998 196.47021484 345.56293488 C197.2586528 345.48053558 198.04709076 345.39813629 198.85942078 345.31324005 C200.8972168 345.50336456 200.8972168 345.50336456 202.641922 346.81726837 C204.5161099 349.334654 204.41836171 351.59665987 204.5847168 354.69086456 C204.65045898 355.77754425 204.71620117 356.86422394 204.78393555 357.98383331 C204.82131836 358.81527863 204.85870117 359.64672394 204.8972168 360.50336456 C205.48736572 360.51794708 206.07751465 360.5325296 206.68554688 360.54755402 C209.36092909 360.622053 212.03506572 360.71870452 214.7097168 360.81586456 C215.63848633 360.83842316 216.56725586 360.86098175 217.52416992 360.88422394 C218.4168457 360.91967316 219.30952148 360.95512238 220.22924805 360.99164581 C221.46251831 361.03092194 221.46251831 361.03092194 222.72070312 361.07099152 C225.40633142 361.6045022 226.27947294 362.3162246 227.8972168 364.50336456 C228.5847168 366.69086456 228.5847168 366.69086456 228.8972168 368.50336456 C233.75312344 368.77664069 238.60451083 368.97543323 243.46630859 369.10761261 C245.11684123 369.16272194 246.7668417 369.23764395 248.41552734 369.33319855 C253.75723999 369.63488996 258.66334568 369.72071388 263.8972168 368.50336456 C267.39554584 365.26092965 268.96152368 361.79130701 270.8972168 357.50336456 C276.45147142 351.14499598 285.43733409 346.00498608 293.93475342 345.34514618 C294.65423157 345.3296019 295.37370972 345.31405762 296.11499023 345.2980423 C296.93553894 345.27809708 297.75608765 345.25815186 298.60150146 345.23760223 C299.91577118 345.21253349 299.91577118 345.21253349 301.2565918 345.18695831 C302.16096985 345.16617722 303.0653479 345.14539612 303.99713135 345.12398529 C306.88041735 345.05870516 309.76379289 344.99970505 312.6472168 344.94086456 C314.60425723 344.89765886 316.56128868 344.85404391 318.51831055 344.81000519 C323.31118799 344.70304584 328.10415534 344.60171783 332.8972168 344.50336456 C333.05840835 341.94484934 333.17548969 339.39655365 333.26831055 336.83539581 C333.3180603 336.11678375 333.36781006 335.39817169 333.41906738 334.65778351 C333.53555678 330.49075271 333.53555678 330.49075271 331.67558289 326.87982941 C329.13602315 324.56861767 326.30173079 322.60877841 323.36206055 320.83930206 C312.56857714 313.87481644 305.72782203 300.42215401 302.74487305 288.17133331 C301.74110129 283.28022729 301.45767311 278.42113943 301.2722168 273.44086456 C301.23354492 272.57525909 301.19487305 271.70965363 301.1550293 270.81781769 C301.06201198 268.71330097 300.97859011 266.60836367 300.8972168 264.50336456 C299.9072168 264.47758331 298.9172168 264.45180206 297.8972168 264.42523956 C289.59161298 264.11182055 282.45655244 263.81680345 276.15893555 257.85883331 C270.14319072 251.26879304 269.53371428 245.35421869 269.5222168 236.69086456 C269.49772461 235.73115753 269.47323242 234.7714505 269.44799805 233.78266144 C269.41786373 226.4248664 270.78942963 221.10478235 275.64331055 215.47992706 C276.20147461 215.03391144 276.75963867 214.58789581 277.3347168 214.12836456 C277.89030273 213.66688019 278.44588867 213.20539581 279.01831055 212.72992706 C283.60922192 209.73294958 287.78357868 209.18263399 293.2097168 208.87836456 C295.09110352 208.76621613 295.09110352 208.76621613 297.01049805 208.65180206 C297.96311523 208.60281769 298.91573242 208.55383331 299.8972168 208.50336456 C297.81421276 207.44752995 295.7269736 206.42606026 293.6003418 205.46039581 C283.63873925 200.81270545 276.43944475 194.72852084 272.04052734 184.51410675 C269.85497809 178.48004433 269.44105355 173.01320644 269.5222168 166.62836456 C269.51061523 165.69250519 269.49901367 164.75664581 269.48706055 163.79242706 C269.49092773 162.89523956 269.49479492 161.99805206 269.4987793 161.07367706 C269.50216309 160.26688507 269.50554687 159.46009308 269.5090332 158.62885284 C270.00540887 155.91096194 270.71697252 155.17882067 272.8972168 153.50336456 C275.3278532 153.11860371 275.3278532 153.11860371 278.26921082 153.10463715 C279.94139931 153.08582993 279.94139931 153.08582993 281.64736938 153.06664276 C282.87088104 153.06807785 284.0943927 153.06951294 285.35498047 153.07099152 C286.64288986 153.06079987 287.93079926 153.05060822 289.25773621 153.04010773 C292.79052606 153.01248899 296.32315496 153.00324669 299.85603881 152.99725366 C303.5476711 152.98788257 307.23918255 152.96168028 310.93074036 152.93724823 C317.92172848 152.89354454 324.91269321 152.86502142 331.90377647 152.84192485 C341.35046155 152.80984074 350.79700719 152.7543621 360.24358654 152.7001791 C375.12808857 152.61542368 390.01253569 152.56197363 404.8972168 152.50336456 C404.8972168 128.74336456 404.8972168 104.98336456 404.8972168 80.50336456 C272.8972168 80.50336456 140.8972168 80.50336456 4.8972168 80.50336456 Z M316.8972168 208.50336456 C316.8559668 218.79523956 316.8147168 229.08711456 316.7722168 239.69086456 C316.75400879 242.91376251 316.73580078 246.13666046 316.71704102 249.45722198 C316.71119258 252.04942407 316.70609785 254.64162802 316.7019043 257.23383331 C316.69167236 258.54920074 316.68144043 259.86456818 316.67089844 261.21979523 C316.66754578 279.22191373 319.19975574 293.4877634 331.9987793 306.66742706 C342.88968358 316.94259117 354.74662971 320.14705477 369.37768555 319.81195831 C382.1373762 319.17064748 392.66255174 312.57088802 401.3034668 303.44086456 C412.55294437 289.76502908 413.06162752 274.60671868 412.99487305 257.62445831 C412.99386597 256.37539703 412.99285889 255.12633575 412.99182129 253.83942413 C412.98661851 249.2065615 412.97265739 244.57371204 412.9597168 239.94086456 C412.9390918 229.56648956 412.9184668 219.19211456 412.8972168 208.50336456 C381.2172168 208.50336456 349.5372168 208.50336456 316.8972168 208.50336456 Z M348.8972168 335.50336456 C347.6300313 347.68096003 347.6300313 347.68096003 352.1784668 353.05414581 C353.55257717 354.34319221 354.96005347 355.59751259 356.3972168 356.81586456 C357.47036133 357.80103058 357.47036133 357.80103058 358.56518555 358.80609894 C360.31662939 360.40575098 362.09024021 361.96711408 363.8972168 363.50336456 C368.15372379 361.51788093 371.22788496 358.86595841 374.6472168 355.69086456 C375.24920898 355.18877472 375.85120117 354.68668488 376.47143555 354.16938019 C378.5647987 352.31841454 378.5647987 352.31841454 380.8972168 348.50336456 C380.8972168 344.21336456 380.8972168 339.92336456 380.8972168 335.50336456 C370.3372168 335.50336456 359.7772168 335.50336456 348.8972168 335.50336456 Z M318.8972168 373.50336456 C317.69219581 376.7471363 316.51132897 379.99919145 315.3347168 383.25336456 C314.82134766 384.6339505 314.82134766 384.6339505 314.29760742 386.04242706 C313.97856445 386.93188019 313.65952148 387.82133331 313.33081055 388.73773956 C313.03231201 389.55468292 312.73381348 390.37162628 312.42626953 391.2133255 C311.81089527 393.87701288 311.67497261 395.04500855 312.8972168 397.50336456 C315.42227391 399.26791509 315.42227391 399.26791509 318.61206055 400.73773956 C319.77286133 401.31137238 320.93366211 401.88500519 322.12963867 402.47602081 C323.04120728 402.9132547 323.04120728 402.9132547 323.97119141 403.35932159 C325.830672 404.25142404 327.67984255 405.16244089 329.52807617 406.07758331 C334.97511254 409.16011997 334.97511254 409.16011997 340.8972168 410.50336456 C339.37185187 406.34025708 337.32815681 402.58729852 335.08862305 398.77680206 C334.7212352 398.14730652 334.35384735 397.51781097 333.97532654 396.86923981 C333.2012763 395.54541482 332.42545073 394.22262645 331.64794922 392.9008255 C330.46135978 390.88116105 329.28349546 388.85658305 328.10620117 386.83148956 C327.35086444 385.54212075 326.59502217 384.25304792 325.83862305 382.96430206 C325.48852676 382.36113159 325.13843048 381.75796112 324.77772522 381.13651276 C323.0722597 378.25257352 321.43094417 375.71883407 318.8972168 373.50336456 Z M409.8972168 373.50336456 C408.45671884 375.75819938 407.07384668 378.0246509 405.71362305 380.32758331 C405.29805649 381.02599838 404.88248993 381.72441345 404.45433044 382.44399261 C403.57239198 383.92844442 402.69232737 385.41401084 401.81396484 386.90058136 C400.4740597 389.16660807 399.1265392 391.42796948 397.77807617 393.68891144 C396.92279255 395.13069244 396.06796049 396.57274144 395.21362305 398.01508331 C394.81148087 398.68923782 394.40933868 399.36339233 393.99501038 400.05797577 C391.99016532 403.46280906 390.23933507 406.76867705 388.8972168 410.50336456 C394.98757558 408.73954686 400.5415688 405.92019378 406.2097168 403.12836456 C407.22356445 402.64625519 408.23741211 402.16414581 409.28198242 401.66742706 C410.24426758 401.19305206 411.20655273 400.71867706 412.19799805 400.22992706 C413.07625244 399.80276398 413.95450684 399.37560089 414.859375 398.93549347 C417.002441 397.68040399 417.002441 397.68040399 417.78051758 395.63080597 C417.92527699 392.99182377 417.3703838 391.21940057 416.46362305 388.73773956 C416.14458008 387.84828644 415.82553711 386.95883331 415.49682617 386.04242706 C414.98345703 384.66184113 414.98345703 384.66184113 414.4597168 383.25336456 C414.12133789 382.31750519 413.78295898 381.38164581 413.43432617 380.41742706 C412.59813858 378.10907822 411.75217623 375.80481265 410.8972168 373.50336456 C410.5672168 373.50336456 410.2372168 373.50336456 409.8972168 373.50336456 Z M361.7331543 391.47211456 C360.92104492 392.30742706 360.10893555 393.14273956 359.2722168 394.00336456 C358.04631836 395.25633331 358.04631836 395.25633331 356.7956543 396.53461456 C356.16916992 397.18430206 355.54268555 397.83398956 354.8972168 398.50336456 C357.59041504 404.0884396 360.30195641 409.44336847 363.8972168 414.50336456 C368.09781304 413.10316582 369.08773205 410.13510579 371.0847168 406.44086456 C371.45274414 405.77764191 371.82077148 405.11441925 372.19995117 404.43109894 C373.10733742 402.79308999 374.00337253 401.14880235 374.8972168 399.50336456 C373.96131176 398.39784566 373.02341822 397.29401003 372.0847168 396.19086456 C371.56264648 395.57598175 371.04057617 394.96109894 370.50268555 394.32758331 C368.29713775 391.81931889 368.29713775 391.81931889 365.8972168 389.50336456 C363.6561827 389.2790517 363.6561827 389.2790517 361.7331543 391.47211456 Z " fill="#006DF0" transform="translate(27.102783203125,15.496635437011719)"/>
<path d="M0 0 C132 0 264 0 400 0 C400 15.84 400 31.68 400 48 C268 48 136 48 0 48 C0 32.16 0 16.32 0 0 Z " fill="#78B9EB" transform="translate(32,32)"/>
<path d="M0 0 C1.18142578 -0.01891296 1.18142578 -0.01891296 2.38671875 -0.03820801 C3.22847656 -0.03011108 4.07023438 -0.02201416 4.9375 -0.01367188 C6.24654297 -0.01941223 6.24654297 -0.01941223 7.58203125 -0.02526855 C9.42449092 -0.02798678 11.26698924 -0.02063182 13.109375 -0.00390625 C15.92795934 0.01750565 18.74399485 -0.00370989 21.5625 -0.02929688 C23.35417229 -0.02665358 25.14584299 -0.02152857 26.9375 -0.01367188 C27.77925781 -0.0217688 28.62101563 -0.02986572 29.48828125 -0.03820801 C30.27589844 -0.02559937 31.06351563 -0.01299072 31.875 0 C32.90947266 0.00477356 32.90947266 0.00477356 33.96484375 0.00964355 C36.88545513 0.76166484 38.0438725 2.20314283 39.9375 4.51757812 C40.42969131 7.19620132 40.42969131 7.19620132 40.41851807 10.3135376 C40.42401672 11.49701782 40.42951538 12.68049805 40.43518066 13.89984131 C40.41360901 15.84192474 40.41360901 15.84192474 40.39160156 17.82324219 C40.39047303 19.20312466 40.39110706 20.58300954 40.39337158 21.96289062 C40.39451945 25.70654654 40.3709989 29.44969001 40.34307575 33.19322681 C40.31807399 37.10631018 40.31572108 41.01940524 40.31097412 44.93255615 C40.2985407 52.34155663 40.26571427 59.75032107 40.22557616 67.1592176 C40.18086974 75.59442485 40.15887428 84.02964336 40.13879442 92.46493959 C40.09698184 109.81595949 40.02581729 127.16673484 39.9375 144.51757812 C45.2175 144.51757812 50.4975 144.51757812 55.9375 144.51757812 C55.9375 149.79757812 55.9375 155.07757813 55.9375 160.51757812 C-7.4225 160.51757812 -70.7825 160.51757812 -136.0625 160.51757812 C-136.0625 155.23757813 -136.0625 149.95757812 -136.0625 144.51757812 C-130.7825 144.51757812 -125.5025 144.51757812 -120.0625 144.51757812 C-120.08344727 142.96329102 -120.10439453 141.40900391 -120.12597656 139.80761719 C-120.19833378 134.04534098 -120.24428478 128.28310499 -120.28222656 122.52050781 C-120.30235164 120.02564747 -120.32965452 117.53083435 -120.36425781 115.03613281 C-120.41273457 111.45170444 -120.4354602 107.86789928 -120.453125 104.28320312 C-120.47377014 103.16641174 -120.49441528 102.04962036 -120.51568604 100.89898682 C-120.51598816 99.85820984 -120.51629028 98.81743286 -120.51660156 97.74511719 C-120.52548401 96.83022522 -120.53436646 95.91533325 -120.54351807 94.97271729 C-119.90231545 91.69998854 -118.6824923 90.52552275 -116.0625 88.51757812 C-114.08984375 88.00964355 -114.08984375 88.00964355 -112 88 C-111.21238281 87.98739136 -110.42476562 87.97478271 -109.61328125 87.96179199 C-108.77152344 87.96988892 -107.92976563 87.97798584 -107.0625 87.98632812 C-106.18980469 87.98250122 -105.31710938 87.97867432 -104.41796875 87.97473145 C-102.57550908 87.97201322 -100.73301076 87.97936818 -98.890625 87.99609375 C-96.07204066 88.01750565 -93.25600515 87.99629011 -90.4375 87.97070312 C-88.64582771 87.97334642 -86.85415701 87.97847143 -85.0625 87.98632812 C-83.79986328 87.97418274 -83.79986328 87.97418274 -82.51171875 87.96179199 C-81.33029297 87.98070496 -81.33029297 87.98070496 -80.125 88 C-79.43535156 88.00318237 -78.74570313 88.00636475 -78.03515625 88.00964355 C-75.10089905 88.76517847 -73.89617941 90.14665518 -72.0625 92.51757812 C-71.58148193 94.97271729 -71.58148193 94.97271729 -71.60839844 97.74511719 C-71.60870056 98.78589417 -71.60900269 99.82667114 -71.60931396 100.89898682 C-71.62995911 102.0157782 -71.65060425 103.13256958 -71.671875 104.28320312 C-71.67753479 105.43173767 -71.68319458 106.58027222 -71.68902588 107.76361084 C-71.71141669 111.43202387 -71.76162058 115.09946029 -71.8125 118.76757812 C-71.83256139 121.25454319 -71.85081278 123.74152356 -71.8671875 126.22851562 C-71.91129045 132.32520301 -71.97823051 138.4213208 -72.0625 144.51757812 C-69.4225 144.51757812 -66.7825 144.51757812 -64.0625 144.51757812 C-64.06618717 143.96466221 -64.06987434 143.41174629 -64.07367325 142.84207535 C-64.16201151 129.38826677 -64.22794792 115.93450901 -64.26974869 102.48047256 C-64.29064165 95.97417663 -64.31899108 89.4680897 -64.36425781 82.96191406 C-64.4076537 76.68550303 -64.43162422 70.40929329 -64.44200897 64.13274384 C-64.44941153 61.73568298 -64.46386659 59.3386334 -64.48542023 56.94165802 C-64.51437016 53.58944207 -64.51845941 50.23806261 -64.51660156 46.88574219 C-64.53098267 45.89024353 -64.54536377 44.89474487 -64.56018066 43.86907959 C-64.52002101 37.1919861 -64.52002101 37.1919861 -62.2880249 33.9019165 C-59.93060674 32.43553685 -58.74581217 32.01267051 -56 32 C-54.81857422 31.98108704 -54.81857422 31.98108704 -53.61328125 31.96179199 C-52.77152344 31.96988892 -51.92976563 31.97798584 -51.0625 31.98632812 C-50.18980469 31.98250122 -49.31710938 31.97867432 -48.41796875 31.97473145 C-46.57550908 31.97201322 -44.73301076 31.97936818 -42.890625 31.99609375 C-40.07204066 32.01750565 -37.25600515 31.99629011 -34.4375 31.97070312 C-32.64582771 31.97334642 -30.85415701 31.97847143 -29.0625 31.98632812 C-28.22074219 31.9782312 -27.37898438 31.97013428 -26.51171875 31.96179199 C-25.72410156 31.97440063 -24.93648438 31.98700928 -24.125 32 C-23.09052734 32.00477356 -23.09052734 32.00477356 -22.03515625 32.00964355 C-18.88682217 32.82030062 -17.90218016 33.80580111 -16.0625 36.51757812 C-15.47946029 39.97250508 -15.55789615 43.38983788 -15.60839844 46.88574219 C-15.60781433 47.93971191 -15.60723022 48.99368164 -15.60662842 50.07958984 C-15.60941586 53.56446224 -15.64054032 57.04848009 -15.671875 60.53320312 C-15.67933501 62.94886813 -15.68502907 65.36453918 -15.68902588 67.7802124 C-15.70430095 74.13928933 -15.74359951 80.49800101 -15.7878418 86.85693359 C-15.82875376 93.34532734 -15.84702822 99.83378008 -15.8671875 106.32226562 C-15.91009144 119.05419232 -15.97759738 131.7858658 -16.0625 144.51757812 C-13.4225 144.51757812 -10.7825 144.51757812 -8.0625 144.51757812 C-8.06618717 143.79974277 -8.06987434 143.08190742 -8.07367325 142.34231949 C-8.16197727 124.88279437 -8.22818664 107.42332591 -8.26974869 89.96362686 C-8.29038158 81.52026606 -8.31851595 73.07705424 -8.36425781 64.63378906 C-8.40410347 57.27537365 -8.42992753 49.91706612 -8.43885398 42.55854583 C-8.44407263 38.66153724 -8.45635306 34.7648373 -8.48542023 30.86792755 C-8.51255371 27.20057362 -8.52094936 23.53365572 -8.51493073 19.86621094 C-8.5165573 17.87736453 -8.53809095 15.8885657 -8.56018066 13.89984131 C-8.55468201 12.71636108 -8.54918335 11.53288086 -8.54351807 10.3135376 C-8.54720524 9.28481663 -8.55089241 8.25609566 -8.55469131 7.19620132 C-7.68395559 2.45744865 -4.75794017 0.02195545 0 0 Z " fill="#006DF0" transform="translate(208.0625,127.482421875)"/>
<path d="M0 0 C10.12492636 3.37497545 10.12492636 3.37497545 13.99389648 4.92944336 C14.86187363 5.27667953 15.72985077 5.62391571 16.62413025 5.98167419 C17.98387718 6.53021812 17.98387718 6.53021812 19.37109375 7.08984375 C20.81464989 7.66853966 20.81464989 7.66853966 22.28736877 8.25892639 C25.33840194 9.48266959 28.38797375 10.7100071 31.4375 11.9375 C33.47972083 12.7574028 35.52203774 13.57706634 37.56445312 14.39648438 C42.0937416 16.21404993 46.62211102 18.03388316 51.14964294 19.8558197 C55.43146492 21.57461361 59.71608341 23.28643337 64 25 C64 42.82 64 60.64 64 79 C48.60713028 85.23914812 48.60713028 85.23914812 42.05859375 87.88671875 C37.58496182 89.69542901 33.11164901 91.50490238 28.64013672 93.31884766 C25.03632312 94.78074134 21.43116552 96.23927157 17.82503891 97.69544983 C16.44739951 98.25244312 15.0702542 98.81066002 13.69360733 99.37010193 C11.76983905 100.15164315 9.84438219 100.92887027 7.91845703 101.70507812 C6.82147491 102.14920044 5.7244928 102.59332275 4.5942688 103.05090332 C2 104 2 104 0 104 C0 69.68 0 35.36 0 0 Z " fill="#77B8EB" transform="translate(96,348)"/>
<path d="M0 0 C1.46373047 0.02707031 1.46373047 0.02707031 2.95703125 0.0546875 C3.69308594 0.07789063 4.42914063 0.10109375 5.1875 0.125 C4.63437134 1.74341797 4.63437134 1.74341797 4.07006836 3.39453125 C2.6984914 7.42203696 1.34889499 11.45662976 0.00561523 15.49365234 C-0.57733471 17.23555267 -1.16612454 18.97551043 -1.76098633 20.71337891 C-2.618048 23.22062553 -3.45343884 25.73424917 -4.28515625 28.25 C-4.55280289 29.01803955 -4.82044952 29.7860791 -5.09620667 30.57739258 C-6.81006353 35.8558146 -7.49051278 39.74898202 -5.8125 45.125 C-3.37696779 47.34798317 -0.61976143 48.58364747 2.3671875 49.93359375 C3.21248016 50.3458873 4.05777283 50.75818085 4.92868042 51.18296814 C6.73946639 52.064618 8.55626429 52.93400681 10.3782959 53.79217529 C14.09398102 55.55507922 17.76000645 57.41031047 21.43048096 59.26504517 C26.04690211 61.59445303 30.68082653 63.88861137 35.3125 66.1875 C39.06624793 68.05109643 42.81865866 69.91734851 46.5703125 71.78515625 C47.42424591 72.20797379 48.27817932 72.63079132 49.1579895 73.06642151 C49.93745941 73.45450485 50.71692932 73.8425882 51.52001953 74.24243164 C52.20661652 74.58311172 52.8932135 74.92379181 53.60061646 75.27479553 C55.1875 76.125 55.1875 76.125 56.1875 77.125 C56.27508003 79.12464982 56.29446576 81.1273611 56.28515625 83.12890625 C56.28265869 84.22275635 56.28016113 85.31660645 56.27758789 86.44360352 C56.26848389 87.84408936 56.25937988 89.2445752 56.25 90.6875 C56.229375 95.121875 56.20875 99.55625 56.1875 104.125 C42.9875 104.125 29.7875 104.125 16.1875 104.125 C16.1875 96.205 16.1875 88.285 16.1875 80.125 C10.9075 80.125 5.6275 80.125 0.1875 80.125 C0.1875 88.045 0.1875 95.965 0.1875 104.125 C-7.7325 104.125 -15.6525 104.125 -23.8125 104.125 C-23.90300338 93.05017137 -23.9763327 81.97558986 -24.01974869 70.90047455 C-24.04059011 65.75740274 -24.06884483 60.61459788 -24.11425781 55.47167969 C-24.1578384 50.50498341 -24.18166301 45.53854331 -24.19200897 40.57167053 C-24.19937844 38.68030263 -24.21376928 36.78894815 -24.23542023 34.89768982 C-24.26461682 32.24073396 -24.26844926 29.5848258 -24.26660156 26.92773438 C-24.28098267 26.15233307 -24.29536377 25.37693176 -24.31018066 24.57803345 C-24.2597371 17.83882886 -22.10238402 12.70572796 -17.62890625 7.6640625 C-16.51322266 6.71660156 -16.51322266 6.71660156 -15.375 5.75 C-14.63378906 5.10289062 -13.89257812 4.45578125 -13.12890625 3.7890625 C-8.8360522 0.70515723 -5.25207072 -0.12655592 0 0 Z " fill="#77B8EB" transform="translate(327.8125,375.875)"/>
<path d="M0 0 C8.96860509 -0.31449632 15.27151927 0.66483098 22.11328125 6.9375 C27.78246922 13.13487319 29.30390625 18.05907782 29.22705078 26.4621582 C29.22734283 27.3016954 29.22763489 28.1412326 29.22793579 29.00621033 C29.22654647 31.77117376 29.21100402 34.5358651 29.1953125 37.30078125 C29.19158096 39.22177483 29.18873465 41.14277031 29.18673706 43.06376648 C29.17911175 48.11244997 29.15947269 53.16101785 29.1373291 58.20965576 C29.11684695 63.36436397 29.10773027 68.51909092 29.09765625 73.67382812 C29.07622577 83.78261097 29.04105257 93.89127777 29 104 C21.08 104 13.16 104 5 104 C5 96.08 5 88.16 5 80 C-0.28 80 -5.56 80 -11 80 C-11 87.92 -11 95.84 -11 104 C-24.2 104 -37.4 104 -51 104 C-51 95.09 -51 86.18 -51 77 C-41.07109743 71.71795756 -31.12596666 66.51983431 -21.02734375 61.5703125 C-19.66073105 60.89823761 -19.66073105 60.89823761 -18.26651001 60.21258545 C-14.53148118 58.37638258 -10.79595629 56.54155573 -7.05151367 54.72460938 C-4.26713084 53.37156632 -1.49052116 52.00360598 1.28515625 50.6328125 C2.13392838 50.22547882 2.9827005 49.81814514 3.85719299 49.39846802 C5.02628456 48.81668289 5.02628456 48.81668289 6.21899414 48.22314453 C6.90337051 47.88912628 7.58774689 47.55510803 8.29286194 47.21096802 C10.43043238 45.69467036 11.12067488 44.45564876 12 42 C11.66512308 36.2737918 10.31113903 31.19606974 8.49609375 25.78125 C8.2533522 25.03790405 8.01061066 24.29455811 7.76051331 23.52868652 C6.99297135 21.18349407 6.21543426 18.84176305 5.4375 16.5 C4.91144156 14.89865673 4.38604466 13.29709598 3.86132812 11.6953125 C2.58184682 7.79432099 1.29339834 3.89639823 0 0 Z " fill="#77B8EB" transform="translate(451,376)"/>
<path d="M0 0 C15.82044619 -0.07009498 31.64085043 -0.12299053 47.46141338 -0.15543652 C54.80725484 -0.17090249 62.15299979 -0.19198676 69.4987793 -0.22631836 C75.90169919 -0.25622909 82.30454918 -0.27557697 88.707537 -0.28226548 C92.09759507 -0.28617494 95.48745317 -0.29535683 98.87744713 -0.31719017 C102.6628043 -0.33891456 106.44774498 -0.34196893 110.2331543 -0.34057617 C111.35596802 -0.351362 112.47878174 -0.36214783 113.63562012 -0.3732605 C115.18572029 -0.36707451 115.18572029 -0.36707451 116.76713562 -0.36076355 C118.1097271 -0.36491162 118.1097271 -0.36491162 119.47944164 -0.36914349 C122.57827871 0.08469069 124.46886022 1.18558322 127 3 C128.17426264 5.34852528 128.11508173 6.73774065 128.09765625 9.3515625 C128.09443359 10.20234375 128.09121094 11.053125 128.08789062 11.9296875 C128.07951172 12.81914062 128.07113281 13.70859375 128.0625 14.625 C128.05798828 15.5221875 128.05347656 16.419375 128.04882812 17.34375 C128.03702591 19.56256648 128.02056155 21.78125018 128 24 C113.79601256 24.09359992 99.59207322 24.16378939 85.38784027 24.20724869 C78.79197989 24.22810871 72.19632694 24.25639817 65.60058594 24.30175781 C59.23338282 24.34527093 52.86637904 24.36914904 46.4990387 24.37950897 C44.07179121 24.38689043 41.64455443 24.40130467 39.21739197 24.42292023 C35.81330936 24.4520258 32.41004673 24.45595286 29.00585938 24.45410156 C28.00604034 24.46848267 27.00622131 24.48286377 25.97610474 24.49768066 C18.6812115 24.4548512 13.37365918 22.89597293 7.79296875 18.10546875 C3.00584851 12.38654895 -0.22343692 7.71514545 0 0 Z " fill="#77B8EB" transform="translate(312,184)"/>
<path d="M0 0 C5.28 0 10.56 0 16 0 C16 42.24 16 84.48 16 128 C10.72 128 5.44 128 0 128 C0 85.76 0 43.52 0 0 Z " fill="#78B9EB" transform="translate(216,144)"/>
<path d="M0 0 C13.2 0 26.4 0 40 0 C40 15.84 40 31.68 40 48 C26.8 48 13.6 48 0 48 C0 32.16 0 16.32 0 0 Z " fill="#78B9EB" transform="translate(176,376)"/>
<path d="M0 0 C5.28 0 10.56 0 16 0 C16 31.68 16 63.36 16 96 C10.72 96 5.44 96 0 96 C0 64.32 0 32.64 0 0 Z " fill="#78B9EB" transform="translate(160,176)"/>
<path d="M0 0 C5.28 0 10.56 0 16 0 C16 13.2 16 26.4 16 40 C10.72 40 5.44 40 0 40 C0 26.8 0 13.6 0 0 Z " fill="#78B9EB" transform="translate(104,232)"/>
<path d="M0 0 C4.95 0 9.9 0 15 0 C15 13.2 15 26.4 15 40 C12.03 40 9.06 40 6 40 C5.88930176 39.26475098 5.77860352 38.52950195 5.66455078 37.77197266 C5.15382415 34.38927231 4.63943527 31.00713825 4.125 27.625 C3.95097656 26.46871094 3.77695313 25.31242187 3.59765625 24.12109375 C2.67510287 18.07324381 1.67388356 12.07581576 0.36279297 6.09912109 C0 4 0 4 0 0 Z " fill="#76B8EB" transform="translate(201,440)"/>
<path d="M0 0 C0 7.92 0 15.84 0 24 C-11 24 -11 24 -15 21 C-16.73754831 15.78735506 -16.56408892 10.43020537 -16 5 C-12.11664603 -2.09716415 -8.77346295 0 0 0 Z " fill="#76B8EB" transform="translate(328,240)"/>
<path d="M0 0 C11.42307692 0 11.42307692 0 15 3 C16.40053506 5.80107012 16.2075504 8.18891681 16.25 11.3125 C16.27578125 12.44300781 16.3015625 13.57351562 16.328125 14.73828125 C15.96679578 18.33006577 15.20745821 20.16847066 13 23 C10 24 10 24 0 24 C0 16.08 0 8.16 0 0 Z " fill="#76B8EB" transform="translate(456,240)"/>
<path d="M0 0 C0.66 -0.0103125 1.32 -0.020625 2 -0.03125 C5.04782397 0.77832824 6.15682414 1.94542293 8 4.5 C8.40100915 7.33065284 8.56122899 9.68346659 8.5 12.5 C8.51546875 13.2115625 8.5309375 13.923125 8.546875 14.65625 C8.52115187 18.10314984 8.25431936 20.14752229 6.21875 22.96875 C3.88020812 24.58267327 2.80290722 25.04379543 0 25 C-0.66 25.0103125 -1.32 25.020625 -2 25.03125 C-5.04782397 24.22167176 -6.15682414 23.05457707 -8 20.5 C-8.40100915 17.66934716 -8.56122899 15.31653341 -8.5 12.5 C-8.51546875 11.7884375 -8.5309375 11.076875 -8.546875 10.34375 C-8.52115187 6.89685016 -8.25431936 4.85247771 -6.21875 2.03125 C-3.88020812 0.41732673 -2.80290722 -0.04379543 0 0 Z " fill="#0570F0" transform="translate(416,239.5)"/>
<path d="M0 0 C0.66 -0.0103125 1.32 -0.020625 2 -0.03125 C5.04782397 0.77832824 6.15682414 1.94542293 8 4.5 C8.40100915 7.33065284 8.56122899 9.68346659 8.5 12.5 C8.51546875 13.2115625 8.5309375 13.923125 8.546875 14.65625 C8.52115187 18.10314984 8.25431936 20.14752229 6.21875 22.96875 C3.88020812 24.58267327 2.80290722 25.04379543 0 25 C-0.66 25.0103125 -1.32 25.020625 -2 25.03125 C-5.04782397 24.22167176 -6.15682414 23.05457707 -8 20.5 C-8.40100915 17.66934716 -8.56122899 15.31653341 -8.5 12.5 C-8.51546875 11.7884375 -8.5309375 11.076875 -8.546875 10.34375 C-8.52115187 6.89685016 -8.25431936 4.85247771 -6.21875 2.03125 C-3.88020812 0.41732673 -2.80290722 -0.04379543 0 0 Z " fill="#0570F0" transform="translate(368,239.5)"/>
<path d="M0 0 C5.28 0 10.56 0 16 0 C16 5.28 16 10.56 16 16 C10.72 16 5.44 16 0 16 C0 10.72 0 5.44 0 0 Z " fill="#006DF0" transform="translate(112,48)"/>
<path d="M0 0 C5.28 0 10.56 0 16 0 C16 5.28 16 10.56 16 16 C10.72 16 5.44 16 0 16 C0 10.72 0 5.44 0 0 Z " fill="#006DF0" transform="translate(80,48)"/>
<path d="M0 0 C5.28 0 10.56 0 16 0 C16 5.28 16 10.56 16 16 C10.72 16 5.44 16 0 16 C0 10.72 0 5.44 0 0 Z " fill="#006DF0" transform="translate(48,48)"/>
<path d="M0 0 C0 5.28 0 10.56 0 16 C-10.08839779 16.60773481 -10.08839779 16.60773481 -14.1875 13.875 C-16.34663968 10.45015775 -16.82630866 8.96628159 -16 5 C-11.92038459 -1.4711141 -6.93643086 -0.41785728 0 0 Z " fill="#75B7EB" transform="translate(80,392)"/>
<path d="M0 0 C-4.57431698 8.05729945 -9.18437456 16.08340363 -14 24 C-15.17825358 23.09827532 -16.34231577 22.17798498 -17.5 21.25 C-18.1496875 20.73953125 -18.799375 20.2290625 -19.46875 19.703125 C-21 18 -21 18 -21 14 C-19.1620886 11.27733815 -16.75951576 9.06495797 -14.4375 6.75 C-13.52387695 5.77546875 -13.52387695 5.77546875 -12.59179688 4.78125 C-8.48687223 0.6459185 -6.09223731 -0.84679746 0 0 Z " fill="#75B7EB" transform="translate(426,376)"/>
<path d="M0 0 C3.72590476 -0.58141557 5.84237953 -0.82056287 8.98388672 1.40625 C11.05682259 3.36830909 13.00731208 5.39744005 14.9375 7.5 C15.62134766 8.21542969 16.30519531 8.93085938 17.00976562 9.66796875 C18.69009599 11.43055305 20.3519288 13.20730539 22 15 C20.1144852 19.28359673 17.64034299 21.15103592 14 24 C11.66310537 20.18967199 9.33108298 16.37638576 7 12.5625 C6.33226562 11.47388672 5.66453125 10.38527344 4.9765625 9.26367188 C4.34492188 8.22919922 3.71328125 7.19472656 3.0625 6.12890625 C2.47597656 5.17056885 1.88945312 4.21223145 1.28515625 3.22485352 C0 1 0 1 0 0 Z " fill="#75B7EB" transform="translate(358,376)"/>
<path d="M0 0 C2.64 0 5.28 0 8 0 C8 5.28 8 10.56 8 16 C5.36 16 2.72 16 0 16 C0 10.72 0 5.44 0 0 Z " fill="#78B9EB" transform="translate(232,392)"/>
</svg>
