<?xml version="1.0" encoding="UTF-8"?>
<svg version="1.1" xmlns="http://www.w3.org/2000/svg" width="512" height="512">
<path d="M0 0 C0.99163147 -0.00960754 1.98326294 -0.01921509 3.00494385 -0.02911377 C4.06646667 -0.03336365 5.1279895 -0.03761353 6.22167969 -0.04199219 C7.32525818 -0.04769226 8.42883667 -0.05339233 9.56585693 -0.05926514 C11.8992009 -0.0687002 14.23255811 -0.07524317 16.56591797 -0.07910156 C20.11677588 -0.08879409 23.66705157 -0.11982712 27.21777344 -0.15136719 C29.48990543 -0.15789918 31.76204155 -0.16314888 34.03417969 -0.16699219 C35.61431854 -0.18551239 35.61431854 -0.18551239 37.22637939 -0.20440674 C44.81035546 -0.18174258 51.20087875 0.86346778 57.70605469 4.91113281 C62.9418647 10.29653739 65.01963881 16.01153932 65.01660252 23.43223953 C65.01859356 24.50612277 65.02058461 25.58000601 65.022636 26.68643117 C65.01972315 27.86540998 65.01681031 29.04438879 65.0138092 30.25909424 C65.01509084 32.13857132 65.01509084 32.13857132 65.01639837 34.05601764 C65.01863698 37.53587335 65.01463069 41.01569835 65.00962031 44.49555016 C65.00530693 48.24738947 65.00676287 51.99922702 65.00752258 55.75106812 C65.00804725 62.2520514 65.00490638 68.75302467 64.99928474 75.25400543 C64.99116206 84.65336351 64.98855373 94.05271674 64.98729675 103.45207796 C64.98510745 118.70145316 64.97845063 133.95082301 64.96899414 149.20019531 C64.9598169 164.01464817 64.95273759 178.82909957 64.94848633 193.64355469 C64.94809224 195.01300932 64.94809224 195.01300932 64.9476902 196.4101297 C64.94638517 200.99017295 64.94512146 205.57021622 64.94387829 210.15025949 C64.93350945 248.15388768 64.91589442 286.15750989 64.89355469 324.16113281 C65.56539795 324.20794189 66.23724121 324.25475098 66.92944336 324.30297852 C68.2632605 324.41258911 68.2632605 324.41258911 69.62402344 324.52441406 C70.94116333 324.62556519 70.94116333 324.62556519 72.28491211 324.72875977 C77.79423317 325.64190975 82.03202569 328.95752324 85.70605469 333.03613281 C91.21297578 340.90316295 92.16042312 347.94495087 90.49511719 357.43066406 C88.74057711 363.20697457 84.72124052 367.6550357 79.89355469 371.16113281 C74.39314646 373.54081798 70.19362886 374.53700092 64.12793159 374.54424286 C63.38556588 374.54920237 62.64320016 374.55416189 61.87833852 374.55927169 C59.40090354 374.57218307 56.9240115 374.56385752 54.44656372 374.55554199 C52.64836937 374.56043301 50.85017817 374.56662378 49.0519923 374.57399988 C44.11823971 374.59039569 39.18464696 374.58808218 34.25087667 374.58262491 C28.92696629 374.5799543 23.60309848 374.59448707 18.27920532 374.60671997 C7.85210482 374.62777446 -2.57494008 374.63231482 -13.00205933 374.63053209 C-21.47719076 374.62922453 -29.95230484 374.63302829 -38.42743301 374.64045715 C-40.86856147 374.64255634 -43.30968992 374.64465394 -45.75081837 374.64674997 C-46.96582855 374.6477935 -48.18083872 374.64883703 -49.43266739 374.64991218 C-72.41162737 374.66881446 -95.39055543 374.66776432 -118.36951996 374.66094285 C-139.39144985 374.65536679 -160.4132579 374.6761956 -181.43515931 374.70930332 C-203.02096825 374.7430353 -224.6067188 374.7582093 -246.19255459 374.75358629 C-258.31116294 374.75134119 -270.42965864 374.75659092 -282.54824448 374.78147888 C-292.86474077 374.80248552 -303.18106265 374.80609016 -313.49756609 374.78717929 C-318.76061989 374.77801783 -324.02334844 374.77689129 -329.28637695 374.79753494 C-334.10652074 374.81623229 -338.92607262 374.81175516 -343.74619378 374.78898913 C-345.48771007 374.78480029 -347.22927163 374.78901294 -348.97074006 374.80258507 C-359.16131058 374.87658189 -367.98439727 374.60147945 -375.99579704 367.48216391 C-381.05099115 362.35225015 -382.76577227 356.22719022 -383.54394531 349.22363281 C-383.2564732 342.37905879 -380.06605787 334.8526582 -375.10644531 330.16113281 C-370.46270025 326.81420362 -366.65037611 325.11511259 -360.93115234 324.59765625 C-360.02833527 324.51400818 -359.12551819 324.43036011 -358.19534302 324.34417725 C-357.16133865 324.25357025 -357.16133865 324.25357025 -356.10644531 324.16113281 C-356.11013248 323.21506668 -356.11381966 322.26900055 -356.11761856 321.29426575 C-356.20644393 298.2670868 -356.27216122 275.23993009 -356.313694 252.21261597 C-356.33431315 241.07674061 -356.36242151 229.94097847 -356.40820312 218.80517578 C-356.44809055 209.0984289 -356.47388283 199.39176403 -356.48279929 189.68493748 C-356.48801078 184.54592804 -356.50024641 179.4071532 -356.52936554 174.26821899 C-356.55656463 169.42881259 -356.56488118 164.58973689 -356.55887604 159.75026131 C-356.55997426 157.97656519 -356.56790134 156.20285773 -356.58326721 154.42922783 C-356.60326598 152.00124454 -356.59834925 149.57449825 -356.58746338 147.14648438 C-356.59911474 146.44996167 -356.61076611 145.75343897 -356.62277055 145.03580952 C-356.55206405 139.17313162 -354.70643912 133.91810534 -350.65910554 129.62640762 C-345.93921405 125.55214104 -342.47051904 123.91859312 -336.27148438 123.85473633 C-334.50880219 123.83075523 -334.50880219 123.83075523 -332.71051025 123.80628967 C-331.44382507 123.80092697 -330.17713989 123.79556427 -328.87207031 123.79003906 C-326.91137604 123.77649635 -326.91137604 123.77649635 -324.91107178 123.76268005 C-322.14381445 123.74620578 -319.37667784 123.73849329 -316.609375 123.7355957 C-313.08086917 123.7302243 -309.55351497 123.69259197 -306.0253334 123.64685154 C-302.64091962 123.60976005 -299.2566802 123.60855822 -295.87207031 123.60253906 C-294.61348206 123.58300674 -293.3548938 123.56347443 -292.0581665 123.54335022 C-284.85107639 123.58022959 -279.55202856 124.15318885 -274.10644531 129.16113281 C-269.23996645 134.72649025 -267.95656096 139.31193464 -267.9861908 146.54521179 C-267.98533637 147.30323225 -267.98448195 148.06125271 -267.98360163 148.84224349 C-267.98195073 151.3895631 -267.98746185 153.93681728 -267.99291992 156.48413086 C-267.9932019 158.30721027 -267.99304385 160.1302898 -267.99247742 161.95336914 C-267.99218987 166.9096549 -267.99807972 171.86591657 -268.00505137 176.82219672 C-268.01129201 181.99920515 -268.01188928 187.1762141 -268.01307678 192.35322571 C-268.016188 202.15981248 -268.02439858 211.96638814 -268.03442627 221.77297002 C-268.0455939 232.93606633 -268.0510995 244.09916316 -268.05612171 255.26226366 C-268.06658135 278.22855975 -268.0843776 301.19484519 -268.10644531 324.16113281 C-260.51644531 324.16113281 -252.92644531 324.16113281 -245.10644531 324.16113281 C-245.11754837 322.58783203 -245.12865143 321.01453125 -245.14009094 319.39355469 C-245.24147658 304.56221301 -245.31671629 289.73099885 -245.36550617 274.8993988 C-245.3912574 267.2744248 -245.42634841 259.64970997 -245.48364258 252.02490234 C-245.53357261 245.37694177 -245.56575873 238.72916895 -245.57688779 232.08102608 C-245.5833905 228.56273268 -245.5986078 225.04497628 -245.6350956 221.52685547 C-245.67555525 217.59364977 -245.67638857 213.66096322 -245.67407227 209.72753906 C-245.70103683 207.98936668 -245.70103683 207.98936668 -245.72854614 206.21607971 C-245.67802788 198.28116025 -244.04462257 193.51487059 -238.73439503 187.64430237 C-232.15357946 181.43939062 -223.35098258 181.86142951 -214.88769531 181.89550781 C-213.30172546 181.89263763 -213.30172546 181.89263763 -211.68371582 181.88970947 C-209.45824952 181.88835433 -207.23277513 181.89200365 -205.00732422 181.90039062 C-201.61700545 181.91109946 -198.22721651 181.90047222 -194.83691406 181.88769531 C-192.66633999 181.88901703 -190.49576624 181.89157966 -188.32519531 181.89550781 C-186.81705261 181.88943512 -186.81705261 181.88943512 -185.27844238 181.88323975 C-176.95189986 181.93822999 -169.77569131 182.67753055 -163.10644531 188.16113281 C-158.59609727 193.39069852 -156.97923194 197.45660995 -156.9861908 204.38763428 C-156.9841288 205.97353615 -156.9841288 205.97353615 -156.98202515 207.59147644 C-156.98562042 208.74593765 -156.9892157 209.90039886 -156.99291992 211.08984375 C-156.9927739 212.30962418 -156.99262787 213.5294046 -156.99247742 214.78614807 C-156.99305451 218.12673803 -156.99806823 221.46726611 -157.00505137 224.80784512 C-157.0113046 228.30054479 -157.01189027 231.7932453 -157.01307678 235.28594971 C-157.01618429 241.89798553 -157.02438986 248.51000482 -157.03442627 255.12203336 C-157.04560543 262.65039655 -157.05110241 270.17876053 -157.05612171 277.70712996 C-157.06657294 293.19180742 -157.0843627 308.67646733 -157.10644531 324.16113281 C-149.84644531 324.16113281 -142.58644531 324.16113281 -135.10644531 324.16113281 C-135.11643806 320.09443016 -135.11643806 320.09443016 -135.12663269 315.9455719 C-135.18793011 290.41587406 -135.23257965 264.88618592 -135.26188183 239.35643101 C-135.27734751 226.23083655 -135.29843143 213.10529611 -135.33276367 199.97973633 C-135.36267504 188.53886168 -135.38202249 177.09802616 -135.3887108 165.65711349 C-135.39262008 159.59983123 -135.40180144 153.54266088 -135.42363548 147.48541451 C-135.44402795 141.7817736 -135.45027346 136.07829052 -135.44576836 130.37461662 C-135.44659231 128.28367632 -135.4525414 126.19273063 -135.46406174 124.1018219 C-135.47904894 121.24087119 -135.47537615 118.3805117 -135.46720886 115.51954651 C-135.47594739 114.69753535 -135.48468591 113.8755242 -135.49368924 113.02860361 C-135.441274 106.20768286 -133.98093525 100.17370592 -130.35644531 94.34863281 C-125.01442985 89.15500667 -119.30682848 87.06442327 -111.94580078 86.98413086 C-110.91727997 86.97129562 -109.88875916 86.95846039 -108.82907104 86.94523621 C-107.72177643 86.93784927 -106.61448181 86.93046234 -105.47363281 86.92285156 C-104.32661896 86.91477982 -103.1796051 86.90670807 -101.99783325 86.89839172 C-99.5685578 86.88456289 -97.13926301 86.87383537 -94.70996094 86.8659668 C-91.01622065 86.84879448 -87.32338496 86.80490041 -83.62988281 86.76074219 C-81.26530604 86.75061112 -78.90072167 86.74209632 -76.53613281 86.73535156 C-75.44098358 86.71784348 -74.34583435 86.70033539 -73.21749878 86.68229675 C-65.56995475 86.70365696 -58.09827978 87.62655829 -52.16281128 92.88212585 C-46.49762176 98.90272967 -45.81074176 105.29017426 -45.86593628 113.23471069 C-45.863373 114.5899728 -45.863373 114.5899728 -45.86075795 115.97261393 C-45.85746868 118.99435634 -45.86845755 122.01587577 -45.87939453 125.03759766 C-45.87995877 127.20594274 -45.87964185 129.3742882 -45.87850952 131.54263306 C-45.87793549 137.4264211 -45.88969806 143.31012767 -45.90365744 149.19389677 C-45.91615632 155.34382941 -45.91733463 161.4937639 -45.91970825 167.64370728 C-45.92592549 179.28829553 -45.94233964 190.93284625 -45.96240723 202.57741797 C-45.98475862 215.83485708 -45.99575776 229.09229798 -46.0057981 242.34975123 C-46.02670562 269.62023328 -46.06228904 296.89067936 -46.10644531 324.16113281 C-38.84644531 324.16113281 -31.58644531 324.16113281 -24.10644531 324.16113281 C-24.10921069 322.59146507 -24.11197607 321.02179733 -24.11482525 319.4045639 C-24.17979902 282.14368184 -24.22926698 244.88280764 -24.2596413 207.62188074 C-24.26339342 203.03568081 -24.26727639 198.449481 -24.27124023 193.86328125 C-24.27202717 192.95025161 -24.2728141 192.03722198 -24.27362487 191.09652478 C-24.28667872 176.31296471 -24.31033245 161.52943964 -24.3379037 146.74590033 C-24.36595848 131.57657742 -24.38262173 116.40727284 -24.3887108 101.23792505 C-24.39282708 91.87766012 -24.40582802 82.51749412 -24.43019471 73.15725964 C-24.44605279 66.73855801 -24.4508455 60.31990752 -24.44694944 53.90118772 C-24.44502801 50.1979415 -24.44797314 46.49486816 -24.46406174 42.79165268 C-24.48138716 38.77435963 -24.47540488 34.75743425 -24.46720886 30.7401123 C-24.47594739 29.57278486 -24.48468591 28.40545741 -24.49368924 27.2027564 C-24.44669055 18.6904214 -23.40256744 11.45725494 -17.10644531 5.16113281 C-11.63705707 1.29731678 -6.60583727 0.05197825 0 0 Z " fill="#126FFF" transform="translate(410.1064453125,133.8388671875)"/>
<path d="M0 0 C1.50208511 -0.01913956 1.50208511 -0.01913956 3.03451538 -0.03866577 C4.11061066 -0.04089142 5.18670593 -0.04311707 6.29541016 -0.04541016 C7.40751862 -0.05206696 8.51962708 -0.05872375 9.66543579 -0.06558228 C12.01733751 -0.07570459 14.36926793 -0.08039943 16.72119141 -0.08007812 C20.31412242 -0.08444791 23.90582173 -0.12076449 27.49853516 -0.15869141 C29.78498929 -0.16456032 32.07144926 -0.16852921 34.35791016 -0.17041016 C35.42995697 -0.18478119 36.50200378 -0.19915222 37.60653687 -0.21395874 C43.67573256 -0.17689856 47.42278726 0.0916704 51.95947266 4.29052734 C53.93678909 7.44377664 54.20858856 9.87088967 54.20556831 13.56163406 C54.20955041 14.6355173 54.21353251 15.70940054 54.21763527 16.8158257 C54.20889675 18.58429392 54.20889675 18.58429392 54.19998169 20.38848877 C54.20169054 21.64147349 54.20339939 22.89445821 54.20516002 24.18541217 C54.20963728 27.66530251 54.20162472 31.14507 54.1916039 34.62494469 C54.18297714 38.37678399 54.18588901 42.12861622 54.18740845 45.88046265 C54.18845779 52.38145848 54.18217605 58.88241421 54.17093277 65.38339996 C54.1546874 74.78275977 54.14947075 84.18210016 54.14695679 93.58147249 C54.14257817 108.83085594 54.12926455 124.08021801 54.11035156 139.32958984 C54.09199707 154.14404188 54.07783846 168.95848811 54.06933594 183.77294922 C54.06881049 184.68591897 54.06828504 185.59888872 54.06774367 186.53952423 C54.06513362 191.11956746 54.0626062 195.69961073 54.06011987 200.27965403 C54.03938218 238.28329745 54.00250962 276.28690134 53.95947266 314.29052734 C31.84947266 314.29052734 9.73947266 314.29052734 -13.04052734 314.29052734 C-13.12868706 275.41005882 -13.20255216 236.52968446 -13.24478866 197.64914461 C-13.24979157 193.06036707 -13.25496885 188.47158973 -13.26025391 183.8828125 C-13.26182777 182.51248111 -13.26182777 182.51248111 -13.26343343 181.11446626 C-13.28084513 166.31660763 -13.31238704 151.51881107 -13.34913853 136.72098927 C-13.38652664 121.54037758 -13.40875869 106.35979844 -13.41688132 91.17914259 C-13.42237352 81.80962567 -13.43972859 72.44028417 -13.47219321 63.07082124 C-13.49331482 56.64838777 -13.49973274 50.22604518 -13.49453285 43.80357949 C-13.49196739 40.09647801 -13.49593759 36.38968338 -13.51734924 32.68263626 C-13.5403881 28.66455528 -13.53249053 24.64712966 -13.52154541 20.6289978 C-13.53319678 19.45584467 -13.54484814 18.28269154 -13.55685258 17.07398832 C-13.51089721 10.85443898 -13.28514156 6.98739307 -9.04052734 2.29052734 C-6.06820368 0.20626771 -3.58304703 0.03107483 0 0 Z " fill="#D5E7FF" transform="translate(410.04052734375,144.70947265625)"/>
<path d="M0 0 C1.50692665 -0.01429802 1.50692665 -0.01429802 3.04429626 -0.02888489 C4.12352859 -0.02797348 5.20276093 -0.02706207 6.31469727 -0.02612305 C7.4291774 -0.03040817 8.54365753 -0.0346933 9.69190979 -0.03910828 C12.04801759 -0.04484932 14.40414311 -0.0453535 16.76025391 -0.04101562 C20.36399592 -0.03785679 23.96691618 -0.06131471 27.57055664 -0.08666992 C29.86026915 -0.08894304 32.14998386 -0.08964635 34.43969727 -0.08862305 C36.05550941 -0.10243767 36.05550941 -0.10243767 37.70396423 -0.11653137 C44.04708918 -0.077326 47.85790754 0.2749399 52.54408741 4.83054733 C54.6225374 8.46034637 54.34648382 12.0382083 54.30436707 16.10772705 C54.30693034 17.00952627 54.30949361 17.91132549 54.31213456 18.84045196 C54.31708416 21.86850608 54.30056001 24.89606391 54.28417969 27.92407227 C54.28333367 30.09212228 54.28380806 32.26017315 54.2855072 34.42822266 C54.28636957 40.32043483 54.26870466 46.21246459 54.24778533 52.10463428 C54.22905877 58.25991204 54.22727126 64.41519376 54.22370911 70.57049561 C54.21437682 82.22933926 54.18974698 93.88809873 54.15966064 105.54690528 C54.12615348 118.81880268 54.10963989 132.09069944 54.09457433 145.36262941 C54.06319848 172.66669646 54.00817157 199.97064808 53.94360352 227.2746582 C31.83360352 227.2746582 9.72360352 227.2746582 -13.05639648 227.2746582 C-13.14665581 198.82422529 -13.22035472 170.37390812 -13.26364517 141.92336845 C-13.28427904 128.71359002 -13.31241556 115.50390679 -13.3581543 102.29418945 C-13.39799661 90.78192778 -13.42382329 79.26973505 -13.43275046 67.75740635 C-13.43796958 61.66049932 -13.45025386 55.56378953 -13.47931671 49.46694565 C-13.50644444 43.72963034 -13.51484672 37.99259376 -13.50882721 32.25522041 C-13.50992862 30.1485003 -13.51789804 28.04177097 -13.53321838 25.93510628 C-13.55310463 23.05981834 -13.54834037 20.18558428 -13.53741455 17.31027222 C-13.54906592 16.47563159 -13.56071728 15.64099096 -13.57272172 14.78105819 C-13.51826925 9.48355816 -12.55350576 6.48986729 -9.05639648 2.2746582 C-6.07691496 0.18277985 -3.5925648 0.01876586 0 0 Z " fill="#92C0FF" transform="translate(299.056396484375,231.725341796875)"/>
<path d="M0 0 C0.73334907 -0.00465992 1.46669815 -0.00931984 2.22226992 -0.01412097 C4.68706274 -0.02610062 7.15130736 -0.01666431 9.61610508 -0.00736332 C11.39806138 -0.01153494 13.18001502 -0.01701151 14.96196371 -0.02368313 C19.86461587 -0.03817898 24.76710052 -0.03388011 29.66976202 -0.02651632 C34.95478971 -0.02179718 40.23978051 -0.03428335 45.52479649 -0.04453373 C55.88078518 -0.06175161 66.23671328 -0.06255556 76.59271257 -0.05732083 C85.00788087 -0.05328352 93.42303123 -0.05471744 101.83819866 -0.06006908 C103.63301806 -0.06119172 103.63301806 -0.06119172 105.46409645 -0.06233703 C107.89467839 -0.06386847 110.32526034 -0.06540681 112.75584228 -0.066952 C135.56203509 -0.0806878 158.36819363 -0.07523171 181.17438567 -0.06376678 C202.05046243 -0.05383278 222.92645057 -0.06677607 243.80251365 -0.09070098 C265.22548524 -0.11506816 286.64841552 -0.12470574 308.0714007 -0.11804825 C320.10383465 -0.11455079 332.13620043 -0.11682279 344.16862392 -0.13429928 C354.41136351 -0.14899148 364.65398692 -0.14969578 374.89672416 -0.13222837 C380.12478793 -0.12369148 385.3526439 -0.12163426 390.58069706 -0.13687992 C395.36429138 -0.15065705 400.14749851 -0.14605418 404.93107004 -0.12664068 C406.66385455 -0.12285885 408.39666956 -0.12586503 410.12942707 -0.13625234 C412.48135184 -0.1493515 414.83192619 -0.13790359 417.18379211 -0.12025452 C419.14477928 -0.12009351 419.14477928 -0.12009351 421.14538234 -0.11992925 C426.29074854 0.6135077 429.28509892 3.11873464 433.02981663 6.56781673 C435.34283108 10.57111097 435.41273305 13.86375358 434.65481663 18.38031673 C433.32081433 22.27740211 431.53040178 24.83449713 427.97394508 27.05151027 C424.13760369 28.5873819 421.30156354 28.75955751 417.17376137 28.76622009 C416.06992382 28.77410876 416.06992382 28.77410876 414.94378653 28.7821568 C412.47636743 28.79611971 410.00948003 28.78874542 407.54203892 28.78145504 C405.75580648 28.78705985 403.96957771 28.79396215 402.18335479 28.80205101 C397.27350155 28.82041817 392.36380145 28.82000274 387.45392168 28.81646788 C382.15934116 28.8158562 376.86481 28.83240873 371.57025242 28.84664059 C361.19736325 28.87156809 350.82452522 28.87980543 340.45160861 28.88147772 C332.02216961 28.88290264 323.59274751 28.88906404 315.16331387 28.8985796 C291.27306403 28.92499997 267.38285463 28.93883738 243.49259008 28.93658818 C242.20445248 28.93646831 240.91631487 28.93634844 239.5891428 28.93622494 C238.29943579 28.9361023 237.00972877 28.93597965 235.68093973 28.9358533 C214.77000072 28.93463342 193.85922364 28.96335421 172.94833148 29.00564004 C151.48577063 29.04869966 130.02328883 29.06945241 108.56068367 29.06685871 C96.50750957 29.06586179 84.4545053 29.07414698 72.40137005 29.10639286 C62.14108042 29.13366618 51.88103761 29.14026816 41.62072749 29.11986459 C36.38433174 29.11004806 31.14840992 29.10997278 25.91205883 29.13592434 C21.11966224 29.1594318 16.32811768 29.15531759 11.53574263 29.12907194 C9.80094649 29.12444738 8.06608769 29.12998928 6.33136541 29.14665217 C-8.25526223 29.27749898 -8.25526223 29.27749898 -12.82891846 25.47849083 C-16.4296953 21.04500155 -17.57573154 18.54101788 -17.22018337 12.88031673 C-16.62297746 8.69987532 -15.47586218 6.33706895 -12.34518337 3.38031673 C-8.17829164 0.30694984 -5.1305219 0.00403926 0 0 Z " fill="#FDFEFF" transform="translate(55.34518337249756,468.61968326568604)"/>
<path d="M0 0 C1.59724663 -0.01925285 1.59724663 -0.01925285 3.22676086 -0.03889465 C4.95952522 -0.04997505 4.95952522 -0.04997505 6.72729492 -0.0612793 C7.91119308 -0.06935104 9.09509125 -0.07742279 10.31486511 -0.08573914 C12.82415294 -0.09958868 15.33345969 -0.11030692 17.84277344 -0.11816406 C21.68159651 -0.13538069 25.51955949 -0.17926123 29.3581543 -0.22338867 C31.79369483 -0.23351493 34.22924269 -0.24203124 36.66479492 -0.2487793 C38.38845024 -0.27504143 38.38845024 -0.27504143 40.14692688 -0.30183411 C48.12559206 -0.2801061 48.12559206 -0.2801061 52.09716797 2.07861328 C55.24999803 5.75798523 55.03468961 8.71679211 55.01551819 13.36489868 C55.01637261 14.11389761 55.01722704 14.86289654 55.01810735 15.63459241 C55.01976128 18.15737916 55.01424221 20.68010018 55.00878906 23.20288086 C55.00850715 25.00610859 55.00866501 26.80933643 55.00923157 28.61256409 C55.00951937 33.51932395 55.00362544 38.42605954 54.99665761 43.33281374 C54.99042118 48.45644286 54.98982004 53.5800725 54.9886322 58.70370483 C54.98551974 68.41116025 54.9773075 78.11860446 54.96728271 87.82605493 C54.95611893 98.87546635 54.95061046 109.9248783 54.94558728 120.97429395 C54.93512482 143.70853761 54.91678039 166.44276588 54.89526367 189.17700195 C33.11526367 189.17700195 11.33526367 189.17700195 -11.10473633 189.17700195 C-11.19499538 165.40311487 -11.26869433 141.62936629 -11.31198502 117.85535145 C-11.33261899 106.81691674 -11.36075562 95.77859596 -11.40649414 84.74023438 C-11.44633625 75.12031389 -11.47216306 65.50047592 -11.48109031 55.88047522 C-11.48630949 50.78571498 -11.49859392 45.69119078 -11.52765656 40.59650612 C-11.5547841 35.80225089 -11.56318669 31.0083292 -11.55716705 26.21400452 C-11.55826848 24.45356115 -11.56623822 22.69310677 -11.58155823 20.93272972 C-11.60144497 18.52996314 -11.59668101 16.12845767 -11.58575439 13.72566223 C-11.59740576 13.0281829 -11.60905713 12.33070357 -11.62106156 11.6120885 C-11.56286078 6.88089366 -10.43832663 4.50386498 -7.10473633 1.17700195 C-4.58639455 -0.08216893 -2.8188158 0.02952707 0 0 Z " fill="#93C0FF" transform="translate(76.104736328125,268.822998046875)"/>
<path d="M0 0 C1.11069351 -0.00524185 2.22138702 -0.0104837 3.36573792 -0.0158844 C5.7116716 -0.02229999 8.05763748 -0.02097363 10.40356445 -0.01245117 C13.98772631 -0.00394465 17.57029252 -0.03270578 21.15429688 -0.06445312 C23.43619744 -0.06606537 25.71810082 -0.06548717 28 -0.0625 C29.06890976 -0.07373398 30.13781952 -0.08496796 31.23912048 -0.09654236 C37.31922928 -0.03975879 40.97371914 0.31049128 45.56640625 4.43359375 C47.76845601 7.73666839 47.81460905 8.7044983 47.80691528 12.5398407 C47.80966461 13.59573395 47.81241394 14.6516272 47.81524658 15.73951721 C47.80446075 17.47660194 47.80446075 17.47660194 47.79345703 19.2487793 C47.79374908 20.4684137 47.79404114 21.6880481 47.79434204 22.94464111 C47.79318657 26.28949471 47.78314893 29.63410211 47.76919413 32.97891212 C47.75670049 36.47428142 47.75551735 39.96965393 47.75314331 43.46504211 C47.74692451 50.08421818 47.73050831 56.70332826 47.71044433 63.32247525 C47.68590605 71.5971323 47.67495089 79.87180004 47.6640625 88.14648438 C47.64457701 102.90890558 47.60451372 117.67118278 47.56640625 132.43359375 C25.45640625 132.43359375 3.34640625 132.43359375 -19.43359375 132.43359375 C-19.55408476 101.64591061 -19.55408476 101.64591061 -19.58435535 86.45283031 C-19.60098807 78.23160298 -19.62211375 70.01046683 -19.65991211 61.78930664 C-19.68982143 55.28091133 -19.70917039 48.77258479 -19.71585923 42.26412266 C-19.71976893 38.81817468 -19.72895235 35.37242339 -19.75078392 31.92653847 C-19.77496229 28.07899931 -19.77556275 24.23165229 -19.77416992 20.3840332 C-19.78495575 19.24251801 -19.79574158 18.10100281 -19.80685425 16.92489624 C-19.80273026 15.87466782 -19.79860626 14.82443939 -19.7943573 13.74238586 C-19.79712268 12.83257619 -19.79988806 11.92276651 -19.80273724 10.98538685 C-19.2245729 6.98868687 -17.42223588 4.32827757 -14.46069336 1.64819336 C-9.71731474 -0.25504953 -5.06425801 -0.01388212 0 0 Z " fill="#D4E7FF" transform="translate(194.43359375,326.56640625)"/>
<path d="M0 0 C1.41179071 2.62229435 1.1586175 4.34828445 0.85473633 7.30639648 C0.73565918 8.46768066 0.61658203 9.62896484 0.49389648 10.82543945 C-0.36171044 17.84741584 -1.34449731 24.84755297 -2.42773438 31.83789062 C-2.82484638 34.42885543 -3.19882269 37.0225796 -3.57299805 39.61694336 C-3.82744254 41.27666609 -4.08325167 42.93618033 -4.34057617 44.59545898 C-4.44803665 45.36523575 -4.55549713 46.13501251 -4.66621399 46.92811584 C-5.21677301 50.3209908 -5.82568808 52.60023035 -7.91748047 55.36083984 C-10.00854492 56.84155273 -10.00854492 56.84155273 -13.13354492 56.77905273 C-16.00854492 55.84155273 -16.00854492 55.84155273 -18.00854492 52.84155273 C-17.85235494 50.13327745 -17.58789026 47.57835335 -17.19604492 44.90405273 C-16.99255971 43.37562729 -16.79074772 41.84697819 -16.59057617 40.31811523 C-16.4895459 39.56304687 -16.38851563 38.80797852 -16.28442383 38.0300293 C-15.69028174 33.31685258 -15.355354 28.57823458 -15.00854492 23.84155273 C-16.03292947 24.83791461 -17.05277205 25.8389456 -18.07104492 26.84155273 C-18.63952148 27.39842773 -19.20799805 27.95530273 -19.79370117 28.52905273 C-21.65630641 30.47378343 -23.40807859 32.45583253 -25.16088867 34.49780273 C-30.13499698 40.21958356 -35.58100305 45.46025955 -40.98120117 50.77514648 C-45.24326873 54.99616684 -49.31513051 59.28123664 -53.22143555 63.83178711 C-57.35910656 68.48497123 -61.89862724 72.76703636 -66.33666992 77.13061523 C-69.83947419 80.59767661 -73.26618214 84.06959876 -76.47729492 87.81030273 C-81.32150521 93.44699904 -86.68785564 98.56542411 -91.98120117 103.77514648 C-95.61193664 107.370915 -99.17911849 110.96302229 -102.50854492 114.84155273 C-107.33986879 120.4696803 -112.69851871 125.57591872 -117.98120117 130.77514648 C-121.61193664 134.370915 -125.17911849 137.96302229 -128.50854492 141.84155273 C-133.33986879 147.4696803 -138.69851871 152.57591872 -143.98120117 157.77514648 C-147.61193664 161.370915 -151.17911849 164.96302229 -154.50854492 168.84155273 C-159.33986879 174.4696803 -164.69851871 179.57591872 -169.98120117 184.77514648 C-173.61193664 188.370915 -177.17911849 191.96302229 -180.50854492 195.84155273 C-185.33986879 201.4696803 -190.69851871 206.57591872 -195.98120117 211.77514648 C-199.61193664 215.370915 -203.17911849 218.96302229 -206.50854492 222.84155273 C-211.33986879 228.4696803 -216.69851871 233.57591872 -221.98120117 238.77514648 C-226.24491073 242.99779303 -230.33992106 247.27889451 -234.25268555 251.82788086 C-237.55337113 255.61320548 -241.014666 259.23516966 -244.50854492 262.84155273 C-245.22913086 263.6162793 -245.9497168 264.39100586 -246.69213867 265.18920898 C-249.94894631 268.52846745 -252.03260214 270.58962824 -256.61010742 271.77124023 C-261.47815001 270.43952284 -263.68273849 267.73870715 -266.88354492 263.96655273 C-267.49504395 263.27835449 -268.10654297 262.59015625 -268.73657227 261.88110352 C-270.50986611 259.88129233 -272.25935067 257.8624259 -274.00854492 255.84155273 C-275.54630728 254.12970408 -277.08733223 252.42077256 -278.63354492 250.71655273 C-279.67961914 249.54672852 -279.67961914 249.54672852 -280.74682617 248.35327148 C-284.93713764 243.69978224 -289.20200661 239.11467631 -293.45581055 234.51928711 C-295.99620972 231.77437782 -298.53386829 229.02694055 -301.07104492 226.27905273 C-301.56838135 225.74046631 -302.06571777 225.20187988 -302.578125 224.64697266 C-306.34976953 220.56035798 -310.10891627 216.46243294 -313.86425781 212.36083984 C-317.23655682 208.67927752 -320.62036306 205.00849872 -324.00854492 201.34155273 C-330.14557109 194.69895015 -336.2562312 188.03243614 -342.36303711 181.36206055 C-343.26946752 180.37210019 -344.17604374 179.38227332 -345.08276367 178.39257812 C-345.98697224 177.40530025 -346.89062419 176.41751228 -347.79370117 175.42919922 C-350.2771938 172.71488054 -352.77726367 170.01781332 -355.29760742 167.33764648 C-355.84360596 166.75426514 -356.38960449 166.17088379 -356.95214844 165.56982422 C-358.00611111 164.4446543 -359.06371645 163.32288189 -360.12548828 162.20507812 C-362.61036797 159.54608526 -364.47923049 157.1318025 -366.00854492 153.84155273 C-374.55211151 160.48784952 -382.13543048 167.74944877 -389.69604492 175.46655273 C-391.84228574 177.64971468 -393.99186576 179.8295124 -396.14526367 182.00561523 C-396.66103973 182.52698059 -397.1768158 183.04834595 -397.70822144 183.58551025 C-401.02763321 186.91811423 -404.45659867 190.0450465 -408.03515625 193.09301758 C-412.22160859 196.80245364 -416.08493364 200.8584928 -420.00854492 204.84155273 C-425.27241822 210.18518169 -430.51802926 215.44671977 -436.26220703 220.27734375 C-438.18225244 221.99714397 -439.86551928 223.84816032 -441.57104492 225.77905273 C-444.24652879 228.51590091 -444.79761954 228.8104326 -448.82104492 229.40405273 C-452.00854492 228.84155273 -452.00854492 228.84155273 -454.00854492 226.84155273 C-454.64032561 222.87035985 -454.29060954 221.25583515 -452.00854492 217.90405273 C-449.96107405 215.68013721 -447.74914542 213.72935611 -445.44604492 211.77514648 C-440.38548772 207.37549158 -435.71213891 202.6164133 -431.00854492 197.84155273 C-425.83682516 192.59147358 -420.65815283 187.47083501 -415.06323242 182.67358398 C-410.85868302 178.92466066 -406.96022508 174.85310683 -403.00854492 170.84155273 C-397.78160713 165.53541891 -392.54648622 160.35854874 -386.88891602 155.51245117 C-383.0462499 152.09785666 -379.55171124 148.30881392 -376.03393555 144.56420898 C-371.67587185 140.07525795 -371.67587185 140.07525795 -368.23120117 138.86889648 C-364.90284863 138.82795014 -363.63935054 139.77449118 -361.00854492 141.84155273 C-359.36308978 143.5802348 -357.82191536 145.38681739 -356.27807617 147.21655273 C-353.35920805 150.59259297 -350.31296028 153.83834626 -347.25854492 157.09155273 C-341.12892699 163.6336476 -335.05505881 170.22258783 -329.00854492 176.84155273 C-327.19688747 178.82149186 -325.38418177 180.80046836 -323.57104492 182.77905273 C-323.11963135 183.27171631 -322.66821777 183.76437988 -322.203125 184.27197266 C-318.81313717 187.96943148 -315.41258832 191.65703457 -312.00854492 195.34155273 C-305.87155919 201.9841929 -299.76085885 208.6506691 -293.65405273 215.32104492 C-287.95119722 221.54943355 -282.23740514 227.76738137 -276.50463867 233.96826172 C-273.98944608 236.69018808 -271.47977937 239.41685991 -268.98120117 242.15405273 C-268.49200195 242.6896582 -268.00280273 243.22526367 -267.4987793 243.77709961 C-266.15860626 245.24560659 -264.8198538 246.71540965 -263.48120117 248.18530273 C-261.0474175 250.79979388 -258.54022481 253.3222585 -256.00854492 255.84155273 C-252.57300883 252.43098141 -249.14095927 249.01695083 -245.71191406 245.59985352 C-244.54812218 244.44104955 -243.38342944 243.28314951 -242.21777344 242.1262207 C-236.52099968 236.47099356 -230.88417329 230.84204992 -225.67480469 224.72827148 C-221.59229949 220.10561944 -217.07588695 215.87420781 -212.68041992 211.55249023 C-209.17761565 208.08542886 -205.75090771 204.61350671 -202.53979492 200.87280273 C-197.69558463 195.23610643 -192.3292342 190.11768136 -187.03588867 184.90795898 C-183.4051532 181.31219047 -179.83797135 177.72008318 -176.50854492 173.84155273 C-171.67722106 168.21342517 -166.31857114 163.10718675 -161.03588867 157.90795898 C-157.4051532 154.31219047 -153.83797135 150.72008318 -150.50854492 146.84155273 C-145.67722106 141.21342517 -140.31857114 136.10718675 -135.03588867 130.90795898 C-131.4051532 127.31219047 -127.83797135 123.72008318 -124.50854492 119.84155273 C-119.67722106 114.21342517 -114.31857114 109.10718675 -109.03588867 103.90795898 C-105.4051532 100.31219047 -101.83797135 96.72008318 -98.50854492 92.84155273 C-93.67722106 87.21342517 -88.31857114 82.10718675 -83.03588867 76.90795898 C-78.77382112 72.68693863 -74.70195934 68.40186883 -70.7956543 63.85131836 C-66.65798329 59.19813424 -62.1184626 54.91606911 -57.68041992 50.55249023 C-54.18410652 47.0918535 -50.76315691 43.62725354 -47.55932617 39.89233398 C-43.36522043 35.01110621 -38.77921799 30.54176964 -34.19604492 26.02905273 C-32.49972246 24.35821972 -30.8056062 22.68514303 -29.11401367 21.00952148 C-28.00255981 19.91546997 -28.00255981 19.91546997 -26.86865234 18.79931641 C-24.84429455 16.78040358 -24.84429455 16.78040358 -23.00854492 13.84155273 C-23.87636597 13.97787109 -23.87636597 13.97787109 -24.76171875 14.11694336 C-48.78699842 17.84586947 -48.78699842 17.84586947 -55.00854492 16.84155273 C-57.00854492 14.84155273 -57.00854492 14.84155273 -57.32104492 11.90405273 C-57.00854492 8.84155273 -57.00854492 8.84155273 -55.75480652 7.21159363 C-53.6922135 5.59337286 -52.33477696 5.26262492 -49.75585938 4.85839844 C-48.90099442 4.71847977 -48.04612946 4.5785611 -47.1653595 4.43440247 C-46.2434935 4.29676987 -45.3216275 4.15913727 -44.37182617 4.01733398 C-43.41841843 3.86620651 -42.46501068 3.71507904 -41.48271179 3.55937195 C-39.4636665 3.24192121 -37.44367281 2.93045342 -35.42285156 2.62451172 C-32.34813759 2.15816195 -29.27698661 1.67239981 -26.20581055 1.18334961 C-24.24049636 0.87685074 -22.27500644 0.57147619 -20.30932617 0.26733398 C-18.94170891 0.05177605 -18.94170891 0.05177605 -17.54646301 -0.1681366 C-3.85001469 -2.22053236 -3.85001469 -2.22053236 0 0 Z " fill="#106EFF" transform="translate(465.008544921875,5.158447265625)"/>
</svg>
